<svg width="50" height="50" viewBox="0 0 50 50" fill="none" xmlns="http://www.w3.org/2000/svg">
<g clip-path="url(#clip0_61_2526)">
<path opacity="0.733333" d="M33.9355 2.63672L34.8633 2.68555L33.9355 2.73438V2.63672Z" fill="white" stroke="white"/>
<path opacity="0.733333" d="M15.1855 2.92969L16.1133 2.97852L15.1855 3.02734V2.92969Z" fill="white" stroke="white"/>
<path opacity="0.733333" d="M33.0566 2.92969L32.959 3.125" stroke="white"/>
<path opacity="0.733333" d="M35.791 3.02734L35.8887 3.22266" stroke="white"/>
<path opacity="0.733333" d="M32.7637 3.125L32.666 3.32031" stroke="white"/>
<path opacity="0.733333" d="M16.9434 3.22266L17.041 3.41797" stroke="white"/>
<path opacity="0.733333" d="M36.084 3.22266L49.3652 16.6016" stroke="white"/>
<path opacity="0.733333" d="M17.2363 3.41797L17.334 3.61328" stroke="white"/>
<path opacity="0.733333" d="M13.916 3.51562L0.634766 16.8945" stroke="#1B2243"/>
<path opacity="0.733333" d="M34.5215 4.10156L34.7656 4.15039L34.5215 4.19922V4.10156Z" fill="white" stroke="white"/>
<path opacity="0.733333" d="M33.7402 4.19922L33.6426 4.39453" stroke="white"/>
<path opacity="0.733333" d="M35.1074 4.29688L48.291 17.5781" stroke="white"/>
<path opacity="0.733333" d="M16.2598 4.49219L16.3574 4.6875" stroke="white"/>
<path opacity="0.733333" d="M14.8926 4.58984L1.70898 17.8711" stroke="#1B2243"/>
<path opacity="0.733333" d="M30.5176 5.37109L30.3223 5.66406" stroke="white"/>
<path opacity="0.733333" d="M19.5801 5.76172L19.6777 5.95703" stroke="white"/>
<path opacity="0.733333" d="M30.2246 5.76172L30.1758 5.9082L30.127 6.05469L30.0781 5.9082L30.2246 5.76172Z" fill="white" stroke="white"/>
<path opacity="0.733333" d="M31.4941 6.44531L31.3965 6.64062" stroke="white"/>
<path opacity="0.733333" d="M29.834 6.73828L29.8828 7.66602H29.7852L29.834 6.73828Z" fill="white" stroke="white"/>
<path opacity="0.733333" d="M31.2988 6.83594L31.3477 7.08008H31.25L31.2988 6.83594Z" fill="white" stroke="white"/>
<path opacity="0.733333" d="M18.7012 7.12891L18.75 7.37305H18.6523L18.7012 7.12891Z" fill="white" stroke="white"/>
<path opacity="0.733333" d="M20.166 7.12891L20.2148 7.86133H20.1172L20.166 7.12891Z" fill="white" stroke="white"/>
<path opacity="0.733333" d="M18.7012 7.51953L18.75 7.86133H18.6523L18.7012 7.51953Z" fill="white" stroke="white"/>
<path opacity="0.733333" d="M31.4941 7.91016L33.5449 10.0586" stroke="white"/>
<path opacity="0.733333" d="M18.5059 8.20312L11.5723 15.2344" stroke="white"/>
<path opacity="0.733333" d="M29.1504 8.30078L29.4922 8.34961L29.1504 8.39844V8.30078Z" fill="white" stroke="white"/>
<path opacity="0.733333" d="M28.3691 8.39844L28.7109 8.44727L28.3691 8.49609V8.39844Z" fill="white" stroke="white"/>
<path opacity="0.733333" d="M27.5879 8.49609L27.9297 8.54492L27.5879 8.59375V8.49609Z" fill="white" stroke="white"/>
<path opacity="0.733333" d="M26.8066 8.59375L27.1484 8.64258L26.8066 8.69141V8.59375Z" fill="white" stroke="white"/>
<path opacity="0.733333" d="M26.0254 8.69141L26.2695 8.74023L26.0254 8.78906V8.69141Z" fill="white" stroke="white"/>
<path opacity="0.733333" d="M20.0684 9.375L20.166 9.57031" stroke="white"/>
<path opacity="0.733333" d="M30.6152 9.57031L30.957 9.61914L30.6152 9.66797V9.57031Z" fill="white" stroke="white"/>
<path opacity="0.733333" d="M31.1035 9.57031L32.5684 11.1328" stroke="white"/>
<path opacity="0.733333" d="M20.5566 9.66797L20.6543 9.86328" stroke="white"/>
<path opacity="0.733333" d="M29.834 9.66797L30.1758 9.7168L29.834 9.76562V9.66797Z" fill="white" stroke="white"/>
<path opacity="0.733333" d="M29.0527 9.76562L29.3945 9.81445L29.0527 9.86328V9.76562Z" fill="white" stroke="white"/>
<path opacity="0.733333" d="M20.8496 9.86328L20.9473 10.0586" stroke="white"/>
<path opacity="0.733333" d="M28.2715 9.86328L28.6133 9.91211L28.2715 9.96094V9.86328Z" fill="white" stroke="white"/>
<path opacity="0.733333" d="M27.4902 9.96094L27.832 10.0098L27.4902 10.0586V9.96094Z" fill="white" stroke="white"/>
<path opacity="0.733333" d="M21.1426 10.0586L21.2402 10.2539" stroke="white"/>
<path opacity="0.733333" d="M22.998 10.0586L22.3145 10.8398" stroke="white"/>
<path opacity="0.733333" d="M26.709 10.0586L27.0508 10.1074L26.709 10.1562V10.0586Z" fill="white" stroke="white"/>
<path opacity="0.733333" d="M26.0254 10.1562L26.2695 10.2051L26.0254 10.2539V10.1562Z" fill="white" stroke="white"/>
<path opacity="0.733333" d="M18.5059 10.2539L18.6523 10.3027L12.5488 16.3086L18.5059 10.2539Z" fill="#1B2243" stroke="#1B2243"/>
<path opacity="0.733333" d="M21.4355 10.2539L21.5332 10.4492" stroke="white"/>
<path opacity="0.733333" d="M21.7285 10.4492L21.8262 10.6445" stroke="white"/>
<path opacity="0.733333" d="M19.3848 10.6445L19.4824 10.8398" stroke="white"/>
<path opacity="0.733333" d="M22.0215 10.6445L22.1191 10.8398" stroke="white"/>
<path opacity="0.733333" d="M33.6426 10.6445L33.6914 10.791L33.4961 10.8887L33.6426 10.6445Z" fill="white" stroke="white"/>
<path opacity="0.733333" d="M24.0723 11.0352L23.0957 12.1094" stroke="white"/>
<path opacity="0.733333" d="M20.166 11.1328L20.2637 11.3281" stroke="white"/>
<path opacity="0.733333" d="M32.7637 11.1328L33.2031 11.1816L32.7637 11.2305V11.1328Z" fill="white" stroke="white"/>
<path opacity="0.733333" d="M20.459 11.3281L20.5566 11.5234" stroke="white"/>
<path opacity="0.733333" d="M20.752 11.5234L20.8496 11.7188" stroke="white"/>
<path opacity="0.733333" d="M21.0449 11.7188L21.2891 11.9629L20.9473 12.3047L21.1914 11.9629L21.0449 11.7188Z" fill="white" stroke="white"/>
<path opacity="0.733333" d="M35.8887 12.3047L44.6777 21.1914" stroke="white"/>
<path opacity="0.733333" d="M22.6074 12.5977L21.8262 13.4766" stroke="white"/>
<path opacity="0.733333" d="M20.459 12.793L19.7754 13.5742" stroke="white"/>
<path opacity="0.733333" d="M34.8145 13.2812L43.0176 21.582" stroke="white"/>
<path opacity="0.733333" d="M21.3379 13.9648L20.6543 14.7461" stroke="white"/>
<path opacity="0.733333" d="M19.1895 14.1602L18.5059 14.9414" stroke="white"/>
<path opacity="0.733333" d="M20.0684 15.332L19.3848 16.1133" stroke="#1B2243"/>
<path opacity="0.733333" d="M17.9199 15.5273L17.627 15.918" stroke="#1B2243"/>
<path opacity="0.733333" d="M11.5723 16.0156L11.7676 16.3086" stroke="#1B2243"/>
<path opacity="0.733333" d="M17.4316 16.1133L17.334 16.3086" stroke="#1B2243"/>
<path opacity="0.733333" d="M11.9629 16.3086L12.3047 16.3574L11.9629 16.4062V16.3086Z" fill="#1B2243" stroke="#1B2243"/>
<path opacity="0.733333" d="M26.2207 16.4062L26.9531 16.4551L26.2207 16.5039V16.4062Z" fill="#1B2243" stroke="#1B2243"/>
<path opacity="0.733333" d="M17.1387 16.6016L17.041 16.7969" stroke="#1B2243"/>
<path opacity="0.733333" d="M18.8965 16.6016L18.7012 16.8945" stroke="#1B2243"/>
<path opacity="0.733333" d="M25.7324 16.6016L25.6348 16.7969" stroke="#1B2243"/>
<path opacity="0.733333" d="M28.0762 17.0898L28.4668 17.5781" stroke="#1B2243"/>
<path opacity="0.733333" d="M9.61914 17.2852L9.86328 17.334L9.61914 17.3828V17.2852Z" fill="#1B2243" stroke="#1B2243"/>
<path opacity="0.733333" d="M18.4082 17.2852L18.3105 17.4805" stroke="#1B2243"/>
<path opacity="0.733333" d="M25.0488 17.2852L24.6582 17.7734" stroke="#1B2243"/>
<path opacity="0.733333" d="M10.1074 17.3828L10.3027 17.6758" stroke="#1B2243"/>
<path opacity="0.733333" d="M9.22852 17.4805L5.32227 21.4844" stroke="#1B2243"/>
<path opacity="0.733333" d="M28.8574 17.7734L29.0527 18.0664" stroke="#1B2243"/>
<path opacity="0.733333" d="M49.9512 17.7734L50 18.0176H49.9023L49.9512 17.7734Z" fill="white" stroke="white"/>
<path opacity="0.733333" d="M26.416 17.8711L26.3184 18.0664" stroke="#1B2243"/>
<path opacity="0.733333" d="M26.9043 17.9688L27.4902 18.6523" stroke="#1B2243"/>
<path opacity="0.733333" d="M0.0488281 18.0664L0.0976562 18.3105H0L0.0488281 18.0664Z" fill="#1B2243" stroke="#1B2243"/>
<path opacity="0.733333" d="M24.2676 18.1641L23.877 18.6523" stroke="#1B2243"/>
<path opacity="0.733333" d="M29.3457 18.1641L29.4434 18.3594" stroke="#1B2243"/>
<path opacity="0.733333" d="M16.4551 18.3594L16.5039 18.6035H16.4062L16.4551 18.3594Z" fill="#1B2243" stroke="#1B2243"/>
<path opacity="0.733333" d="M26.0254 18.3594L25.6348 18.8477" stroke="#1B2243"/>
<path opacity="0.733333" d="M29.6387 18.3594L29.7363 18.5547" stroke="#1B2243"/>
<path opacity="0.733333" d="M10.3027 18.457L7.56836 21.2891" stroke="#1B2243"/>
<path opacity="0.733333" d="M29.9316 18.5547L30.0293 18.75" stroke="#1B2243"/>
<path opacity="0.733333" d="M49.9512 18.5547L50 18.7988H49.9023L49.9512 18.5547Z" fill="white" stroke="white"/>
<path opacity="0.733333" d="M27.7832 18.75L27.9785 19.043" stroke="#1B2243"/>
<path opacity="0.733333" d="M30.2246 18.75L30.3223 18.9453" stroke="#1B2243"/>
<path opacity="0.733333" d="M0.0488281 18.8477L0.0976562 19.0918H0L0.0488281 18.8477Z" fill="#1B2243" stroke="#1B2243"/>
<path opacity="0.733333" d="M17.8223 18.9453L17.8711 25.8301H17.7734L17.8223 18.9453Z" fill="#1B2243" stroke="#1B2243"/>
<path opacity="0.733333" d="M23.584 18.9453L23.1934 19.4336" stroke="#1B2243"/>
<path opacity="0.733333" d="M48.291 19.043L46.2402 21.1914" stroke="white"/>
<path opacity="0.733333" d="M16.3574 19.1406L16.4062 25.9277H16.3086L16.3574 19.1406Z" fill="#1B2243" stroke="#1B2243"/>
<path opacity="0.733333" d="M25.2441 19.2383L24.8535 19.7266" stroke="#1B2243"/>
<path opacity="0.733333" d="M28.3691 19.2383L28.4668 19.4336" stroke="#1B2243"/>
<path opacity="0.733333" d="M1.70898 19.3359L3.75977 21.4844" stroke="#1B2243"/>
<path opacity="0.733333" d="M28.6621 19.4336L28.7598 19.6289" stroke="#1B2243"/>
<path opacity="0.733333" d="M22.8027 19.8242L22.4121 20.3125" stroke="#1B2243"/>
<path opacity="0.733333" d="M29.248 19.8242L29.3457 20.0195" stroke="#1B2243"/>
<path opacity="0.733333" d="M24.5605 20.0195L24.1699 20.5078" stroke="#1B2243"/>
<path opacity="0.733333" d="M29.541 20.0195L29.6387 20.2148" stroke="#1B2243"/>
<path opacity="0.733333" d="M49.3652 20.0195L47.2168 22.2656" stroke="white"/>
<path opacity="0.733333" d="M0.634766 20.3125L2.68555 22.4609" stroke="#1B2243"/>
<path opacity="0.733333" d="M22.2168 20.5078L22.1191 20.7031" stroke="#1B2243"/>
<path opacity="0.733333" d="M34.4238 20.6055L34.8145 21.0938" stroke="white"/>
<path opacity="0.733333" d="M22.0215 20.8984L22.0703 21.1426H21.9727L22.0215 20.8984Z" fill="#1B2243" stroke="#1B2243"/>
<path opacity="0.733333" d="M23.7793 20.8984L23.4863 21.2891" stroke="#1B2243"/>
<path opacity="0.733333" d="M7.4707 21.3867L7.42188 21.5332L7.37305 21.6797L7.32422 21.5332L7.4707 21.3867Z" fill="#1B2243" stroke="#1B2243"/>
<path opacity="0.733333" d="M33.4473 21.6797L33.6426 21.9727" stroke="white"/>
<path opacity="0.733333" d="M42.8223 21.875L42.7246 22.0703" stroke="white"/>
<path opacity="0.733333" d="M35.791 22.0703L35.8398 22.4121H35.7422L35.791 22.0703Z" fill="white" stroke="white"/>
<path opacity="0.733333" d="M42.5293 22.3633L42.4316 22.5586" stroke="white"/>
<path opacity="0.733333" d="M44.1895 22.4609L44.4336 22.6074L44.2871 22.6562L44.043 22.6074L44.1895 22.4609Z" fill="white" stroke="white"/>
<path opacity="0.733333" d="M2.97852 22.5586L3.07617 22.7539" stroke="#1B2243"/>
<path opacity="0.733333" d="M23.3887 22.5586L23.4375 22.9004H23.3398L23.3887 22.5586Z" fill="#1B2243" stroke="#1B2243"/>
<path opacity="0.733333" d="M21.9238 22.6562L21.9727 22.9004H21.875L21.9238 22.6562Z" fill="#1B2243" stroke="#1B2243"/>
<path opacity="0.733333" d="M34.6191 22.7539L34.7168 22.9492" stroke="white"/>
<path opacity="0.733333" d="M44.9707 22.7539L45.3125 22.8027L44.9707 22.8516V22.7539Z" fill="white" stroke="white"/>
<path opacity="0.733333" d="M45.5566 22.7539L45.9961 22.8027L45.5566 22.8516V22.7539Z" fill="white" stroke="white"/>
<path opacity="0.733333" d="M42.2363 22.8516L42.1387 23.0469" stroke="white"/>
<path opacity="0.733333" d="M4.05273 23.0469L4.29688 23.0957L4.05273 23.1445V23.0469Z" fill="#1B2243" stroke="#1B2243"/>
<path opacity="0.733333" d="M4.83398 23.0469L5.07812 23.0957L4.83398 23.1445V23.0469Z" fill="#1B2243" stroke="#1B2243"/>
<path opacity="0.733333" d="M43.7988 23.0469L43.7012 23.2422" stroke="white"/>
<path opacity="0.733333" d="M5.71289 23.1445L5.76172 23.3887H5.66406L5.71289 23.1445Z" fill="#1B2243" stroke="#1B2243"/>
<path opacity="0.733333" d="M43.5059 23.5352L43.4082 23.7305" stroke="white"/>
<path opacity="0.733333" d="M37.0605 24.0234L36.8652 24.3164" stroke="white"/>
<path opacity="0.733333" d="M43.2129 24.0234L43.1152 24.2188" stroke="white"/>
<path opacity="0.733333" d="M41.4551 24.1211L41.3574 24.3164" stroke="white"/>
<path opacity="0.733333" d="M21.2402 24.4141L21.1426 24.6094" stroke="#1B2243"/>
<path opacity="0.733333" d="M36.7676 24.4141L36.8164 24.8535H36.7188L36.7676 24.4141Z" fill="white" stroke="white"/>
<path opacity="0.733333" d="M41.1621 24.6094L41.0645 24.8047" stroke="white"/>
<path opacity="0.733333" d="M42.7246 24.8047L42.627 25" stroke="white"/>
<path opacity="0.733333" d="M7.86133 25L7.95898 25.1953" stroke="#1B2243"/>
<path opacity="0.733333" d="M40.8691 25.0977L40.7715 25.293" stroke="white"/>
<path opacity="0.733333" d="M20.459 25.1953L20.3613 25.3906" stroke="#1B2243"/>
<path opacity="0.733333" d="M42.4316 25.293L42.334 25.4883" stroke="white"/>
<path opacity="0.733333" d="M20.166 25.3906L20.0684 25.5859" stroke="#1B2243"/>
<path opacity="0.733333" d="M22.3145 25.3906L22.0215 25.7812" stroke="#1B2243"/>
<path opacity="0.733333" d="M8.25195 25.5859L8.34961 25.7812" stroke="#1B2243"/>
<path opacity="0.733333" d="M6.5918 25.6836L6.68945 25.8789" stroke="#1B2243"/>
<path opacity="0.733333" d="M42.1387 25.7812L42.041 25.9766" stroke="white"/>
<path opacity="0.733333" d="M8.44727 25.8789L8.64258 26.1719" stroke="#1B2243"/>
<path opacity="0.733333" d="M40.3809 25.8789L40.2832 26.0742" stroke="white"/>
<path opacity="0.733333" d="M18.3105 25.9766L18.75 26.0254L18.3105 26.0742V25.9766Z" fill="#1B2243" stroke="#1B2243"/>
<path opacity="0.733333" d="M21.6309 26.0742L21.3379 26.4648" stroke="#1B2243"/>
<path opacity="0.733333" d="M41.8457 26.2695L41.748 26.4648" stroke="white"/>
<path opacity="0.733333" d="M8.83789 26.3672L9.0332 26.6602" stroke="#1B2243"/>
<path opacity="0.733333" d="M21.1426 26.4648L21.0449 26.6602" stroke="#1B2243"/>
<path opacity="0.733333" d="M7.17773 26.5625L7.27539 26.7578" stroke="#1B2243"/>
<path opacity="0.733333" d="M10.1074 26.6602L10.9375 26.709L10.1074 26.7578V26.6602Z" fill="#1B2243" stroke="#1B2243"/>
<path opacity="0.733333" d="M20.8496 26.6602L20.752 26.8555" stroke="#1B2243"/>
<path opacity="0.733333" d="M7.37305 26.8555L7.56836 27.1484" stroke="#1B2243"/>
<path opacity="0.733333" d="M41.3574 27.0508L41.2598 27.2461" stroke="white"/>
<path opacity="0.733333" d="M7.76367 27.3438L7.95898 27.6367" stroke="#1B2243"/>
<path opacity="0.733333" d="M12.6465 27.3438L12.7441 27.5391" stroke="#1B2243"/>
<path opacity="0.733333" d="M17.8223 27.4414L18.6523 27.4902L17.8223 27.5391V27.4414Z" fill="#1B2243" stroke="#1B2243"/>
<path opacity="0.733333" d="M7.95898 27.7344L6.49414 29.2969" stroke="#1B2243"/>
<path opacity="0.733333" d="M13.3301 28.0273L13.4277 28.2227" stroke="#1B2243"/>
<path opacity="0.733333" d="M10.2051 28.125L10.9375 28.1738L10.2051 28.2227V28.125Z" fill="#1B2243" stroke="#1B2243"/>
<path opacity="0.733333" d="M9.13086 28.6133L7.4707 30.3711" stroke="#1B2243"/>
<path opacity="0.733333" d="M12.2559 29.0039L12.3535 29.1992" stroke="#1B2243"/>
<path opacity="0.733333" d="M16.6504 29.1992L16.8945 29.248L16.6504 29.2969V29.1992Z" fill="#1B2243" stroke="#1B2243"/>
<path opacity="0.733333" d="M14.502 29.4922L14.4043 29.6875" stroke="#1B2243"/>
<path opacity="0.733333" d="M6.20117 29.5898L6.10352 29.7852" stroke="#1B2243"/>
<path opacity="0.733333" d="M18.3105 29.8828L18.9941 30.6641" stroke="#1B2243"/>
<path opacity="0.733333" d="M12.6465 29.9805L12.6953 30.5176H12.5977L12.6465 29.9805Z" fill="#1B2243" stroke="#1B2243"/>
<path opacity="0.733333" d="M43.9941 30.1758L44.0918 30.3711" stroke="white"/>
<path opacity="0.733333" d="M5.61523 30.8594L5.66406 31.1035H5.56641L5.61523 30.8594Z" fill="#1B2243" stroke="#1B2243"/>
<path opacity="0.733333" d="M14.8926 30.957L14.7949 31.1523" stroke="#1B2243"/>
<path opacity="0.733333" d="M17.334 30.957L17.5293 31.25" stroke="#1B2243"/>
<path opacity="0.733333" d="M36.084 30.957L36.2305 31.0059L35.9863 31.1523L36.084 30.957Z" fill="white" stroke="white"/>
<path opacity="0.733333" d="M42.9199 31.1523L43.0176 31.3477" stroke="white"/>
<path opacity="0.733333" d="M12.3535 31.3477L12.2559 31.543" stroke="#1B2243"/>
<path opacity="0.733333" d="M17.7246 31.3477L17.8223 31.543" stroke="#1B2243"/>
<path opacity="0.733333" d="M6.98242 31.4453L7.03125 31.9824H6.93359L6.98242 31.4453Z" fill="#1B2243" stroke="#1B2243"/>
<path opacity="0.733333" d="M17.9199 31.6406L18.0664 31.8848H17.9688L17.9199 31.6406Z" fill="#1B2243" stroke="#1B2243"/>
<path opacity="0.733333" d="M35.791 32.0312L39.209 35.5469" stroke="white"/>
<path opacity="0.733333" d="M43.3105 32.1289L43.3594 32.666H43.2617L43.3105 32.1289Z" fill="white" stroke="white"/>
<path opacity="0.733333" d="M5.61523 32.2266L5.66406 32.4707H5.56641L5.61523 32.2266Z" fill="#1B2243" stroke="#1B2243"/>
<path opacity="0.733333" d="M18.2129 32.4219L18.2617 33.0566H18.1641L18.2129 32.4219Z" fill="#1B2243" stroke="#1B2243"/>
<path opacity="0.733333" d="M19.6777 32.5195L19.7266 33.0566H19.6289L19.6777 32.5195Z" fill="#1B2243" stroke="#1B2243"/>
<path opacity="0.733333" d="M7.37305 32.9102L7.86133 33.4961" stroke="#1B2243"/>
<path opacity="0.733333" d="M5.9082 33.3008L6.00586 33.4961" stroke="#1B2243"/>
<path opacity="0.733333" d="M19.6777 33.3008L20.4102 33.3496L19.6777 33.3984V33.3008Z" fill="#1B2243" stroke="#1B2243"/>
<path opacity="0.733333" d="M43.0176 33.4961L42.9199 33.6914" stroke="white"/>
<path opacity="0.733333" d="M8.83789 33.7891L9.375 33.8379L8.83789 33.8867V33.7891Z" fill="#1B2243" stroke="#1B2243"/>
<path opacity="0.733333" d="M21.8262 33.7891L21.9238 33.9844" stroke="#1B2243"/>
<path opacity="0.733333" d="M42.8223 33.7891L42.627 34.082" stroke="white"/>
<path opacity="0.733333" d="M6.29883 33.8867L6.88477 34.5703" stroke="#1B2243"/>
<path opacity="0.733333" d="M22.1191 33.9844L22.3145 34.2773" stroke="#1B2243"/>
<path opacity="0.733333" d="M39.7949 33.9844L39.9902 34.2773" stroke="white"/>
<path opacity="0.733333" d="M17.7246 34.082L14.502 37.4023" stroke="#1B2243"/>
<path opacity="0.733333" d="M40.6738 34.4727L40.918 34.5215L40.6738 34.5703V34.4727Z" fill="white" stroke="white"/>
<path opacity="0.733333" d="M44.0918 34.4727L43.9941 34.668" stroke="white"/>
<path opacity="0.733333" d="M7.08008 34.5703L7.17773 34.7656" stroke="#1B2243"/>
<path opacity="0.733333" d="M22.7051 34.5703L22.9004 34.8633" stroke="#1B2243"/>
<path opacity="0.733333" d="M19.5801 34.7656L20.4102 34.8145L19.5801 34.8633V34.7656Z" fill="#1B2243" stroke="#1B2243"/>
<path opacity="0.733333" d="M22.998 34.9609L23.0957 35.1562" stroke="#1B2243"/>
<path opacity="0.733333" d="M32.1777 34.9609L32.5195 35.0098L32.1777 35.0586V34.9609Z" fill="#1B2243" stroke="white"/>
<path opacity="0.733333" d="M21.1426 35.0586L21.2402 35.2539" stroke="#1B2243"/>
<path opacity="0.733333" d="M8.34961 35.1562L8.59375 35.2051L8.34961 35.2539V35.1562Z" fill="#1B2243" stroke="#1B2243"/>
<path opacity="0.733333" d="M18.7012 35.1562L15.4785 38.4766" stroke="#1B2243"/>
<path opacity="0.733333" d="M32.8613 35.1562L36.377 38.7695" stroke="white"/>
<path opacity="0.733333" d="M39.4043 35.7422L39.502 35.9375" stroke="white"/>
<path opacity="0.733333" d="M31.6895 35.9375L34.7656 39.1113L31.6406 36.084L31.6895 35.9375Z" fill="#1B2243" stroke="white"/>
<path opacity="0.733333" d="M41.2598 35.9375L41.6992 35.9863L41.2598 36.0352V35.9375Z" fill="white" stroke="white"/>
<path opacity="0.733333" d="M23.4863 36.1328L23.5352 36.377H23.4375L23.4863 36.1328Z" fill="#1B2243" stroke="#1B2243"/>
<path opacity="0.733333" d="M39.7949 36.6211L39.8438 37.3535H39.7461L39.7949 36.6211Z" fill="white" stroke="white"/>
<path opacity="0.733333" d="M41.2598 36.8164L41.3086 37.1582H41.2109L41.2598 36.8164Z" fill="white" stroke="white"/>
<path opacity="0.733333" d="M11.377 36.9141L11.8652 37.5" stroke="#1B2243"/>
<path opacity="0.733333" d="M12.0605 37.5L12.3047 37.6465L12.1582 37.6953L12.0605 37.5Z" fill="#1B2243" stroke="#1B2243"/>
<path opacity="0.733333" d="M10.1074 37.5977L10.2051 37.793" stroke="#1B2243"/>
<path opacity="0.733333" d="M41.1621 37.5977L41.2109 37.8418H41.1133L41.1621 37.5977Z" fill="white" stroke="white"/>
<path opacity="0.733333" d="M12.7441 37.793L13.4766 37.8418L12.7441 37.8906V37.793Z" fill="#1B2243" stroke="#1B2243"/>
<path opacity="0.733333" d="M10.3027 37.8906L10.8887 38.5742" stroke="#1B2243"/>
<path opacity="0.733333" d="M21.7285 38.0859L21.6309 38.2812" stroke="#1B2243"/>
<path opacity="0.733333" d="M39.502 38.0859L39.4043 38.2812" stroke="white"/>
<path opacity="0.733333" d="M23.291 38.1836L23.7305 38.3301L23.3887 38.3789L23.291 38.1836Z" fill="#1B2243" stroke="#1B2243"/>
<path opacity="0.733333" d="M11.084 38.5742L11.1816 38.7695" stroke="#1B2243"/>
<path opacity="0.733333" d="M38.916 38.6719L38.8184 38.8672" stroke="white"/>
<path opacity="0.733333" d="M40.7715 38.7695L40.6738 38.9648" stroke="white"/>
<path opacity="0.733333" d="M25.2441 38.9648L25.4395 39.2578" stroke="#1B2243"/>
<path opacity="0.733333" d="M27.9785 39.0625L28.125 39.1113L27.8809 39.2578L27.9785 39.0625Z" fill="#1B2243" stroke="#1B2243"/>
<path opacity="0.733333" d="M37.2559 39.0625L38.0859 39.1113L37.2559 39.1602V39.0625Z" fill="white" stroke="white"/>
<path opacity="0.733333" d="M40.5762 39.0625L40.3809 39.3555" stroke="white"/>
<path opacity="0.733333" d="M28.7598 39.1602L31.7871 42.2852" stroke="#1B2243"/>
<path opacity="0.733333" d="M12.9395 39.2578L13.3789 39.3066L12.9395 39.3555V39.2578Z" fill="#1B2243" stroke="#1B2243"/>
<path opacity="0.733333" d="M25.7324 39.4531L25.9277 39.7461" stroke="#1B2243"/>
<path opacity="0.733333" d="M27.5879 39.5508L27.6367 39.9902H27.5391L27.5879 39.5508Z" fill="#1B2243" stroke="#1B2243"/>
<path opacity="0.733333" d="M39.8926 39.7461L39.7949 39.9414" stroke="white"/>
<path opacity="0.733333" d="M24.2676 40.0391L24.3652 40.2344" stroke="#1B2243"/>
<path opacity="0.733333" d="M13.623 40.1367L13.6719 40.3809H13.5742L13.623 40.1367Z" fill="#1B2243" stroke="#1B2243"/>
<path opacity="0.733333" d="M27.6855 40.1367L29.4434 41.9922" stroke="#1B2243"/>
<path opacity="0.733333" d="M35.2051 40.1367L35.2539 40.8691H35.1562L35.2051 40.1367Z" fill="white" stroke="white"/>
<path opacity="0.733333" d="M21.6309 40.2344L19.5801 42.3828" stroke="#1B2243"/>
<path opacity="0.733333" d="M36.6211 40.4297L36.9141 40.4785L36.7188 40.5273L36.6699 40.918L36.6211 40.4297Z" fill="white" stroke="white"/>
<path opacity="0.733333" d="M24.7559 40.5273L24.8535 40.7227" stroke="#1B2243"/>
<path opacity="0.733333" d="M37.1582 40.5273L38.0859 40.5762L37.1582 40.625V40.5273Z" fill="white" stroke="white"/>
<path opacity="0.733333" d="M15.3809 40.918L15.8691 41.5039" stroke="#1B2243"/>
<path opacity="0.733333" d="M18.5059 41.3086L18.4082 41.5039" stroke="#1B2243"/>
<path opacity="0.733333" d="M25.1465 41.3086L25.1953 41.5527H25.0977L25.1465 41.3086Z" fill="#1B2243" stroke="#1B2243"/>
<path opacity="0.733333" d="M26.6113 41.3086L26.6602 42.4316H26.5625L26.6113 41.3086Z" fill="#1B2243" stroke="#1B2243"/>
<path opacity="0.733333" d="M14.1113 41.6016L14.209 41.7969" stroke="#1B2243"/>
<path opacity="0.733333" d="M16.748 41.7969L16.9922 41.8457L16.748 41.8945V41.7969Z" fill="#1B2243" stroke="#1B2243"/>
<path opacity="0.733333" d="M17.334 41.7969L17.5781 41.8457L17.334 41.8945V41.7969Z" fill="#1B2243" stroke="#1B2243"/>
<path opacity="0.733333" d="M14.3066 41.8945L14.8926 42.5781" stroke="#1B2243"/>
<path opacity="0.733333" d="M34.7168 41.8945L34.5215 42.1875" stroke="white"/>
<path opacity="0.733333" d="M31.9824 42.2852L32.0801 42.4805" stroke="white"/>
<path opacity="0.733333" d="M29.834 42.5781L29.8828 42.8223H29.7852L29.834 42.5781Z" fill="#1B2243" stroke="#1B2243"/>
<path opacity="0.733333" d="M33.3496 42.5781L33.5938 42.627L33.3496 42.6758V42.5781Z" fill="#1B2243" stroke="white"/>
<path opacity="0.733333" d="M35.9863 42.5781L35.8887 42.7734" stroke="white"/>
<path opacity="0.733333" d="M16.748 43.2617H17.627L17.6758 43.5059H17.5781L17.5293 43.3594H16.748V43.2617Z" fill="#1B2243" stroke="#1B2243"/>
<path opacity="0.733333" d="M19.0918 43.2617L19.1406 43.5059H19.043L19.0918 43.2617Z" fill="#1B2243" stroke="#1B2243"/>
<path opacity="0.733333" d="M24.6582 43.2617L22.6074 45.4102" stroke="#1B2243"/>
<path opacity="0.733333" d="M35.3027 43.2617L35.1074 43.5547" stroke="white"/>
<path opacity="0.733333" d="M26.123 43.6523L26.9531 44.5801L26.0742 43.7988L26.123 43.6523Z" fill="#1B2243" stroke="#1B2243"/>
<path opacity="0.733333" d="M17.627 43.8477L17.6758 44.2871H17.5781L17.627 43.8477Z" fill="#1B2243" stroke="#1B2243"/>
<path opacity="0.733333" d="M19.0918 43.9453L19.1406 44.1895H19.043L19.0918 43.9453Z" fill="#1B2243" stroke="#1B2243"/>
<path opacity="0.733333" d="M29.6387 44.043L29.541 44.2383" stroke="#1B2243"/>
<path opacity="0.733333" d="M32.666 44.043L33.5938 44.0918L32.666 44.1406V44.043Z" fill="#1B2243" stroke="white"/>
<path opacity="0.733333" d="M25.1465 44.8242L25.9277 45.7031" stroke="#1B2243"/>
<path opacity="0.733333" d="M19.3848 44.9219L19.9707 45.6055" stroke="#1B2243"/>
<path opacity="0.733333" d="M27.7832 44.9219L28.418 44.9707L27.7832 45.0195V44.9219Z" fill="#1B2243" stroke="#1B2243"/>
<path opacity="0.733333" d="M30.7129 45.0195L30.6152 45.2148" stroke="white"/>
<path opacity="0.733333" d="M18.1152 45.6055L18.2129 45.8008" stroke="#1B2243"/>
<path opacity="0.733333" d="M30.0293 45.7031L29.9316 45.8984" stroke="#1B2243"/>
<path opacity="0.733333" d="M18.3105 45.8984L18.9941 46.6797" stroke="#1B2243"/>
<path opacity="0.733333" d="M27.2949 46.2891L27.5391 46.3379L27.2949 46.3867V46.2891Z" fill="#1B2243" stroke="#1B2243"/>
<path opacity="0.733333" d="M23.3887 46.4844L23.291 46.6797" stroke="#1B2243"/>
<path opacity="0.733333" d="M19.1895 46.6797L19.2871 46.875" stroke="#1B2243"/>
<path opacity="0.733333" d="M20.166 47.168L20.4102 47.2168L20.166 47.2656V47.168Z" fill="#1B2243" stroke="#1B2243"/>
<path opacity="0.733333" d="M20.6543 47.2656L21.6797 47.3145L20.6543 47.3633V47.2656Z" fill="#1B2243" stroke="#1B2243"/>
<path opacity="0.996078" d="M33.7402 2.73438C34.7949 2.59115 35.5436 2.75391 35.9863 3.22266L49.5117 16.7481C49.8307 17.1777 49.9935 17.7637 50 18.5059L49.5117 19.8731L47.0215 22.3633L46.1426 22.7539L45.3613 22.8516C45.2637 22.6888 45.0358 22.6563 44.6777 22.7539L44.1895 22.4609L41.2109 27.1973V27.3926L44.2383 30.5176C44.6419 31.0905 44.8047 31.9043 44.7266 32.959C44.5378 33.9746 44.0983 34.7396 43.4082 35.2539L42.5293 35.7422C42.2298 35.931 41.8066 35.9961 41.2598 35.9375L41.1133 36.084C41.276 36.4421 41.3086 36.9303 41.2109 37.5488C41.0286 38.5059 40.6217 39.2383 39.9902 39.7461C39.3587 40.3841 38.3496 40.6445 36.9629 40.5273L36.6211 40.4297V41.1621L36.4258 41.8457C36.1914 42.4251 35.8496 42.8971 35.4004 43.2617L33.8379 44.043H32.373L31.25 43.6523C31.1263 44.5573 30.752 45.2409 30.127 45.7031C29.5671 46.2175 28.7207 46.4453 27.5879 46.3867C26.4681 46.1719 25.6543 45.651 25.1465 44.8242L23.0957 46.7773L21.9238 47.2656H20.459C19.4759 47.0443 18.7435 46.5723 18.2617 45.8496L17.7734 44.8731L17.5781 43.6035L17.6758 43.2617C16.8034 43.3659 16.1035 43.2682 15.5762 42.9688L14.2578 41.8457C13.7826 41.2793 13.5547 40.4655 13.5742 39.4043L13.623 39.2578H12.5488L11.8652 39.0625C11.1947 38.7891 10.6576 38.3822 10.2539 37.8418C9.7526 37.2168 9.52474 36.3542 9.57031 35.2539H8.64258L7.86133 35.0586C7.14518 34.7656 6.57552 34.3262 6.15234 33.7402C5.69661 33.1543 5.5013 32.3079 5.56641 31.2012C5.67057 30.5241 5.89844 29.9707 6.25 29.541L8.00781 27.7832V27.5879C6.78385 26.4356 5.98633 24.8568 5.61523 22.8516L5.22461 23.0469L4.3457 23.1445L3.56445 22.9492L2.88086 22.5586L0.488281 20.166C0.169271 19.7363 0.00651042 19.1504 0 18.4082L0.488281 17.041L14.1113 3.41797C14.5671 3.02735 15.2832 2.89714 16.2598 3.02735L17.4316 3.61329L19.5312 5.7129L20.1172 6.88477V8.1543L19.6289 9.27735C20.5534 9.65495 21.3835 10.1758 22.1191 10.8398H22.3145C22.9655 9.99349 23.8444 9.375 24.9512 8.98438L26.3184 8.69141H27.0996L27.1973 8.59375H27.8809L27.9785 8.4961L29.9805 8.30079C29.8438 7.88412 29.8112 7.31446 29.8828 6.5918L30.5664 5.32227L32.5684 3.32032L33.7402 2.73438ZM34.082 4.10157L33.7891 4.19922L31.3477 6.64063L31.25 6.9336C31.1849 7.38933 31.25 7.7474 31.4453 8.00782L33.6914 10.3516L33.4961 11.0352L33.3008 11.1328H32.7148L31.1523 9.57032L26.0742 10.1563C25.2279 10.2865 24.5768 10.5794 24.1211 11.0352L18.6523 16.8945L18.1641 17.6758L17.7734 19.043V25.8789L18.0664 26.0742C19.043 26.0742 19.8242 25.8464 20.4102 25.3906C20.9961 24.9349 21.4518 24.349 21.7773 23.6328L21.9727 22.9492V21.2891L22.0703 20.8008L25.0977 17.2852C25.3581 16.8945 25.7161 16.6341 26.1719 16.5039C26.6927 16.4388 27.1159 16.4714 27.4414 16.6016C28.2878 17.513 29.2643 18.2943 30.3711 18.9453C31.2174 19.5313 32.2591 19.9219 33.4961 20.1172C34.082 20.3125 34.5703 20.638 34.9609 21.0938L35.7422 22.0703L35.6445 22.7539L35.3516 22.9492H34.8633L33.4961 21.6797L32.9102 21.3867C31.6732 21.1914 30.6315 20.8008 29.7852 20.2148C28.6784 19.6289 27.7344 18.8802 26.9531 17.9688L26.4648 17.8711L23.4375 21.2891C23.5026 23.3724 23.0143 24.9023 21.9727 25.8789C21.2565 26.6602 20.2799 27.181 19.043 27.4414H17.6758L17.0898 27.1484L16.4062 26.2695V18.75L16.6992 17.5781L17.4805 16.1133L21.2891 12.0117C20.5078 11.2956 19.6289 10.7096 18.6523 10.2539L12.5 16.3086H11.9141L11.4258 15.8203L11.5234 15.332L18.5547 8.30079L18.75 7.91016C18.8151 7.38933 18.75 7.03125 18.5547 6.83594L16.3086 4.49219L16.0156 4.39454C15.4948 4.32943 15.1367 4.39454 14.9414 4.58985L1.66016 17.8711L1.46484 18.2617C1.39974 18.7826 1.46484 19.1732 1.66016 19.4336L3.80859 21.4844L4.19922 21.6797C4.72005 21.7448 5.11068 21.6797 5.37109 21.4844L9.375 17.4805L10.0586 17.3828L10.4492 17.9688L10.3516 18.457L7.51953 21.2891L7.12891 22.0703C6.9987 22.9818 7.09635 23.7305 7.42188 24.3164C7.8776 25.3581 8.52865 26.237 9.375 26.9531L9.86328 26.7578C11.2305 26.6276 12.2396 26.888 12.8906 27.5391C13.5417 28.0599 13.9323 28.8086 14.0625 29.7852C14.4531 29.5247 14.974 29.3294 15.625 29.1992C16.7318 29.1341 17.5781 29.3294 18.1641 29.7852C19.2057 30.4362 19.694 31.6406 19.6289 33.3984L21.0938 33.4961L22.4609 34.2773L23.1445 35.2539L23.5352 36.5234C23.6003 37.2396 23.5026 37.8255 23.2422 38.2813L23.4375 38.3789L24.3164 38.4766L25.5859 39.2578C26.0417 39.7135 26.3672 40.332 26.5625 41.1133C26.6927 42.2852 26.5299 43.1966 26.0742 43.8477C26.4648 44.4336 27.0508 44.8242 27.832 45.0195H28.418L29.3945 44.5313L29.8828 43.6523C30.013 43.0013 29.9479 42.5456 29.6875 42.2852L27.6367 40.1367C27.5716 39.681 27.6042 39.388 27.7344 39.2578L28.2227 39.0625L28.7109 39.1602L31.8359 42.2852L32.7148 42.6758H33.5938L34.5703 42.1875C34.8958 41.862 35.1237 41.4388 35.2539 40.918C35.319 40.0716 35.1562 39.4857 34.7656 39.1602L31.6406 35.9375L31.7383 35.3516L32.1289 35.0586L32.8125 35.1563L36.4258 38.7695L37.3047 39.1602H38.0859L38.8672 38.8672C39.388 38.5417 39.7135 38.0534 39.8438 37.4023V36.7188L39.5508 35.9375L35.7422 32.0313L35.6445 31.7383L35.8398 31.1523L36.3281 30.957L36.8164 31.0547L40.0391 34.2773L40.7227 34.5703H41.6992L42.6758 34.082C43.0013 33.7565 43.2292 33.3008 43.3594 32.7148V32.2266L43.0664 31.3477L36.9141 25.1953L36.8164 24.4141L37.5 23.9258L37.9883 24.1211L40.1367 26.2695H40.2344L43.0664 21.582L34.7656 13.2813L34.668 12.9883L34.7656 12.5977L35.2539 12.207L35.8398 12.3047L44.7266 21.1914L45.1172 21.3867C45.638 21.4518 46.0286 21.3867 46.2891 21.1914L48.3398 19.1406L48.5352 18.75C48.6003 18.1641 48.5352 17.7734 48.3398 17.5781L35.1562 4.29688C34.8958 4.10157 34.5378 4.03646 34.082 4.10157ZM10.2539 28.125L9.17969 28.6133L7.42188 30.3711L7.03125 31.0547L6.93359 31.543C6.93359 32.1289 7.0638 32.6172 7.32422 33.0078C7.64974 33.4635 8.17057 33.7565 8.88672 33.8867C9.47266 33.8867 9.96094 33.7565 10.3516 33.4961L12.4023 31.4453L12.6953 30.5664V30.0781L12.5 29.3945L12.1094 28.7109L11.3281 28.2227L10.2539 28.125ZM16.1133 30.5664C15.9831 30.6966 15.7878 30.7292 15.5273 30.6641L14.9414 30.957L11.3281 34.5703L11.0352 35.1563C10.9049 36.0026 11.0026 36.6211 11.3281 37.0117C11.6536 37.4675 12.1419 37.7604 12.793 37.8906C13.5742 37.9557 14.1602 37.793 14.5508 37.4023L17.7734 34.1797L18.2617 33.1055C18.2617 32.3893 18.1315 31.8685 17.8711 31.543C17.4805 30.957 16.8945 30.6315 16.1133 30.5664ZM19.6289 34.7656L18.75 35.1563L15.4297 38.4766L15.0391 39.2578C14.9089 40.0391 15.0065 40.625 15.332 41.0156C15.6576 41.4714 16.1458 41.7643 16.7969 41.8945C17.513 41.9596 18.0664 41.8294 18.457 41.5039L21.7773 38.1836L22.0703 37.5977C22.0052 37.2721 22.0378 37.0768 22.168 37.0117L22.0703 36.3281L21.7773 35.7422C21.4518 35.026 20.7357 34.7005 19.6289 34.7656ZM22.6562 39.7461L21.6797 40.2344L19.5312 42.3828L19.043 43.3594C18.9779 44.0755 19.0755 44.6289 19.3359 45.0195C19.5964 45.4753 20.0521 45.7682 20.7031 45.8984H21.6797L22.6562 45.4102L24.707 43.3594L25.1953 42.3828C25.3255 41.6016 25.2279 41.0482 24.9023 40.7227C24.5117 40.0065 23.763 39.681 22.6562 39.7461Z" fill="#1B2243" stroke="#1B2243"/>
</g>
<defs>
<clipPath id="clip0_61_2526">
<rect width="50" height="50" fill="white"/>
</clipPath>
</defs>
</svg>
