<svg width="50" height="50" viewBox="0 0 50 50" fill="none" xmlns="http://www.w3.org/2000/svg">
<g clip-path="url(#clip0_61_2171)">
<path opacity="0.211765" d="M39.6973 2.44141L39.7949 2.63672" stroke="white"/>
<path opacity="0.211765" d="M2.88086 2.63672L2.39258 3.22266" stroke="white"/>
<path opacity="0.211765" d="M40.0879 2.73438L40.2832 3.02734" stroke="white"/>
<path opacity="0.211765" d="M4.44336 2.92969L38.4766 2.97852L4.44336 3.02734V2.92969Z" fill="white" stroke="white"/>
<path opacity="0.211765" d="M38.916 3.125L39.1602 3.27148L39.0137 3.22266L38.916 3.125Z" fill="white" stroke="white"/>
<path opacity="0.211765" d="M3.66211 3.22266L3.56445 3.41797" stroke="white"/>
<path opacity="0.211765" d="M40.4785 3.22266L40.5762 3.41797" stroke="white"/>
<path opacity="0.211765" d="M2.29492 3.32031L2.19727 3.51562" stroke="white"/>
<path opacity="0.211765" d="M39.3066 3.32031L39.6973 3.80859" stroke="white"/>
<path opacity="0.211765" d="M3.17383 3.71094L3.07617 3.90625" stroke="white"/>
<path opacity="0.211765" d="M1.80664 4.49219L1.85547 36.7676H1.75781L1.80664 4.49219Z" fill="#1B2243" stroke="white"/>
<path opacity="0.211765" d="M40.0879 4.58984L40.1367 10.2051H40.0391L40.0879 4.58984Z" fill="white" stroke="white"/>
<path opacity="0.211765" d="M41.0645 4.78516L41.1133 23.1934H41.0156L41.0645 4.78516Z" fill="#1B2243" stroke="#1B2243"/>
<path opacity="0.211765" d="M6.39648 5.07812L7.12891 5.12695L6.39648 5.17578V5.07812Z" fill="white" stroke="white"/>
<path opacity="0.211765" d="M11.4746 5.07812L12.1094 5.12695L11.4746 5.17578V5.07812Z" fill="white" stroke="white"/>
<path opacity="0.211765" d="M16.4551 5.07812L17.0898 5.12695L16.4551 5.17578V5.07812Z" fill="white" stroke="white"/>
<path opacity="0.211765" d="M25.8301 5.07812L37.1094 5.12695L25.8301 5.17578V5.07812Z" fill="white" stroke="white"/>
<path opacity="0.211765" d="M12.6465 5.27344L12.7441 5.46875" stroke="white"/>
<path opacity="0.211765" d="M15.8691 5.27344L15.7715 5.46875" stroke="white"/>
<path opacity="0.211765" d="M25.3418 5.27344L25.0488 5.66406" stroke="white"/>
<path opacity="0.211765" d="M10.6934 5.37109L10.498 5.66406" stroke="white"/>
<path opacity="0.211765" d="M17.8223 5.37109L17.9199 5.56641" stroke="white"/>
<path opacity="0.211765" d="M12.9395 5.46875L13.2324 5.85938" stroke="white"/>
<path opacity="0.211765" d="M15.5762 5.46875L15.2832 5.85938" stroke="white"/>
<path opacity="0.211765" d="M8.05664 5.56641L8.1543 5.76172" stroke="white"/>
<path opacity="0.211765" d="M10.3027 5.76172L10.2051 5.95703" stroke="white"/>
<path opacity="0.211765" d="M18.2129 5.76172L18.3105 5.95703" stroke="white"/>
<path opacity="0.211765" d="M10.1074 6.05469L10.0586 6.20117L10.0098 6.34766L9.96094 6.20117L10.1074 6.05469Z" fill="white" stroke="white"/>
<path opacity="0.211765" d="M24.8535 6.05469L24.9023 7.95898H24.8047L24.8535 6.05469Z" fill="white" stroke="white"/>
<path opacity="0.211765" d="M36.9629 6.05469L37.1094 6.20117V7.76367H37.0117V6.20117L36.9629 6.05469Z" fill="white" stroke="white"/>
<path opacity="0.211765" d="M13.623 6.54297L13.6719 6.78711H13.5742L13.623 6.54297Z" fill="white" stroke="white"/>
<path opacity="0.211765" d="M14.8926 6.54297L14.9414 6.78711H14.8438L14.8926 6.54297Z" fill="white" stroke="white"/>
<path opacity="0.211765" d="M4.83398 6.73828L4.88281 7.27539H4.78516L4.83398 6.73828Z" fill="white" stroke="white"/>
<path opacity="0.211765" d="M8.64258 6.73828L8.69141 7.27539H8.59375L8.64258 6.73828Z" fill="white" stroke="white"/>
<path opacity="0.211765" d="M13.623 7.22656L13.6719 7.4707H13.5742L13.623 7.22656Z" fill="white" stroke="white"/>
<path opacity="0.211765" d="M25.8301 7.8125L25.9277 8.00781" stroke="white"/>
<path opacity="0.211765" d="M13.4277 7.91016L13.3301 8.10547" stroke="white"/>
<path opacity="0.211765" d="M15.0879 7.91016L15.1855 8.10547" stroke="white"/>
<path opacity="0.211765" d="M4.15039 8.00781L4.05273 8.20312" stroke="white"/>
<path opacity="0.211765" d="M5.12695 8.00781L5.22461 8.20312" stroke="white"/>
<path opacity="0.211765" d="M8.34961 8.00781L8.25195 8.20312" stroke="white"/>
<path opacity="0.211765" d="M10.2051 8.10547L10.5957 8.59375" stroke="white"/>
<path opacity="0.211765" d="M18.3105 8.10547L17.9199 8.59375" stroke="white"/>
<path opacity="0.211765" d="M13.2324 8.20312L13.0371 8.49609" stroke="white"/>
<path opacity="0.211765" d="M3.95508 8.30078L4.00391 10.498H3.90625L3.95508 8.30078Z" fill="white" stroke="white"/>
<path opacity="0.211765" d="M15.3809 8.30078L15.4785 8.49609" stroke="white"/>
<path opacity="0.211765" d="M37.8418 8.30078L37.7441 8.49609" stroke="white"/>
<path opacity="0.211765" d="M5.61523 8.49609L5.71289 8.69141" stroke="white"/>
<path opacity="0.211765" d="M7.86133 8.49609L7.76367 8.69141" stroke="white"/>
<path opacity="0.211765" d="M25.1465 8.49609L25.2441 8.69141" stroke="white"/>
<path opacity="0.211765" d="M17.7246 8.59375L17.627 8.78906L17.4805 8.74023L17.7246 8.59375Z" fill="white" stroke="white"/>
<path opacity="0.211765" d="M25.4395 8.69141L25.6836 8.83789L25.5371 8.88672L25.4395 8.69141Z" fill="white" stroke="white"/>
<path opacity="0.211765" d="M6.5918 8.88672L6.93359 8.93555L6.5918 8.98438V8.88672Z" fill="white" stroke="white"/>
<path opacity="0.211765" d="M11.5723 8.88672L11.9141 8.93555L11.5723 8.98438V8.88672Z" fill="white" stroke="white"/>
<path opacity="0.211765" d="M16.6504 8.88672L16.9922 8.93555L16.6504 8.98438V8.88672Z" fill="white" stroke="white"/>
<path opacity="0.211765" d="M25.9277 8.88672L36.9141 8.93555L25.9277 8.98438V8.88672Z" fill="white" stroke="white"/>
<path opacity="0.211765" d="M12.2559 10.2539L12.4023 10.3027L11.9629 10.6445L12.2559 10.2539Z" fill="white" stroke="white"/>
<path opacity="0.211765" d="M4.83398 10.5469L4.63867 10.8398" stroke="white"/>
<path opacity="0.211765" d="M11.7676 10.8398L11.5723 11.1328" stroke="white"/>
<path opacity="0.211765" d="M12.6465 11.2305L12.4512 11.5234" stroke="white"/>
<path opacity="0.211765" d="M40.0879 11.2305L40.1367 22.7539L39.8438 22.7051L40.0391 22.6562L40.0879 11.2305Z" fill="#1B2243" stroke="#1B2243"/>
<path opacity="0.211765" d="M11.377 11.3281L11.1816 11.6211" stroke="white"/>
<path opacity="0.211765" d="M12.2559 11.7188L12.0605 12.0117" stroke="white"/>
<path opacity="0.211765" d="M10.9863 11.8164L10.791 12.1094L2.73438 12.0605L10.791 12.0117L10.9863 11.8164Z" fill="white" stroke="white"/>
<path opacity="0.211765" d="M11.8652 12.207L11.6699 12.5" stroke="white"/>
<path opacity="0.211765" d="M11.5723 12.5977L11.2793 12.9883" stroke="white"/>
<path opacity="0.211765" d="M9.91211 16.4062L9.96094 16.6504H9.86328L9.91211 16.4062Z" fill="white" stroke="white"/>
<path opacity="0.211765" d="M38.2324 16.7969L38.3301 16.9922" stroke="#1B2243"/>
<path opacity="0.211765" d="M6.88477 16.8945L6.98242 17.0898" stroke="white"/>
<path opacity="0.211765" d="M11.377 16.8945L12.0605 17.6758" stroke="white"/>
<path opacity="0.211765" d="M6.20117 16.9922L4.54102 18.75" stroke="white"/>
<path opacity="0.211765" d="M17.1387 17.0898L17.1875 17.334H17.0898L17.1387 17.0898Z" fill="white" stroke="white"/>
<path opacity="0.211765" d="M38.4277 17.0898L38.4766 17.4316L38.1836 17.627C38.3659 17.5488 38.4473 17.3698 38.4277 17.0898Z" fill="#1B2243" stroke="#1B2243"/>
<path opacity="0.211765" d="M7.08008 17.1875L7.12891 17.4316H7.03125L7.08008 17.1875Z" fill="white" stroke="white"/>
<path opacity="0.211765" d="M10.6934 17.3828L12.207 19.0918L10.7422 20.459L12.1094 18.9941L10.6445 17.5293L10.6934 17.3828Z" fill="#1B2243" stroke="white"/>
<path opacity="0.211765" d="M17.2363 17.4805L17.334 17.6758" stroke="white"/>
<path opacity="0.211765" d="M6.98242 17.5781L5.61523 19.043" stroke="white"/>
<path opacity="0.211765" d="M17.5293 17.6758L38.0859 17.7246L17.5293 17.7734V17.6758Z" fill="#1B2243" stroke="#1B2243"/>
<path opacity="0.211765" d="M13.3301 18.9453L13.3789 19.1895H13.2812L13.3301 18.9453Z" fill="#1B2243" stroke="white"/>
<path opacity="0.211765" d="M5.61523 19.1406L6.98242 20.6055" stroke="white"/>
<path opacity="0.211765" d="M13.2324 19.3359L11.4746 21.1914" stroke="white"/>
<path opacity="0.211765" d="M4.63867 19.4336L5.51758 20.4102" stroke="white"/>
<path opacity="0.211765" d="M17.1387 20.7031L17.1875 20.9473H17.0898L17.1387 20.7031Z" fill="#1B2243" stroke="white"/>
<path opacity="0.211765" d="M38.4277 20.7031L38.4766 21.0449H38.3789L38.4277 20.7031Z" fill="#1B2243" stroke="#1B2243"/>
<path opacity="0.211765" d="M10.6936 20.8984L10.8889 21.1914L11.0354 21.2402L10.8889 21.2891C10.6545 21.2174 10.5894 21.0872 10.6936 20.8984Z" fill="#1B2243" stroke="white"/>
<path opacity="0.211765" d="M6.29883 21.0938L6.39648 21.2891" stroke="white"/>
<path opacity="0.211765" d="M17.2363 21.0938L17.4316 21.2891L23.0469 21.3379L17.4316 21.3867L17.2363 21.0938Z" fill="#1B2243" stroke="white"/>
<path opacity="0.211765" d="M24.9512 21.0938L25.1465 21.2891L38.1836 21.3379L25.1465 21.3867L24.9512 21.0938Z" fill="#1B2243" stroke="#1B2243"/>
<path opacity="0.211765" d="M7.76367 21.4844L7.8125 21.7285H7.71484L7.76367 21.4844Z" fill="#1B2243" stroke="white"/>
<path opacity="0.211765" d="M7.86133 22.0703L7.95898 22.2656" stroke="white"/>
<path opacity="0.211765" d="M8.54492 22.0703L8.44727 22.2656" stroke="white"/>
<path opacity="0.211765" d="M39.4043 22.5586L39.7461 22.6074L39.4043 22.6562V22.5586Z" fill="#1B2243" stroke="#1B2243"/>
<path opacity="0.211765" d="M38.7207 22.9492L38.623 23.1445" stroke="#1B2243"/>
<path opacity="0.211765" d="M32.7637 24.0234L32.8613 24.2188" stroke="#1B2243"/>
<path opacity="0.211765" d="M30.6152 24.2188L30.5176 24.4141" stroke="#1B2243"/>
<path opacity="0.211765" d="M33.252 24.5117L33.3496 24.707" stroke="#1B2243"/>
<path opacity="0.211765" d="M38.916 24.6094L39.0137 24.8047" stroke="#1B2243"/>
<path opacity="0.211765" d="M42.9199 25.0977L43.1641 25.2441L43.0176 25.1953L42.9199 25.0977Z" fill="#1B2243" stroke="#1B2243"/>
<path opacity="0.211765" d="M38.2324 25.293L38.4277 25.5859" stroke="#1B2243"/>
<path opacity="0.211765" d="M4.63867 26.0742L4.44336 26.3672" stroke="white"/>
<path opacity="0.211765" d="M8.05664 26.0742L8.25195 26.3672" stroke="white"/>
<path opacity="0.211765" d="M10.3027 26.0742L10.1074 26.3672" stroke="white"/>
<path opacity="0.211765" d="M22.998 26.0742L23.2422 26.2207L23.0957 26.1719L22.998 26.0742Z" fill="#1B2243" stroke="white"/>
<path opacity="0.211765" d="M34.2285 26.0742L34.7656 26.123L34.2285 26.1719V26.0742Z" fill="#1B2243" stroke="#1B2243"/>
<path opacity="0.211765" d="M35.9863 26.0742L36.5234 26.123L35.9863 26.1719V26.0742Z" fill="#1B2243" stroke="#1B2243"/>
<path opacity="0.211765" d="M37.5488 26.2695L37.793 26.3184L37.5488 26.3672V26.2695Z" fill="#1B2243" stroke="#1B2243"/>
<path opacity="0.211765" d="M42.627 26.2695L42.5293 26.4648" stroke="#1B2243"/>
<path opacity="0.211765" d="M43.5059 26.5625L43.5547 26.709L43.3594 26.8066L43.5059 26.5625Z" fill="#1B2243" stroke="#1B2243"/>
<path opacity="0.211765" d="M10.1074 26.7578L10.2051 26.9531" stroke="white"/>
<path opacity="0.211765" d="M4.73633 26.9531L8.00781 27.002L4.73633 27.0508V26.9531Z" fill="#1B2243" stroke="white"/>
<path opacity="0.211765" d="M10.4004 26.9531L23.0469 27.002L10.4004 27.0508V26.9531Z" fill="#1B2243" stroke="white"/>
<path opacity="0.211765" d="M34.8145 26.9531L36.1328 27.002L34.8145 27.0508V26.9531Z" fill="#1B2243" stroke="#1B2243"/>
<path opacity="0.211765" d="M43.3105 26.9531L43.2129 27.1484" stroke="#1B2243"/>
<path opacity="0.211765" d="M33.9355 27.0508L34.1797 27.0996L33.9355 27.1484V27.0508Z" fill="#1B2243" stroke="#1B2243"/>
<path opacity="0.211765" d="M36.6699 27.0508L37.0117 27.0996L36.6699 27.1484V27.0508Z" fill="#1B2243" stroke="#1B2243"/>
<path opacity="0.211765" d="M30.5176 27.1484L30.4199 27.3438" stroke="#1B2243"/>
<path opacity="0.211765" d="M29.3457 27.832L29.248 28.0273" stroke="#1B2243"/>
<path opacity="0.211765" d="M41.5527 27.9297L41.6504 28.125" stroke="#1B2243"/>
<path opacity="0.211765" d="M29.0527 28.0273L28.8574 28.3203" stroke="#1B2243"/>
<path opacity="0.211765" d="M41.8457 28.125L41.9434 28.3203" stroke="#1B2243"/>
<path opacity="0.211765" d="M30.5176 28.2227L30.4199 28.418" stroke="#1B2243"/>
<path opacity="0.211765" d="M40.2832 28.2227L40.3809 28.418" stroke="#1B2243"/>
<path opacity="0.211765" d="M28.6621 28.3203L28.4668 28.6133" stroke="#1B2243"/>
<path opacity="0.211765" d="M42.2363 28.418L42.5293 28.8086" stroke="#1B2243"/>
<path opacity="0.211765" d="M30.0293 28.5156L29.9316 28.7109" stroke="#1B2243"/>
<path opacity="0.211765" d="M29.7363 28.7109L29.6387 28.9062" stroke="#1B2243"/>
<path opacity="0.211765" d="M28.0762 28.8086L27.2949 29.6875" stroke="#1B2243"/>
<path opacity="0.211765" d="M34.3262 28.8086L34.7656 28.8574L34.3262 28.9062V28.8086Z" fill="#1B2243" stroke="#1B2243"/>
<path opacity="0.211765" d="M35.9863 28.8086L36.4258 28.8574L35.9863 28.9062V28.8086Z" fill="#1B2243" stroke="#1B2243"/>
<path opacity="0.211765" d="M41.1621 28.8086L41.2598 29.0039" stroke="#1B2243"/>
<path opacity="0.211765" d="M29.4434 28.9062L29.248 29.1992" stroke="#1B2243"/>
<path opacity="0.211765" d="M36.7676 28.9062L37.0117 28.9551L36.7676 29.0039V28.9062Z" fill="#1B2243" stroke="#1B2243"/>
<path opacity="0.211765" d="M41.5527 29.1016L41.748 29.3945" stroke="#1B2243"/>
<path opacity="0.211765" d="M28.9551 29.2969L28.4668 29.8828" stroke="#1B2243"/>
<path opacity="0.211765" d="M42.1387 29.5898L42.7246 30.2734" stroke="#1B2243"/>
<path opacity="0.211765" d="M35.1074 29.6875L35.8398 29.7363L35.1074 29.7852V29.6875Z" fill="#1B2243" stroke="#1B2243"/>
<path opacity="0.211765" d="M31.3965 29.7852L31.2988 29.9805" stroke="#1B2243"/>
<path opacity="0.211765" d="M34.2285 29.7852L34.4727 29.834L34.2285 29.8828V29.7852Z" fill="#1B2243" stroke="#1B2243"/>
<path opacity="0.211765" d="M36.377 29.7852L36.6211 29.834L36.377 29.8828V29.7852Z" fill="#1B2243" stroke="#1B2243"/>
<path opacity="0.211765" d="M43.6035 29.7852L43.7988 30.0781" stroke="#1B2243"/>
<path opacity="0.211765" d="M4.73633 29.8828L8.00781 29.9316L4.73633 29.9805V29.8828Z" fill="#1B2243" stroke="white"/>
<path opacity="0.211765" d="M10.4004 29.8828L23.0469 29.9316L10.4004 29.9805V29.8828Z" fill="#1B2243" stroke="white"/>
<path opacity="0.211765" d="M4.54102 29.9805L4.49219 30.127L4.44336 30.2734L4.39453 30.127L4.54102 29.9805Z" fill="#1B2243" stroke="white"/>
<path opacity="0.211765" d="M10.2051 29.9805L10.1074 30.1758" stroke="white"/>
<path opacity="0.211765" d="M27.002 29.9805L26.8066 30.2734" stroke="white"/>
<path opacity="0.211765" d="M28.2715 29.9805L27.6855 30.6641" stroke="#1B2243"/>
<path opacity="0.211765" d="M30.9082 30.0781L30.8105 30.2734" stroke="#1B2243"/>
<path opacity="0.211765" d="M39.8926 30.0781L39.9902 30.2734" stroke="#1B2243"/>
<path opacity="0.211765" d="M40.1855 30.2734L40.2832 30.4688" stroke="#1B2243"/>
<path opacity="0.211765" d="M43.9941 30.2734L44.1895 30.5664" stroke="#1B2243"/>
<path opacity="0.211765" d="M30.5176 30.3711L30.4199 30.5664" stroke="#1B2243"/>
<path opacity="0.211765" d="M26.6113 30.4688L26.5137 30.6641" stroke="white"/>
<path opacity="0.211765" d="M4.44336 30.5664L4.63867 30.8594" stroke="white"/>
<path opacity="0.211765" d="M8.25195 30.5664L8.05664 30.8594L7.91016 30.8105L8.25195 30.5664Z" fill="#1B2243" stroke="white"/>
<path opacity="0.211765" d="M10.1074 30.5664L10.3027 30.8594" stroke="white"/>
<path opacity="0.211765" d="M37.9395 30.5664L37.793 30.8105L37.7441 30.957L37.6953 30.8105L37.9395 30.5664Z" fill="#1B2243" stroke="#1B2243"/>
<path opacity="0.211765" d="M38.4277 30.5664L38.6719 30.9082H38.5742L38.4277 30.5664Z" fill="#1B2243" stroke="#1B2243"/>
<path opacity="0.211765" d="M40.5762 30.5664L40.7715 30.8594" stroke="#1B2243"/>
<path opacity="0.211765" d="M43.0176 30.5664L43.2129 30.8594" stroke="#1B2243"/>
<path opacity="0.211765" d="M46.2402 30.5664L46.6797 30.6152L46.2402 30.6641V30.5664Z" fill="#1B2243" stroke="#1B2243"/>
<path opacity="0.211765" d="M30.127 30.6641L29.7363 31.1523" stroke="#1B2243"/>
<path opacity="0.211765" d="M44.2871 30.6641L44.3848 30.8594" stroke="#1B2243"/>
<path opacity="0.211765" d="M31.5918 30.7617L31.4941 30.957" stroke="#1B2243"/>
<path opacity="0.211765" d="M39.209 30.7617L39.3066 30.957" stroke="#1B2243"/>
<path opacity="0.211765" d="M27.4902 30.8594L27.3926 31.0547" stroke="white"/>
<path opacity="0.211765" d="M31.2988 30.957L31.2012 31.1523" stroke="#1B2243"/>
<path opacity="0.211765" d="M44.4824 30.957L44.5801 31.1523" stroke="#1B2243"/>
<path opacity="0.211765" d="M41.1621 31.0547L41.6504 31.6406" stroke="#1B2243"/>
<path opacity="0.211765" d="M43.4082 31.0547L43.5059 31.25" stroke="#1B2243"/>
<path opacity="0.211765" d="M31.0059 31.1523L30.8105 31.4453" stroke="#1B2243"/>
<path opacity="0.211765" d="M39.7949 31.1523L39.8926 31.3477" stroke="#1B2243"/>
<path opacity="0.211765" d="M27.1973 31.25L27.0996 31.4453" stroke="white"/>
<path opacity="0.211765" d="M29.541 31.25L29.0527 31.8359" stroke="#1B2243"/>
<path opacity="0.211765" d="M26.0254 31.3477L25.9277 31.543" stroke="white"/>
<path opacity="0.211765" d="M27.002 31.543L26.9043 31.7383" stroke="white"/>
<path opacity="0.211765" d="M40.2832 31.543L41.2598 32.6172" stroke="#1B2243"/>
<path opacity="0.211765" d="M30.3223 31.7383L30.2246 31.9336" stroke="#1B2243"/>
<path opacity="0.211765" d="M37.2559 31.8359L37.3047 32.0801H37.207L37.2559 31.8359Z" fill="#1B2243" stroke="#1B2243"/>
<path opacity="0.211765" d="M41.9434 31.9336L42.1387 32.2266" stroke="#1B2243"/>
<path opacity="0.211765" d="M43.9941 31.9336L44.0918 32.1289" stroke="#1B2243"/>
<path opacity="0.211765" d="M28.8574 32.0312L28.7598 32.2266" stroke="#1B2243"/>
<path opacity="0.211765" d="M48.1934 32.0312L48.2422 32.666H48.1445L48.1934 32.0312Z" fill="#1B2243" stroke="#1B2243"/>
<path opacity="0.211765" d="M26.6113 32.2266L26.5137 32.4219" stroke="white"/>
<path opacity="0.211765" d="M37.3535 32.2266L37.4512 32.4219" stroke="#1B2243"/>
<path opacity="0.211765" d="M29.834 32.3242L29.6387 32.6172" stroke="#1B2243"/>
<path opacity="0.211765" d="M42.334 32.4219L42.4316 32.6172" stroke="#1B2243"/>
<path opacity="0.211765" d="M29.4434 32.8125L29.3457 33.0078" stroke="#1B2243"/>
<path opacity="0.211765" d="M41.4551 32.8125L41.5527 33.0078" stroke="#1B2243"/>
<path opacity="0.211765" d="M42.627 32.9102L42.7246 33.1055" stroke="#1B2243"/>
<path opacity="0.211765" d="M28.1738 33.1055L28.0762 33.3008" stroke="#1B2243"/>
<path opacity="0.211765" d="M29.248 33.1055L29.1504 33.3008" stroke="#1B2243"/>
<path opacity="0.211765" d="M41.6504 33.1055L41.748 33.3008" stroke="#1B2243"/>
<path opacity="0.211765" d="M47.998 33.2031L47.9004 33.3984" stroke="#1B2243"/>
<path opacity="0.211765" d="M47.8027 33.4961L47.6074 33.7891" stroke="#1B2243"/>
<path opacity="0.211765" d="M4.83398 33.6914L7.91016 33.7402L4.83398 33.7891V33.6914Z" fill="#1B2243" stroke="white"/>
<path opacity="0.211765" d="M10.498 33.6914L22.9492 33.7402L10.498 33.7891V33.6914Z" fill="#1B2243" stroke="white"/>
<path opacity="0.211765" d="M23.0957 33.7891L23.3398 34.1309H23.2422L23.0957 33.7891Z" fill="#1B2243" stroke="white"/>
<path opacity="0.211765" d="M47.4121 33.7891L47.3145 33.9844" stroke="#1B2243"/>
<path opacity="0.211765" d="M23.291 34.2773L23.3398 34.4238L23.0469 34.6191L23.291 34.2773Z" fill="#1B2243" stroke="white"/>
<path opacity="0.211765" d="M46.0449 34.375L46.0938 34.7168H45.9961L46.0449 34.375Z" fill="#1B2243" stroke="#1B2243"/>
<path opacity="0.211765" d="M30.8105 34.4727L30.8594 34.8145H30.7617L30.8105 34.4727Z" fill="#1B2243" stroke="#1B2243"/>
<path opacity="0.211765" d="M39.9902 34.4727L40.332 34.5215L39.9902 34.5703V34.4727Z" fill="#1B2243" stroke="#1B2243"/>
<path opacity="0.211765" d="M4.93164 34.668L7.8125 34.7168L4.93164 34.7656V34.668Z" fill="#1B2243" stroke="white"/>
<path opacity="0.211765" d="M10.5957 34.668L22.8516 34.7168L10.5957 34.7656V34.668Z" fill="#1B2243" stroke="white"/>
<path opacity="0.211765" d="M24.6582 34.7656L24.707 35.0098H24.6094L24.6582 34.7656Z" fill="#1B2243" stroke="white"/>
<path opacity="0.211765" d="M40.5762 34.7656L40.625 35.1074H40.5273L40.5762 34.7656Z" fill="#1B2243" stroke="#1B2243"/>
<path opacity="0.211765" d="M43.5059 34.9609L43.5547 35.2051H43.457L43.5059 34.9609Z" fill="#1B2243" stroke="#1B2243"/>
<path opacity="0.211765" d="M46.1426 34.9609L46.1914 35.2051H46.0938L46.1426 34.9609Z" fill="#1B2243" stroke="#1B2243"/>
<path opacity="0.211765" d="M25.5371 35.1562L25.5859 35.4004H25.4883L25.5371 35.1562Z" fill="#1B2243" stroke="white"/>
<path opacity="0.211765" d="M24.5605 35.3516L24.6094 35.5957H24.5117L24.5605 35.3516Z" fill="#1B2243" stroke="white"/>
<path opacity="0.211765" d="M34.2285 35.3516L33.8379 35.8398" stroke="#1B2243"/>
<path opacity="0.211765" d="M42.627 35.3516L42.6758 35.5957H42.5781L42.627 35.3516Z" fill="#1B2243" stroke="#1B2243"/>
<path opacity="0.211765" d="M27.2949 35.4492L27.3438 35.6934H27.2461L27.2949 35.4492Z" fill="#1B2243" stroke="white"/>
<path opacity="0.211765" d="M36.6699 35.4492L37.1094 35.791L36.9629 35.8398L36.6699 35.4492Z" fill="#1B2243" stroke="#1B2243"/>
<path opacity="0.211765" d="M43.6035 35.4492L43.6523 35.791H43.5547L43.6035 35.4492Z" fill="#1B2243" stroke="#1B2243"/>
<path opacity="0.211765" d="M46.2402 35.5469L46.2891 35.8887H46.1914L46.2402 35.5469Z" fill="#1B2243" stroke="#1B2243"/>
<path opacity="0.211765" d="M25.4395 35.8398L25.4883 36.2793H25.3906L25.4395 35.8398Z" fill="#1B2243" stroke="white"/>
<path opacity="0.211765" d="M45.3613 35.8398L45.4102 36.2793H45.3125L45.3613 35.8398Z" fill="#1B2243" stroke="#1B2243"/>
<path opacity="0.211765" d="M28.1738 35.9375L28.2227 36.2793H28.125L28.1738 35.9375Z" fill="#1B2243" stroke="#1B2243"/>
<path opacity="0.211765" d="M42.7246 36.0352L42.7734 37.1582H42.6758L42.7246 36.0352Z" fill="#1B2243" stroke="#1B2243"/>
<path opacity="0.211765" d="M27.1973 36.1328L27.2461 37.8418H27.1484L27.1973 36.1328Z" fill="#1B2243" stroke="white"/>
<path opacity="0.211765" d="M24.4629 36.2305L24.5117 37.6465H24.4141L24.4629 36.2305Z" fill="#1B2243" stroke="white"/>
<path opacity="0.211765" d="M33.4473 36.5234L33.4961 36.7676H33.3984L33.4473 36.5234Z" fill="#1B2243" stroke="#1B2243"/>
<path opacity="0.211765" d="M37.3535 36.6211L37.4023 37.3535H37.3047L37.3535 36.6211Z" fill="#1B2243" stroke="#1B2243"/>
<path opacity="0.211765" d="M46.3379 36.6211L46.3867 37.5488H46.2891L46.3379 36.6211Z" fill="#1B2243" stroke="#1B2243"/>
<path opacity="0.211765" d="M33.4473 37.207L33.4961 37.4512H33.3984L33.4473 37.207Z" fill="#1B2243" stroke="#1B2243"/>
<path opacity="0.211765" d="M3.07617 37.4023L3.17383 37.5977" stroke="white"/>
<path opacity="0.211765" d="M43.6035 37.4023L43.6523 37.8418H43.5547L43.6035 37.4023Z" fill="#1B2243" stroke="#1B2243"/>
<path opacity="0.211765" d="M25.4395 37.6953L25.4883 38.1348H25.3906L25.4395 37.6953Z" fill="#1B2243" stroke="white"/>
<path opacity="0.211765" d="M28.1738 37.6953L28.2227 38.0371H28.125L28.1738 37.6953Z" fill="#1B2243" stroke="#1B2243"/>
<path opacity="0.211765" d="M42.627 37.6953L42.6758 38.0371H42.5781L42.627 37.6953Z" fill="#1B2243" stroke="#1B2243"/>
<path opacity="0.211765" d="M45.3613 37.6953L45.4102 38.1348H45.3125L45.3613 37.6953Z" fill="#1B2243" stroke="#1B2243"/>
<path opacity="0.211765" d="M2.19727 37.793L2.29492 37.9883" stroke="white"/>
<path opacity="0.211765" d="M3.56445 37.8906L3.66211 38.0859" stroke="white"/>
<path opacity="0.211765" d="M2.39258 38.0859L2.88086 38.6719" stroke="white"/>
<path opacity="0.211765" d="M33.7402 38.0859L33.9355 38.3789" stroke="#1B2243"/>
<path opacity="0.211765" d="M24.5605 38.1836L24.4629 38.3789L4.39453 38.3301L24.4629 38.2812L24.5605 38.1836Z" fill="#1B2243" stroke="white"/>
<path opacity="0.211765" d="M36.9629 38.1836L36.5723 38.6719" stroke="#1B2243"/>
<path opacity="0.211765" d="M43.5059 38.1836L43.5547 38.4277H43.457L43.5059 38.1836Z" fill="#1B2243" stroke="#1B2243"/>
<path opacity="0.211765" d="M27.2949 38.2812L27.3438 38.5254H27.2461L27.2949 38.2812Z" fill="#1B2243" stroke="white"/>
<path opacity="0.211765" d="M42.5293 38.2812L42.5781 38.5254H42.4805L42.5293 38.2812Z" fill="#1B2243" stroke="#1B2243"/>
<path opacity="0.211765" d="M46.2402 38.2812L46.2891 38.5254H46.1914L46.2402 38.2812Z" fill="#1B2243" stroke="#1B2243"/>
<path opacity="0.211765" d="M34.1309 38.4766L34.2285 38.6719" stroke="#1B2243"/>
<path opacity="0.211765" d="M25.5371 38.5742L25.5859 38.8184H25.4883L25.5371 38.5742Z" fill="#1B2243" stroke="white"/>
<path opacity="0.211765" d="M45.2637 38.5742L45.3125 38.8184H45.2148L45.2637 38.5742Z" fill="#1B2243" stroke="#1B2243"/>
<path opacity="0.211765" d="M34.4238 38.6719L34.668 38.8184L34.5215 38.8672L34.4238 38.6719Z" fill="#1B2243" stroke="#1B2243"/>
<path opacity="0.211765" d="M43.4082 38.6719L43.457 38.916H43.3594L43.4082 38.6719Z" fill="#1B2243" stroke="#1B2243"/>
<path opacity="0.211765" d="M40.2832 38.8672L40.625 38.916L40.2832 38.9648V38.8672Z" fill="#1B2243" stroke="#1B2243"/>
<path opacity="0.211765" d="M35.3027 38.9648L35.5469 39.0137L35.3027 39.0625V38.9648Z" fill="#1B2243" stroke="#1B2243"/>
<path opacity="0.211765" d="M4.05273 39.1602L4.29688 39.209L4.05273 39.2578V39.1602Z" fill="#1B2243" stroke="white"/>
<path opacity="0.211765" d="M41.6504 39.3555L41.748 39.5508" stroke="#1B2243"/>
<path opacity="0.211765" d="M41.2598 40.2344L41.6016 40.2832L41.2598 40.332V40.2344Z" fill="#1B2243" stroke="#1B2243"/>
<path opacity="0.211765" d="M29.1504 40.7227L29.248 40.918" stroke="#1B2243"/>
<path opacity="0.211765" d="M41.4551 41.0156L41.3574 41.2109" stroke="#1B2243"/>
<path opacity="0.211765" d="M26.3184 41.1133L26.4648 41.4551H26.3672L26.3184 41.1133Z" fill="#1B2243" stroke="white"/>
<path opacity="0.211765" d="M28.2715 41.1133L28.3691 41.3086" stroke="#1B2243"/>
<path opacity="0.211765" d="M42.4316 41.2109L42.334 41.4062" stroke="#1B2243"/>
<path opacity="0.211765" d="M29.541 41.3086L29.6387 41.5039" stroke="#1B2243"/>
<path opacity="0.211765" d="M28.4668 41.4062L28.5645 41.6016" stroke="#1B2243"/>
<path opacity="0.211765" d="M41.1621 41.4062L41.0645 41.6016" stroke="#1B2243"/>
<path opacity="0.211765" d="M42.2363 41.5039L42.1387 41.6992" stroke="#1B2243"/>
<path opacity="0.211765" d="M26.5137 41.6016L26.6113 41.7969" stroke="white"/>
<path opacity="0.211765" d="M28.6621 41.6992L28.7598 41.8945" stroke="#1B2243"/>
<path opacity="0.211765" d="M29.834 41.6992L30.6152 42.5781" stroke="#1B2243"/>
<path opacity="0.211765" d="M42.041 41.7969L41.9434 41.9922" stroke="#1B2243"/>
<path opacity="0.211765" d="M40.7715 41.8945L40.2832 42.4805" stroke="#1B2243"/>
<path opacity="0.211765" d="M28.9551 42.0898L29.1504 42.3828" stroke="#1B2243"/>
<path opacity="0.211765" d="M41.748 42.1875L41.3574 42.6758" stroke="#1B2243"/>
<path opacity="0.211765" d="M26.9043 42.2852L27.002 42.4805" stroke="white"/>
<path opacity="0.211765" d="M44.873 42.4805L44.7754 42.6758" stroke="#1B2243"/>
<path opacity="0.211765" d="M27.0996 42.5781L27.1973 42.7734" stroke="white"/>
<path opacity="0.211765" d="M39.9902 42.5781L39.7949 42.8711" stroke="#1B2243"/>
<path opacity="0.211765" d="M43.7012 42.5781L43.6035 42.7734" stroke="#1B2243"/>
<path opacity="0.211765" d="M30.9082 42.6758L31.1035 42.9688" stroke="#1B2243"/>
<path opacity="0.211765" d="M27.2949 42.8711L27.4902 43.1641" stroke="white"/>
<path opacity="0.211765" d="M41.0645 42.8711L40.5762 43.457" stroke="#1B2243"/>
<path opacity="0.211765" d="M31.2988 42.9688L31.3965 43.1641" stroke="#1B2243"/>
<path opacity="0.211765" d="M43.4082 42.9688L43.3105 43.1641" stroke="#1B2243"/>
<path opacity="0.211765" d="M30.127 43.2617L30.3223 43.5547" stroke="#1B2243"/>
<path opacity="0.211765" d="M31.7871 43.2617L31.8848 43.457" stroke="#1B2243"/>
<path opacity="0.211765" d="M32.959 43.2617L32.8613 43.457" stroke="#1B2243"/>
<path opacity="0.211765" d="M26.5137 43.3594L26.6113 43.5547" stroke="white"/>
<path opacity="0.211765" d="M27.6855 43.3594L27.9785 43.75" stroke="#1B2243"/>
<path opacity="0.211765" d="M38.8184 43.3594L38.7207 43.5547" stroke="#1B2243"/>
<path opacity="0.211765" d="M43.1152 43.3594L42.7246 43.8477" stroke="#1B2243"/>
<path opacity="0.211765" d="M44.2871 43.3594L44.1895 43.5547" stroke="#1B2243"/>
<path opacity="0.211765" d="M32.4707 43.457L32.7148 43.5059L32.4707 43.5547V43.457Z" fill="#1B2243" stroke="#1B2243"/>
<path opacity="0.211765" d="M30.5176 43.5547L30.6152 43.75" stroke="#1B2243"/>
<path opacity="0.211765" d="M40.2832 43.5547L40.1855 43.75" stroke="#1B2243"/>
<path opacity="0.211765" d="M26.8066 43.75L26.9043 43.9453" stroke="white"/>
<path opacity="0.211765" d="M39.9902 43.75L39.8926 43.9453" stroke="#1B2243"/>
<path opacity="0.211765" d="M43.9941 43.75L43.8965 43.9453" stroke="#1B2243"/>
<path opacity="0.211765" d="M31.1035 43.9453L31.2012 44.1406" stroke="#1B2243"/>
<path opacity="0.211765" d="M39.6973 43.9453L39.5996 44.1406" stroke="#1B2243"/>
<path opacity="0.211765" d="M34.0332 44.1406L34.375 44.1895L34.0332 44.2383V44.1406Z" fill="#1B2243" stroke="#1B2243"/>
<path opacity="0.211765" d="M36.4746 44.1406L36.7188 44.1895L36.4746 44.2383V44.1406Z" fill="#1B2243" stroke="#1B2243"/>
<path opacity="0.211765" d="M27.1973 44.2383L28.1738 45.3125" stroke="#1B2243"/>
<path opacity="0.211765" d="M34.8145 44.2383L36.0352 44.2871L34.8145 44.3359V44.2383Z" fill="#1B2243" stroke="#1B2243"/>
<path opacity="0.211765" d="M42.2363 44.2383L41.8457 44.7266" stroke="#1B2243"/>
<path opacity="0.211765" d="M43.6035 44.2383L42.627 45.3125" stroke="#1B2243"/>
<path opacity="0.211765" d="M28.7598 44.4336L29.0527 44.8242" stroke="#1B2243"/>
<path opacity="0.211765" d="M29.3457 44.9219L29.4434 45.1172" stroke="#1B2243"/>
<path opacity="0.211765" d="M41.4551 44.9219L41.3574 45.1172" stroke="#1B2243"/>
<path opacity="0.211765" d="M33.6426 45.0195L33.8867 45.0684L33.6426 45.1172V45.0195Z" fill="#1B2243" stroke="#1B2243"/>
<path opacity="0.211765" d="M34.2285 45.1172L34.4727 45.166L34.2285 45.2148V45.1172Z" fill="#1B2243" stroke="#1B2243"/>
<path opacity="0.211765" d="M36.2793 45.1172L36.6211 45.166L36.2793 45.2148V45.1172Z" fill="#1B2243" stroke="#1B2243"/>
<path opacity="0.211765" d="M42.334 45.4102L42.1387 45.7031" stroke="#1B2243"/>
<path opacity="0.211765" d="M28.5645 45.5078L28.7598 45.8008" stroke="#1B2243"/>
<path opacity="0.211765" d="M40.5762 45.5078L40.4785 45.7031" stroke="#1B2243"/>
<path opacity="0.211765" d="M28.9551 45.8008L29.0527 45.9961" stroke="#1B2243"/>
<path opacity="0.211765" d="M41.8457 45.8008L41.748 45.9961" stroke="#1B2243"/>
<path opacity="0.211765" d="M41.5527 45.9961L41.4551 46.1914" stroke="#1B2243"/>
<path opacity="0.211765" d="M41.2598 46.1914L41.1621 46.3867" stroke="#1B2243"/>
<path opacity="0.211765" d="M40.7715 46.4844L40.6738 46.6797L40.4785 46.7773L40.5762 46.582L40.7715 46.4844Z" fill="#1B2243" stroke="#1B2243"/>
<path opacity="0.211765" d="M37.2559 46.7773L37.5 46.8262L37.2559 46.875V46.7773Z" fill="#1B2243" stroke="#1B2243"/>
<path opacity="0.211765" d="M33.8379 46.875L34.1797 46.9238L33.8379 46.9727V46.875Z" fill="#1B2243" stroke="#1B2243"/>
<path opacity="0.211765" d="M36.6699 46.875L36.9141 46.9238L36.6699 46.9727V46.875Z" fill="#1B2243" stroke="#1B2243"/>
<path opacity="0.211765" d="M34.7168 46.9727L36.1328 47.0215L34.7168 47.0703V46.9727Z" fill="#1B2243" stroke="#1B2243"/>
<path opacity="0.211765" d="M37.6465 47.6562L37.8906 47.7051L37.6465 47.7539V47.6562Z" fill="#1B2243" stroke="#1B2243"/>
<path opacity="0.211765" d="M33.4473 47.7539L33.6914 47.8027L33.4473 47.8516V47.7539Z" fill="#1B2243" stroke="#1B2243"/>
<path opacity="0.211765" d="M37.1582 47.7539L37.4023 47.8027L37.1582 47.8516V47.7539Z" fill="#1B2243" stroke="#1B2243"/>
<path opacity="0.211765" d="M34.0332 47.8516L34.4727 47.9004L34.0332 47.9492V47.8516Z" fill="#1B2243" stroke="#1B2243"/>
<path opacity="0.211765" d="M36.377 47.8516L36.8164 47.9004L36.377 47.9492V47.8516Z" fill="#1B2243" stroke="#1B2243"/>
<path opacity="0.972549" d="M4.24805 2.05078H38.5254C39.3652 2.22005 40 2.5944 40.4297 3.17383L41.0156 4.44336V23.2422L43.6035 24.4141L43.8477 24.6582L44.043 25.4395L43.3594 26.9043L43.1152 27.1484L42.4316 27.3438L41.6504 27.0508L41.3086 27.7832L43.5547 29.7363L44.5801 31.1523H44.873L46.0449 30.6641H46.9238L47.8516 31.2988C48.1576 31.6113 48.2552 32.1322 48.1445 32.8613L47.5098 33.7891L45.9961 34.375L46.2891 35.9863V38.2324L45.8008 40.4785L44.9219 42.4316C44.2578 43.5905 43.4277 44.5833 42.4316 45.4102C41.403 46.3021 40.166 46.9857 38.7207 47.4609L36.2793 47.9492H34.5215L32.373 47.5586L30.0293 46.582C28.8314 45.8919 27.806 45.0293 26.9531 43.9941C26.3346 43.2454 25.8138 42.3991 25.3906 41.4551L24.8047 39.7949V39.4043L24.6582 39.2578H4.3457C3.44076 39.0885 2.77344 38.6816 2.34375 38.0371L1.85547 36.9629V4.3457C2.07031 3.55143 2.47721 2.94922 3.07617 2.53906L4.24805 2.05078ZM4.49219 2.92969L3.71094 3.22266C3.25521 3.48307 2.92969 3.90625 2.73438 4.49219V12.1094H10.8398L11.8164 10.8398L12.5 10.2539H40.1367V4.6875L39.7461 3.80859C39.4857 3.35286 39.0625 3.0599 38.4766 2.92969H4.49219ZM12.6953 11.2305L11.6211 12.5977L11.2305 12.9883H2.73438V36.9141L3.02734 37.5C3.35286 37.9557 3.84115 38.2487 4.49219 38.3789H24.5117C24.6419 38.3138 24.6419 38.2487 24.5117 38.1836V35.7422L24.9023 33.8867C25.4232 32.3242 26.1393 31.0221 27.0508 29.9805C28.0273 28.8086 29.1992 27.8971 30.5664 27.2461L30.0781 25.9766C30.013 25.3255 30.1107 24.8698 30.3711 24.6094C30.6315 24.2188 31.0221 23.9583 31.543 23.8281C32.194 23.763 32.6823 23.8932 33.0078 24.2188L33.3984 24.8047L33.9844 26.1719H34.7656L34.8633 26.0742L37.0117 26.1719L38.7695 26.5625L39.0625 25.8789L38.5742 25.5859L37.9883 24.9023C38.1185 24.056 38.3789 23.3724 38.7695 22.8516L39.2578 22.6562L40.1367 22.7539V11.2305H12.6953ZM39.5508 23.5352L38.8672 24.707L42.5781 26.4648L43.1641 25.293L39.5508 23.5352ZM34.8633 26.9531L34.7656 27.0508H33.9844L33.0078 27.2461L31.8359 27.6367C30.7292 28.0273 29.7852 28.5807 29.0039 29.2969C27.9622 30.1432 27.1159 31.1849 26.4648 32.4219L25.6836 34.375L25.3906 35.9375V38.1836L25.7812 40.0391C26.237 41.3411 26.8555 42.4805 27.6367 43.457C28.3529 44.3685 29.2643 45.1172 30.3711 45.7031L32.6172 46.6797L34.7656 47.0703H36.1328L38.2812 46.6797C39.6484 46.224 40.8529 45.5729 41.8945 44.7266C42.9362 43.8151 43.7826 42.7409 44.4336 41.5039L44.9219 40.332L45.4102 38.1836V35.9375L44.8242 33.5938C44.3034 32.2917 43.6198 31.1849 42.7734 30.2734C41.7969 29.2318 40.6576 28.3854 39.3555 27.7344L37.0117 27.0508L34.8633 26.9531Z" fill="#1B2243" stroke="#1B2243"/>
<path opacity="0.972549" d="M6.20131 5.17578H7.27553C7.71824 5.32552 8.06004 5.56966 8.30092 5.9082C8.60691 6.2207 8.70457 6.74154 8.59389 7.4707L7.95912 8.49609C7.6336 8.85417 7.08022 8.98438 6.29897 8.88672L5.27358 8.25195C4.9155 7.92643 4.7853 7.37305 4.88295 6.5918C5.00665 6.09701 5.25079 5.72266 5.61537 5.46875L6.20131 5.17578Z" fill="#1B2243" stroke="#1B2243"/>
<path opacity="0.972549" d="M11.2793 5.17577C11.8132 5.09765 12.2363 5.1302 12.5488 5.27343L13.3789 6.00585L13.5742 6.39648L13.6719 7.17773C13.5742 7.82877 13.2975 8.30078 12.8418 8.59374C12.5293 8.86718 12.041 8.96484 11.377 8.88671C10.8301 8.74348 10.4232 8.46679 10.1562 8.05663C9.89583 7.77018 9.79818 7.31445 9.86328 6.68945L10.3516 5.66406L11.2793 5.17577Z" fill="#1B2243" stroke="#1B2243"/>
<path opacity="0.972549" d="M16.2598 5.17578C17.1908 5.05859 17.8255 5.23763 18.1641 5.71289C18.5547 6.03841 18.7174 6.59179 18.6523 7.37304C18.5156 7.91341 18.2389 8.32031 17.8223 8.59375C17.5293 8.88671 17.041 8.98437 16.3574 8.88671C15.8561 8.76953 15.4818 8.52539 15.2344 8.15429C14.987 7.8483 14.8568 7.42513 14.8438 6.88476L15.1367 6.00585L15.6738 5.46875L16.2598 5.17578Z" fill="#1B2243" stroke="#1B2243"/>
<path opacity="0.972549" d="M25.6348 5.17578H37.2559L37.793 5.61523L37.9883 6.00586V7.95898L37.5488 8.69141L37.1582 8.88672H25.7324L25 8.34961L24.9023 8.1543V5.9082L25.4395 5.27344L25.6348 5.17578ZM25.9766 6.05469L25.7812 6.25V7.91016L25.9766 8.00781H37.0117L37.1094 7.8125V6.25L37.0117 6.05469H25.9766Z" fill="#1B2243" stroke="#1B2243"/>
<path opacity="0.972549" d="M4.24805 8.00781L4.78516 8.10547L4.88281 8.34961V10.498C4.85026 10.7585 4.67122 10.8724 4.3457 10.8398L4.00391 10.5957V8.25195L4.24805 8.00781Z" fill="#1B2243" stroke="#1B2243"/>
<path opacity="0.972549" d="M9.32617 15.918L9.86328 16.0156L9.96094 16.3574L8.69141 21.8262L8.34961 22.2656C8.04362 22.3177 7.86458 22.2363 7.8125 22.0215L7.71484 21.8262L9.08203 16.0156L9.32617 15.918Z" fill="#1B2243" stroke="#1B2243"/>
<path opacity="0.972549" d="M17.5294 16.7969H38.1348L38.379 17.041C38.4441 17.3991 38.3627 17.6107 38.1348 17.6758H17.4317L17.1876 17.4316C17.1225 17.1387 17.1713 16.9596 17.3341 16.8945L17.5294 16.7969Z" fill="#1B2243" stroke="#1B2243"/>
<path opacity="0.972549" d="M6.39648 16.8945C6.75456 16.8294 6.96615 16.9108 7.03125 17.1387V17.5293L5.56641 18.9941V19.1895L7.03125 20.6543V21.0449L6.49414 21.2891L5.56641 20.459L4.63867 19.4336C4.49544 19.4857 4.44661 19.4369 4.49219 19.2871L4.39453 18.9941L6.39648 16.8945Z" fill="#1B2243" stroke="#1B2243"/>
<path opacity="0.972549" d="M10.9863 16.8945H11.2793L13.1836 18.7012L13.2812 19.2871L11.377 21.1914L11.084 21.2891L10.7422 21.0449L10.6445 20.752L12.207 18.9941L10.7422 17.5293L10.6445 17.2363L10.7422 16.9922L10.9863 16.8945Z" fill="#1B2243" stroke="#1B2243"/>
<path opacity="0.972549" d="M17.5294 20.4102H22.9005L23.2423 20.6543L23.3399 20.9473L23.0958 21.2891H17.4317L17.1876 21.0449C17.1225 20.752 17.1713 20.5729 17.3341 20.5078L17.5294 20.4102Z" fill="#1B2243" stroke="#1B2243"/>
<path opacity="0.972549" d="M25.2441 20.4102H38.0371L38.3789 20.6543C38.4635 20.9993 38.4147 21.2109 38.2324 21.2891H25.1465L24.9023 21.0449L25 20.5078L25.2441 20.4102Z" fill="#1B2243" stroke="#1B2243"/>
<path opacity="0.972549" d="M4.73633 26.0742H7.95898L8.30078 26.416L8.05664 26.9531H4.63867L4.49219 26.8066L4.39453 26.416L4.73633 26.0742Z" fill="#1B2243" stroke="#1B2243"/>
<path opacity="0.972549" d="M10.4004 26.0742H22.9004L23.2422 26.3184L23.3398 26.5137L23.0957 26.9531H10.3027L10.0586 26.709C10.013 26.3379 10.127 26.1263 10.4004 26.0742Z" fill="#1B2243" stroke="#1B2243"/>
<path opacity="0.972549" d="M34.8145 28.8086L36.6699 28.9062L38.4277 29.3945C39.8405 29.9674 40.9961 30.7975 41.8945 31.8848C42.5911 32.6855 43.112 33.6621 43.457 34.8145L43.6523 35.8887V37.3535L43.5547 37.4512L43.457 38.623L43.0664 39.9902C42.5977 41.1165 41.9629 42.0768 41.1621 42.8711C40.4264 43.6003 39.5475 44.1862 38.5254 44.6289L36.8652 45.1172L34.5215 45.2148C32.2103 44.8242 30.4362 43.8965 29.1992 42.4316C28.5352 41.696 28.0143 40.8171 27.6367 39.7949L27.2461 38.2324V35.791L28.0273 33.3496L29.5898 31.1523L30.7129 30.2734L32.0801 29.4922L33.1543 29.1016L34.8145 28.8086ZM35.1562 29.6875L35.0586 29.7852L33.7891 29.8828L32.8125 30.1758C31.8359 30.5664 31.0221 31.0872 30.3711 31.7383C29.1992 32.7799 28.4505 34.2122 28.125 36.0352V38.0859L28.418 39.3555C28.7435 40.2669 29.1992 41.0807 29.7852 41.7969C30.3711 42.4479 31.0872 43.0013 31.9336 43.457L33.0078 43.9453L34.8633 44.3359C36.1003 44.401 37.1745 44.2383 38.0859 43.8477C38.9323 43.5221 39.681 43.0664 40.332 42.4805C41.0482 41.8294 41.6341 41.0156 42.0898 40.0391L42.5781 38.5742L42.6758 37.3047L42.7734 37.207V36.1328L42.5781 35.0586C42.3177 34.082 41.8945 33.2682 41.3086 32.6172C40.5273 31.5755 39.5182 30.7943 38.2812 30.2734L36.6211 29.7852L35.1562 29.6875Z" fill="#1B2243" stroke="#1B2243"/>
<path opacity="0.972549" d="M4.63873 29.9805H8.05669L8.20318 30.127L8.30084 30.5176L7.86138 30.8594H4.73638C4.47597 30.8268 4.36203 30.6478 4.39459 30.3223L4.63873 29.9805Z" fill="#1B2243" stroke="#1B2243"/>
<path opacity="0.972549" d="M10.3027 29.9805H23.0957L23.2422 30.127L23.3398 30.4199L23.0957 30.7617L22.9004 30.8594H10.4004C10.127 30.8138 10.013 30.6022 10.0586 30.2246L10.3027 29.9805Z" fill="#1B2243" stroke="#1B2243"/>
<path opacity="0.972549" d="M38.0371 30.5664C38.3496 30.5208 38.5286 30.6022 38.5742 30.8105L38.6719 31.0059L38.1836 32.1777L37.9395 32.4219C37.5814 32.487 37.3698 32.4056 37.3047 32.1777V31.7871L38.0371 30.5664Z" fill="#1B2243" stroke="#1B2243"/>
<path opacity="0.972549" d="M4.73633 33.7891H7.95898L8.20312 33.8867L8.30078 34.3262L8.20312 34.5703L7.95898 34.668H4.73633L4.49219 34.5703L4.39453 34.1309L4.49219 33.8867L4.73633 33.7891Z" fill="#1B2243" stroke="#1B2243"/>
<path opacity="0.972549" d="M10.3027 33.7891H22.998L23.2422 34.0332L23.3398 34.2285L22.998 34.668H10.4004L10.1562 34.5703L10.0586 34.1309L10.3027 33.7891Z" fill="#1B2243" stroke="#1B2243"/>
<path opacity="0.972549" d="M29.248 33.7891H29.541L30.7617 34.4238C30.8464 34.7689 30.7975 34.9805 30.6152 35.0586L30.3223 35.1562L29.0039 34.5703L28.9062 34.1309L29.0039 33.8867L29.248 33.7891Z" fill="#1B2243" stroke="#1B2243"/>
<path opacity="0.972549" d="M39.8926 34.5703C40.2376 34.4922 40.4492 34.541 40.5273 34.7168C40.612 35.0619 40.5632 35.2734 40.3809 35.3516L37.3047 36.6211C37.4154 37.6563 37.1387 38.3398 36.4746 38.6719C36.1621 38.9453 35.6738 39.043 35.0098 38.9648L33.9844 38.4766L33.4961 37.6465L33.3984 36.8652C33.5026 36.1556 33.8118 35.651 34.3262 35.3516C34.6126 35.0846 35.0684 34.987 35.6934 35.0586C36.2793 35.1888 36.735 35.4492 37.0605 35.8398L39.8926 34.5703Z" fill="#1B2243" stroke="#1B2243"/>
<path opacity="0.972549" d="M40.1855 38.9648H40.6738L41.7969 39.5996L41.8945 39.7949L41.6504 40.2344H41.1621L40.0391 39.5996L39.9414 39.3066L40.1855 38.9648Z" fill="#1B2243" stroke="#1B2243"/>
<path opacity="0.972549" d="M32.959 41.6016L33.3984 41.6992L33.4961 42.2363L32.7637 43.457C32.4707 43.5221 32.2917 43.4733 32.2266 43.3105L32.1289 42.9199L32.7637 41.6992L32.959 41.6016Z" fill="#1B2243" stroke="#1B2243"/>
</g>
<defs>
<clipPath id="clip0_61_2171">
<rect width="50" height="50" fill="white"/>
</clipPath>
</defs>
</svg>
