<svg width="50" height="50" viewBox="0 0 50 50" fill="none" xmlns="http://www.w3.org/2000/svg">
<g clip-path="url(#clip0_61_2810)">
<path opacity="0.235294" d="M16.9434 0L16.9922 8.05664H16.8945L16.9434 0Z" fill="white" stroke="white"/>
<path opacity="0.235294" d="M33.0566 0L33.1055 8.05664H33.0078L33.0566 0Z" fill="white" stroke="white"/>
<path opacity="0.235294" d="M13.7207 3.22266L13.7695 4.83398H13.6719L13.7207 3.22266Z" fill="white" stroke="white"/>
<path opacity="0.235294" d="M36.2793 3.22266L36.3281 4.83398H36.2305L36.2793 3.22266Z" fill="white" stroke="white"/>
<path opacity="0.235294" d="M11.2793 8.10547L11.3281 12.8906L19.3359 12.9395L11.377 12.9883L11.2305 12.8418L11.2793 8.10547Z" fill="white" stroke="white"/>
<path opacity="0.235294" d="M12.9395 8.10547L12.9883 11.2305L20.9961 11.2793L12.8906 11.3281L12.9395 8.10547Z" fill="white" stroke="white"/>
<path opacity="0.235294" d="M24.1699 8.10547L24.2188 21.7285H24.1211L24.1699 8.10547Z" fill="white" stroke="white"/>
<path opacity="0.235294" d="M25.8301 8.10547L25.8789 21.7285H25.7812L25.8301 8.10547Z" fill="white" stroke="white"/>
<path opacity="0.235294" d="M37.0605 8.10547L37.1094 11.3281L29.0039 11.2793L37.0117 11.2305L37.0605 8.10547Z" fill="white" stroke="white"/>
<path opacity="0.235294" d="M38.7207 8.10547L38.7695 12.8418L38.623 12.9883H30.7129V12.8906H38.6719L38.7207 8.10547Z" fill="white" stroke="white"/>
<path opacity="0.235294" d="M6.88477 11.2305L9.66797 11.2793L6.88477 11.3281V11.2305Z" fill="white" stroke="white"/>
<path opacity="0.235294" d="M40.3809 11.2305L43.1641 11.2793L40.3809 11.3281V11.2305Z" fill="white" stroke="white"/>
<path opacity="0.235294" d="M44.873 11.8164L44.9707 12.0117" stroke="white"/>
<path opacity="0.235294" d="M4.73633 12.1094L4.63867 12.3047" stroke="white"/>
<path opacity="0.235294" d="M45.2637 12.1094L45.3613 12.3047" stroke="white"/>
<path opacity="0.235294" d="M45.752 12.5977L45.9473 12.8906" stroke="white"/>
<path opacity="0.235294" d="M4.15039 12.6953L4.05273 12.8906" stroke="white"/>
<path opacity="0.235294" d="M6.88477 12.8906L9.66797 12.9395L6.88477 12.9883V12.8906Z" fill="white" stroke="white"/>
<path opacity="0.235294" d="M40.3809 12.8906L43.1641 12.9395L40.3809 12.9883V12.8906Z" fill="white" stroke="white"/>
<path opacity="0.235294" d="M5.9082 13.2812L5.81055 13.4766" stroke="white"/>
<path opacity="0.235294" d="M44.0918 13.2812L44.1895 13.4766" stroke="white"/>
<path opacity="0.235294" d="M7.86133 14.4531L17.7734 14.502L7.86133 14.5508V14.4531Z" fill="white" stroke="white"/>
<path opacity="0.235294" d="M32.2754 14.4531L42.1875 14.502L32.2754 14.5508V14.4531Z" fill="white" stroke="white"/>
<path opacity="0.235294" d="M6.98242 14.8438L6.78711 15.1367" stroke="white"/>
<path opacity="0.235294" d="M43.0176 14.8438L43.1152 15.0391" stroke="white"/>
<path opacity="0.235294" d="M8.1543 16.1133L17.6758 16.1621L8.1543 16.2109V16.1133Z" fill="white" stroke="white"/>
<path opacity="0.235294" d="M32.373 16.1133L41.8945 16.1621L32.373 16.2109V16.1133Z" fill="white" stroke="white"/>
<path opacity="0.235294" d="M22.0215 23.3398L21.9727 23.4863L21.9238 23.6328L21.875 23.4863L22.0215 23.3398Z" fill="white" stroke="white"/>
<path opacity="0.235294" d="M27.9785 23.3398L28.125 23.584H28.0273L27.9785 23.3398Z" fill="white" stroke="white"/>
<path opacity="0.235294" d="M17.334 25.293L13.2324 29.4922" stroke="white"/>
<path opacity="0.235294" d="M32.666 25.293L36.7676 29.4922" stroke="white"/>
<path opacity="0.235294" d="M17.7246 27.2461L17.8711 27.2949L15.1855 29.8828L17.7246 27.2461Z" fill="white" stroke="white"/>
<path opacity="0.235294" d="M32.1777 27.2461L34.8633 29.834L32.2754 27.3438L32.1777 27.2461Z" fill="white" stroke="white"/>
<path opacity="0.235294" d="M23.877 28.2227L24.1211 28.2715L23.877 28.3203V28.2227Z" fill="white" stroke="white"/>
<path opacity="0.235294" d="M25.9277 28.2227L26.1719 28.2715L25.9277 28.3203V28.2227Z" fill="white" stroke="white"/>
<path opacity="0.235294" d="M30.127 29.7852L30.2246 29.9805" stroke="white"/>
<path opacity="0.235294" d="M23.877 29.8828L24.1211 29.9316L23.877 29.9805V29.8828Z" fill="white" stroke="white"/>
<path opacity="0.235294" d="M25.9277 29.8828L26.1719 29.9316L25.9277 29.9805V29.8828Z" fill="white" stroke="white"/>
<path opacity="0.235294" d="M19.4824 30.0781L19.3848 30.2734" stroke="white"/>
<path opacity="0.235294" d="M30.5176 30.0781L30.6152 30.2734" stroke="white"/>
<path opacity="0.235294" d="M18.7988 30.6641L18.6035 30.957" stroke="white"/>
<path opacity="0.235294" d="M31.2012 30.6641L31.2988 30.8594" stroke="white"/>
<path opacity="0.235294" d="M20.6543 31.25L20.5566 31.4453" stroke="white"/>
<path opacity="0.235294" d="M29.3457 31.25L29.4434 31.4453" stroke="white"/>
<path opacity="0.235294" d="M18.1152 31.4453L18.0176 31.6406" stroke="white"/>
<path opacity="0.235294" d="M31.8848 31.4453L31.9824 31.6406" stroke="white"/>
<path opacity="0.235294" d="M20.166 31.6406L19.5801 32.3242" stroke="white"/>
<path opacity="0.235294" d="M29.834 31.6406L30.3223 32.2266" stroke="white"/>
<path opacity="0.235294" d="M17.8223 31.8359L17.7246 32.0312" stroke="white"/>
<path opacity="0.235294" d="M32.1777 31.8359L32.2754 32.0312" stroke="white"/>
<path opacity="0.235294" d="M32.5684 32.4219L32.666 32.6172" stroke="white"/>
<path opacity="0.235294" d="M19.2871 32.6172L19.1895 32.8125" stroke="white"/>
<path opacity="0.235294" d="M30.7129 32.6172L30.8105 32.8125" stroke="white"/>
<path opacity="0.235294" d="M24.5605 33.0078L25.4883 33.0566L24.5605 33.1055V33.0078Z" fill="white" stroke="white"/>
<path opacity="0.235294" d="M22.7051 33.6914L22.6074 33.8867" stroke="white"/>
<path opacity="0.235294" d="M11.377 33.9844L11.3281 34.1309L11.2793 38.6719L11.2305 34.1309L11.377 33.9844Z" fill="white" stroke="white"/>
<path opacity="0.235294" d="M38.623 33.9844L38.7695 34.1309V38.623H38.6719V34.1309L38.623 33.9844Z" fill="white" stroke="white"/>
<path opacity="0.235294" d="M24.6582 34.668L25.3906 34.7168L24.6582 34.7656V34.668Z" fill="white" stroke="white"/>
<path opacity="0.235294" d="M12.9395 35.2539L12.9883 38.623H12.8906L12.9395 35.2539Z" fill="white" stroke="white"/>
<path opacity="0.235294" d="M23.3887 35.2539L23.1934 35.5469" stroke="white"/>
<path opacity="0.235294" d="M26.6113 35.2539L26.8066 35.5469" stroke="white"/>
<path opacity="0.235294" d="M37.0605 35.2539L37.1094 38.623H37.0117L37.0605 35.2539Z" fill="white" stroke="white"/>
<path opacity="0.235294" d="M16.1621 36.0352L16.2109 36.2793H16.1133L16.1621 36.0352Z" fill="white" stroke="white"/>
<path opacity="0.235294" d="M17.8223 36.0352L17.8711 36.2793H17.7734L17.8223 36.0352Z" fill="white" stroke="white"/>
<path opacity="0.235294" d="M32.1777 36.0352L32.2266 36.2793H32.1289L32.1777 36.0352Z" fill="white" stroke="white"/>
<path opacity="0.235294" d="M33.8379 36.0352L33.8867 36.2793H33.7891L33.8379 36.0352Z" fill="white" stroke="white"/>
<path opacity="0.235294" d="M20.9473 36.7188L20.9961 37.3535H20.8984L20.9473 36.7188Z" fill="white" stroke="white"/>
<path opacity="0.235294" d="M22.6074 36.7188L22.6562 37.3535H22.5586L22.6074 36.7188Z" fill="white" stroke="white"/>
<path opacity="0.235294" d="M27.3926 36.7188L27.4414 37.3535H27.3438L27.3926 36.7188Z" fill="white" stroke="white"/>
<path opacity="0.235294" d="M29.0527 36.8164L29.1016 37.3535H29.0039L29.0527 36.8164Z" fill="white" stroke="white"/>
<path opacity="0.235294" d="M16.1621 37.793L16.2109 38.1348H16.1133L16.1621 37.793Z" fill="white" stroke="white"/>
<path opacity="0.235294" d="M17.8223 37.793L17.8711 38.0371H17.7734L17.8223 37.793Z" fill="white" stroke="white"/>
<path opacity="0.235294" d="M32.1777 37.793L32.2266 38.0371H32.1289L32.1777 37.793Z" fill="white" stroke="white"/>
<path opacity="0.235294" d="M33.8379 37.793L33.8867 38.1348H33.7891L33.8379 37.793Z" fill="white" stroke="white"/>
<path opacity="0.235294" d="M6.68945 39.5508L6.78711 39.7461" stroke="white"/>
<path opacity="0.235294" d="M43.3105 39.5508L43.2129 39.7461" stroke="white"/>
<path opacity="0.235294" d="M7.08008 39.9414L7.17773 40.1367" stroke="white"/>
<path opacity="0.235294" d="M42.9199 39.9414L42.8223 40.1367" stroke="white"/>
<path opacity="0.235294" d="M2.00195 41.8945L2.24609 41.9434L2.00195 41.9922V41.8945Z" fill="white" stroke="white"/>
<path opacity="0.235294" d="M47.8027 41.8945L48.0469 41.9434L47.8027 41.9922V41.8945Z" fill="white" stroke="white"/>
<path opacity="0.235294" d="M0.927734 42.3828L0.830078 42.5781" stroke="white"/>
<path opacity="0.235294" d="M49.0723 42.3828L49.1699 42.5781" stroke="white"/>
<path opacity="0.235294" d="M49.3652 42.6758L49.5605 42.9688" stroke="white"/>
<path opacity="0.235294" d="M0.537109 42.7734L0.439453 42.9688" stroke="white"/>
<path opacity="0.235294" d="M20.166 43.5547L20.2148 44.3848H20.1172L20.166 43.5547Z" fill="white" stroke="white"/>
<path opacity="0.235294" d="M29.834 43.5547L29.8828 44.3848H29.7852L29.834 43.5547Z" fill="white" stroke="white"/>
<path opacity="0.235294" d="M20.3613 44.8242L20.459 45.0195" stroke="white"/>
<path opacity="0.235294" d="M29.6387 44.8242L29.541 45.0195" stroke="white"/>
<path opacity="0.235294" d="M49.9512 45.0195L50 45.2637H49.9023L49.9512 45.0195Z" fill="white" stroke="white"/>
<path opacity="0.235294" d="M38.7207 45.1172L38.7695 48.291H38.6719L38.7207 45.1172Z" fill="white" stroke="white"/>
<path opacity="0.235294" d="M45.166 45.1172L45.2148 48.1934H45.1172L45.166 45.1172Z" fill="white" stroke="white"/>
<path opacity="0.235294" d="M33.8379 45.2148L33.8867 48.291H33.7891L33.8379 45.2148Z" fill="white" stroke="white"/>
<path opacity="0.235294" d="M18.8965 45.6055L18.9941 45.8008" stroke="white"/>
<path opacity="0.235294" d="M31.1035 45.6055L31.0059 45.8008" stroke="white"/>
<path opacity="0.235294" d="M19.5801 46.2891L19.6777 46.4844" stroke="white"/>
<path opacity="0.235294" d="M30.4199 46.2891L30.3223 46.4844" stroke="white"/>
<path opacity="0.235294" d="M2.49023 46.7773L2.58789 46.9727" stroke="white"/>
<path opacity="0.235294" d="M35.498 46.7773L35.5469 48.291H35.4492L35.498 46.7773Z" fill="white" stroke="white"/>
<path opacity="0.235294" d="M37.0605 46.7773L37.1094 48.291H37.0117L37.0605 46.7773Z" fill="white" stroke="white"/>
<path opacity="0.235294" d="M41.9434 46.7773L41.9922 48.291H41.8945L41.9434 46.7773Z" fill="white" stroke="white"/>
<path opacity="0.235294" d="M47.5098 46.7773L47.4121 46.9727" stroke="white"/>
<path opacity="0.235294" d="M3.07617 47.3633L3.17383 47.5586" stroke="white"/>
<path opacity="0.235294" d="M46.9238 47.3633L46.7285 47.6562" stroke="white"/>
<path opacity="0.235294" d="M0.927734 47.4609L1.02539 47.6562" stroke="white"/>
<path opacity="0.235294" d="M49.0723 47.4609L48.9746 47.6562" stroke="white"/>
<path opacity="0.235294" d="M46.5332 47.6562L46.4355 47.8516" stroke="white"/>
<path opacity="0.235294" d="M1.2207 47.8516L1.51367 48.2422" stroke="white"/>
<path opacity="0.235294" d="M48.7793 47.8516L48.4863 48.2422" stroke="white"/>
<path opacity="0.235294" d="M1.80664 48.4375L2.09961 48.8281" stroke="white"/>
<path opacity="0.235294" d="M48.1934 48.4375L47.9004 48.8281" stroke="white"/>
<path opacity="0.235294" d="M2.39258 48.9258L2.49023 49.1211" stroke="white"/>
<path opacity="0.235294" d="M47.6074 48.9258L47.5098 49.1211" stroke="white"/>
<path opacity="0.235294" d="M4.73633 49.9023L4.98047 49.9512L4.73633 50V49.9023Z" fill="white" stroke="white"/>
<path opacity="0.235294" d="M45.0684 49.9023L45.3125 49.9512L45.0684 50V49.9023Z" fill="white" stroke="white"/>
<path opacity="0.741176" d="M7.27539 0L7.32422 8.00781L11.3281 8.05664L7.37305 8.10547L7.22656 7.95898L7.27539 0Z" fill="white" stroke="white"/>
<path opacity="0.741176" d="M20.166 0L20.2148 8.00781L24.2188 8.05664L20.2637 8.10547L20.1172 7.95898L20.166 0Z" fill="white" stroke="white"/>
<path opacity="0.741176" d="M29.834 0L29.8828 7.95898L29.7363 8.10547H25.8301V8.00781H29.7852L29.834 0Z" fill="white" stroke="white"/>
<path opacity="0.741176" d="M42.7246 0L42.7734 7.95898L42.627 8.10547H38.7207V8.00781H42.6758L42.7246 0Z" fill="white" stroke="white"/>
<path opacity="0.741176" d="M8.93555 1.5625L15.332 1.61133L8.88672 1.66016L8.83789 6.44531L8.78906 1.70898L8.93555 1.5625Z" fill="white" stroke="white"/>
<path opacity="0.741176" d="M21.8262 1.5625L28.2227 1.61133L21.8262 1.66016V1.5625Z" fill="white" stroke="white"/>
<path opacity="0.741176" d="M34.7168 1.5625H41.0645L41.2109 1.70898L41.1621 6.44531L41.1133 1.66016H34.7168V1.5625Z" fill="white" stroke="white"/>
<path opacity="0.741176" d="M10.498 3.22266L10.5469 4.78516L13.6719 4.83398L10.5957 4.88281L10.4492 4.73633L10.498 3.22266Z" fill="white" stroke="white"/>
<path opacity="0.741176" d="M23.3887 3.22266L23.4375 4.78516H26.5625V3.27148H26.6602V4.73633L26.5137 4.88281H23.4863L23.3398 4.73633L23.3887 3.22266Z" fill="white" stroke="white"/>
<path opacity="0.741176" d="M39.502 3.22266L39.5508 4.73633L39.4043 4.88281H36.377V4.78516H39.4531L39.502 3.22266Z" fill="white" stroke="white"/>
<path opacity="0.741176" d="M12.9395 8.00781L16.8945 8.05664L12.9395 8.10547V8.00781Z" fill="white" stroke="white"/>
<path opacity="0.741176" d="M33.1543 8.00781L37.1094 8.05664L33.1543 8.10547V8.00781Z" fill="white" stroke="white"/>
<path opacity="0.741176" d="M20.9473 11.3281L20.9961 21.7285H20.8984L20.9473 11.3281Z" fill="white" stroke="white"/>
<path opacity="0.741176" d="M29.0527 11.3281L29.1016 21.7285H29.0039L29.0527 11.3281Z" fill="white" stroke="white"/>
<path opacity="0.741176" d="M4.54102 12.3047L4.24805 12.6953" stroke="white"/>
<path opacity="0.741176" d="M45.459 12.3047L45.6543 12.5977" stroke="white"/>
<path opacity="0.741176" d="M4.05273 12.8906L3.95508 13.0859" stroke="white"/>
<path opacity="0.741176" d="M19.3848 12.8906L19.4336 21.7285H19.3359L19.3848 12.8906Z" fill="white" stroke="white"/>
<path opacity="0.741176" d="M30.6152 12.8906L30.6641 21.7285H30.5664L30.6152 12.8906Z" fill="white" stroke="white"/>
<path opacity="0.741176" d="M45.9473 12.8906L46.0449 13.0859" stroke="white"/>
<path opacity="0.741176" d="M5.71289 13.3789L5.41992 13.7695" stroke="white"/>
<path opacity="0.741176" d="M44.2871 13.3789L44.5801 13.7695" stroke="white"/>
<path opacity="0.741176" d="M5.22461 13.9648L5.12695 14.1602" stroke="white"/>
<path opacity="0.741176" d="M17.7246 14.5508L17.7734 16.0645H17.6758L17.7246 14.5508Z" fill="white" stroke="white"/>
<path opacity="0.741176" d="M32.2754 14.5508L32.3242 16.0645H32.2266L32.2754 14.5508Z" fill="white" stroke="white"/>
<path opacity="0.741176" d="M3.27148 14.7461L3.32031 15.0879H3.22266L3.27148 14.7461Z" fill="white" stroke="white"/>
<path opacity="0.741176" d="M7.17773 14.7461L7.08008 14.9414" stroke="white"/>
<path opacity="0.741176" d="M42.8223 14.7461L42.9199 14.9414" stroke="white"/>
<path opacity="0.741176" d="M46.7285 14.7461L46.7773 15.0879H46.6797L46.7285 14.7461Z" fill="white" stroke="white"/>
<path opacity="0.741176" d="M4.83398 14.9414L4.88281 41.8945H45.1172V14.9902H45.2148V41.9922H4.78516L4.83398 14.9414Z" fill="white" stroke="white"/>
<path opacity="0.741176" d="M6.49414 15.7227L6.54297 15.9668H6.44531L6.49414 15.7227Z" fill="white" stroke="white"/>
<path opacity="0.741176" d="M43.5059 15.7227L43.5547 15.9668H43.457L43.5059 15.7227Z" fill="white" stroke="white"/>
<path opacity="0.741176" d="M8.05664 16.1133L8.10547 38.6719L11.3281 38.7207L8.00781 38.7695L8.05664 16.1133Z" fill="white" stroke="white"/>
<path opacity="0.741176" d="M41.9434 16.1133L41.9922 38.7695L38.6719 38.7207L41.8945 38.6719L41.9434 16.1133Z" fill="white" stroke="white"/>
<path opacity="0.741176" d="M22.1191 23.3398L27.9297 23.3887L22.1191 23.4375V23.3398Z" fill="white" stroke="white"/>
<path opacity="0.741176" d="M21.3379 25.3906L21.3867 25.5371L21.1914 25.6348L21.3379 25.3906Z" fill="white" stroke="white"/>
<path opacity="0.741176" d="M28.6621 25.3906L28.8086 25.6348L28.6133 25.5371L28.6621 25.3906Z" fill="white" stroke="white"/>
<path opacity="0.741176" d="M24.1699 28.2227L24.707 28.2715L24.1699 28.3203V28.2227Z" fill="white" stroke="white"/>
<path opacity="0.741176" d="M25.3418 28.2227L25.8789 28.2715L25.3418 28.3203V28.2227Z" fill="white" stroke="white"/>
<path opacity="0.741176" d="M20.3613 29.4922L20.2637 29.6875" stroke="white"/>
<path opacity="0.741176" d="M29.6387 29.4922L29.7363 29.6875" stroke="white"/>
<path opacity="0.741176" d="M20.0684 29.6875L19.9707 29.8828" stroke="white"/>
<path opacity="0.741176" d="M29.9316 29.6875L30.0293 29.8828" stroke="white"/>
<path opacity="0.741176" d="M24.3652 29.7852L25.6836 29.834L24.3652 29.8828V29.7852Z" fill="white" stroke="white"/>
<path opacity="0.741176" d="M19.7754 29.8828L19.6777 30.0781" stroke="white"/>
<path opacity="0.741176" d="M19.2871 30.2734L18.8965 30.7617" stroke="white"/>
<path opacity="0.741176" d="M30.7129 30.2734L31.1035 30.7617" stroke="white"/>
<path opacity="0.741176" d="M18.6035 30.957L18.2129 31.4453" stroke="white"/>
<path opacity="0.741176" d="M31.3965 30.957L31.7871 31.4453" stroke="white"/>
<path opacity="0.741176" d="M29.541 31.3477L29.7363 31.6406" stroke="white"/>
<path opacity="0.741176" d="M20.3613 31.4453L20.2637 31.6406" stroke="white"/>
<path opacity="0.741176" d="M31.9824 31.6406L32.0801 31.8359" stroke="white"/>
<path opacity="0.741176" d="M17.7246 32.0312L17.627 32.2266" stroke="white"/>
<path opacity="0.741176" d="M32.2754 32.0312L32.373 32.2266" stroke="white"/>
<path opacity="0.741176" d="M30.4199 32.2266L30.6152 32.5195" stroke="white"/>
<path opacity="0.741176" d="M17.5293 32.3242L17.4316 32.5195" stroke="white"/>
<path opacity="0.741176" d="M19.4824 32.3242L19.3848 32.5195" stroke="white"/>
<path opacity="0.741176" d="M24.1699 33.1055L24.4141 33.1543L24.1699 33.2031V33.1055Z" fill="white" stroke="white"/>
<path opacity="0.741176" d="M25.6348 33.1055L25.8789 33.1543L25.6348 33.2031V33.1055Z" fill="white" stroke="white"/>
<path opacity="0.741176" d="M22.5098 33.8867L21.8262 34.668" stroke="white"/>
<path opacity="0.741176" d="M27.4902 33.8867L28.1738 34.668" stroke="white"/>
<path opacity="0.741176" d="M23.584 35.0586L23.4863 35.2539" stroke="white"/>
<path opacity="0.741176" d="M26.416 35.0586L26.5137 35.2539" stroke="white"/>
<path opacity="0.741176" d="M16.2598 35.5469L16.3086 35.791H16.2109L16.2598 35.5469Z" fill="white" stroke="white"/>
<path opacity="0.741176" d="M23.0957 35.5469L22.998 35.7422" stroke="white"/>
<path opacity="0.741176" d="M26.9043 35.5469L27.002 35.7422" stroke="white"/>
<path opacity="0.741176" d="M33.7402 35.5469L33.7891 35.791H33.6914L33.7402 35.5469Z" fill="white" stroke="white"/>
<path opacity="0.741176" d="M16.1621 36.3281L16.2109 37.7441H16.1133L16.1621 36.3281Z" fill="white" stroke="white"/>
<path opacity="0.741176" d="M33.8379 36.3281L33.8867 37.7441H33.7891L33.8379 36.3281Z" fill="white" stroke="white"/>
<path opacity="0.741176" d="M17.7246 36.6211L17.7734 37.5488H17.6758L17.7246 36.6211Z" fill="white" stroke="white"/>
<path opacity="0.741176" d="M32.2754 36.6211L32.3242 37.4512H32.2266L32.2754 36.6211Z" fill="white" stroke="white"/>
<path opacity="0.741176" d="M21.0449 37.5977L21.0938 37.8418H20.9961L21.0449 37.5977Z" fill="white" stroke="white"/>
<path opacity="0.741176" d="M28.9551 37.5977L29.0039 37.8418H28.9062L28.9551 37.5977Z" fill="white" stroke="white"/>
<path opacity="0.741176" d="M22.9004 38.2812L22.998 38.4766" stroke="white"/>
<path opacity="0.741176" d="M27.0996 38.2812L27.002 38.4766" stroke="white"/>
<path opacity="0.741176" d="M17.9199 38.5742L18.0176 38.6719L21.2891 38.7207L18.0176 38.7695L17.9199 38.5742Z" fill="white" stroke="white"/>
<path opacity="0.741176" d="M32.0801 38.5742L31.9824 38.7695L28.7109 38.7207L31.9824 38.6719L32.0801 38.5742Z" fill="white" stroke="white"/>
<path opacity="0.741176" d="M12.9395 38.6719L16.3086 38.7207L12.9395 38.7695V38.6719Z" fill="white" stroke="white"/>
<path opacity="0.741176" d="M23.1934 38.6719L26.8555 38.7207L23.1934 38.7695V38.6719Z" fill="white" stroke="white"/>
<path opacity="0.741176" d="M33.7402 38.6719L37.1094 38.7207L33.7402 38.7695V38.6719Z" fill="white" stroke="white"/>
<path opacity="0.741176" d="M6.88477 39.7461L6.98242 39.9414" stroke="white"/>
<path opacity="0.741176" d="M43.1152 39.7461L43.0176 39.9414" stroke="white"/>
<path opacity="0.741176" d="M7.76367 40.2344L8.00781 40.2832L7.76367 40.332V40.2344Z" fill="white" stroke="white"/>
<path opacity="0.741176" d="M42.041 40.2344L42.2852 40.2832L42.041 40.332V40.2344Z" fill="white" stroke="white"/>
<path opacity="0.741176" d="M2.29492 41.8945L3.22266 41.9434L2.29492 41.9922V41.8945Z" fill="white" stroke="white"/>
<path opacity="0.741176" d="M46.8262 41.8945L47.7539 41.9434L46.8262 41.9922V41.8945Z" fill="white" stroke="white"/>
<path opacity="0.741176" d="M0.732422 42.5781L0.634766 42.7734" stroke="white"/>
<path opacity="0.741176" d="M1.9043 43.6523L1.80664 43.8477" stroke="white"/>
<path opacity="0.741176" d="M48.0957 43.6523L48.1934 43.8477" stroke="white"/>
<path opacity="0.741176" d="M0.0488281 43.8477L0.0976562 44.0918H0L0.0488281 43.8477Z" fill="white" stroke="white"/>
<path opacity="0.741176" d="M49.9512 43.8477L50 44.0918H49.9023L49.9512 43.8477Z" fill="white" stroke="white"/>
<path opacity="0.741176" d="M1.61133 44.1406L1.66016 44.7754H1.5625L1.61133 44.1406Z" fill="white" stroke="white"/>
<path opacity="0.741176" d="M48.3887 44.1406L48.4375 44.7754H48.3398L48.3887 44.1406Z" fill="white" stroke="white"/>
<path opacity="0.741176" d="M0.0488281 44.6289L0.0976562 45.0684H0L0.0488281 44.6289Z" fill="white" stroke="white"/>
<path opacity="0.741176" d="M49.9512 44.7266L50 44.9707H49.9023L49.9512 44.7266Z" fill="white" stroke="white"/>
<path opacity="0.741176" d="M20.8496 45.1172L29.1992 45.166L20.8496 45.2148V45.1172Z" fill="white" stroke="white"/>
<path opacity="0.741176" d="M33.9355 45.1172L38.6719 45.166L33.9355 45.2148V45.1172Z" fill="white" stroke="white"/>
<path opacity="0.741176" d="M40.3809 45.1172L45.1172 45.166L40.3809 45.2148V45.1172Z" fill="white" stroke="white"/>
<path opacity="0.741176" d="M19.0918 45.8008L19.1895 45.9961" stroke="white"/>
<path opacity="0.741176" d="M30.9082 45.8008L30.5176 46.2891" stroke="white"/>
<path opacity="0.741176" d="M19.3848 46.0938L19.4824 46.2891" stroke="white"/>
<path opacity="0.741176" d="M2.09961 46.2891L2.19727 46.4844" stroke="white"/>
<path opacity="0.741176" d="M47.9004 46.2891L47.8027 46.4844" stroke="white"/>
<path opacity="0.741176" d="M2.29492 46.582L2.39258 46.7773" stroke="white"/>
<path opacity="0.741176" d="M47.7051 46.582L47.6074 46.7773" stroke="white"/>
<path opacity="0.741176" d="M20.5566 46.6797L20.8008 46.7285L20.5566 46.7773V46.6797Z" fill="white" stroke="white"/>
<path opacity="0.741176" d="M29.248 46.6797L29.4922 46.7285L29.248 46.7773V46.6797Z" fill="white" stroke="white"/>
<path opacity="0.741176" d="M2.58789 46.9727L2.97852 47.4609" stroke="white"/>
<path opacity="0.741176" d="M47.4121 46.9727L47.0215 47.4609" stroke="white"/>
<path opacity="0.741176" d="M3.27148 47.5586L3.36914 47.7539" stroke="white"/>
<path opacity="0.741176" d="M1.12305 47.6562L1.2207 47.8516" stroke="white"/>
<path opacity="0.741176" d="M48.877 47.6562L48.7793 47.8516" stroke="white"/>
<path opacity="0.741176" d="M3.56445 47.7539L3.66211 47.9492" stroke="white"/>
<path opacity="0.741176" d="M1.61133 48.2422L1.70898 48.4375" stroke="white"/>
<path opacity="0.741176" d="M45.166 48.2422L45.4102 48.291L45.166 48.3398V48.2422Z" fill="white" stroke="white"/>
<path opacity="0.741176" d="M48.3887 48.2422L48.291 48.4375" stroke="white"/>
<path opacity="0.741176" d="M5.22461 48.3398L33.8867 48.3887L5.22461 48.4375V48.3398Z" fill="white" stroke="white"/>
<path opacity="0.741176" d="M35.498 48.3398L37.1094 48.3887L35.498 48.4375V48.3398Z" fill="white" stroke="white"/>
<path opacity="0.741176" d="M38.7207 48.3398L40.332 48.3887L38.7207 48.4375V48.3398Z" fill="white" stroke="white"/>
<path opacity="0.741176" d="M41.9434 48.3398L43.5547 48.3887L41.9434 48.4375V48.3398Z" fill="white" stroke="white"/>
<path opacity="0.741176" d="M2.19727 48.7305L2.29492 48.9258" stroke="white"/>
<path opacity="0.741176" d="M47.8027 48.7305L47.7051 48.9258" stroke="white"/>
<path opacity="0.741176" d="M5.0293 49.9023L5.27344 49.9512L5.0293 50V49.9023Z" fill="white" stroke="white"/>
<path opacity="0.741176" d="M44.7754 49.9023L45.0195 49.9512L44.7754 50V49.9023Z" fill="white" stroke="white"/>
<path opacity="0.996078" d="M21.7285 1.5625L21.7773 6.44531H28.2227V1.61133H28.3203V6.39648L28.1738 6.54297H21.8262L21.6797 6.39648L21.7285 1.5625Z" fill="white" stroke="white"/>
<path opacity="0.996078" d="M10.5957 3.22266L13.6719 3.27148L10.5957 3.32031V3.22266Z" fill="white" stroke="white"/>
<path opacity="0.996078" d="M23.4863 3.22266L26.5625 3.27148L23.4863 3.32031V3.22266Z" fill="white" stroke="white"/>
<path opacity="0.996078" d="M36.377 3.22266L39.4531 3.27148L36.377 3.32031V3.22266Z" fill="white" stroke="white"/>
<path opacity="0.996078" d="M8.83789 6.44531L15.332 6.49414L8.83789 6.54297V6.44531Z" fill="white" stroke="white"/>
<path opacity="0.996078" d="M34.7168 6.44531L41.2109 6.49414L34.7168 6.54297V6.44531Z" fill="white" stroke="white"/>
<path opacity="0.996078" d="M4.83398 12.1094L4.73633 12.3047" stroke="white"/>
<path opacity="0.996078" d="M45.166 12.1094L45.2637 12.3047" stroke="white"/>
<path opacity="0.996078" d="M45.752 12.6953L45.8496 12.8906" stroke="white"/>
<path opacity="0.996078" d="M5.32227 13.7695L5.22461 13.9648" stroke="white"/>
<path opacity="0.996078" d="M44.6777 13.7695L44.7754 13.9648" stroke="white"/>
<path opacity="0.996078" d="M6.98242 14.9414L6.88477 15.1367" stroke="white"/>
<path opacity="0.996078" d="M43.0176 14.9414L43.1152 15.1367" stroke="white"/>
<path opacity="0.996078" d="M3.27148 15.1367L3.32031 41.9434H3.22266L3.27148 15.1367Z" fill="white" stroke="white"/>
<path opacity="0.996078" d="M46.7285 15.1367L46.7773 41.9434H46.6797L46.7285 15.1367Z" fill="white" stroke="white"/>
<path opacity="0.996078" d="M6.49414 16.0156L6.54297 38.8184H6.44531L6.49414 16.0156Z" fill="white" stroke="white"/>
<path opacity="0.996078" d="M43.5059 16.0156L43.5547 38.8184H43.457L43.5059 16.0156Z" fill="white" stroke="white"/>
<path opacity="0.996078" d="M19.4824 21.6797L20.8984 21.7285L19.4824 21.7773V21.6797Z" fill="white" stroke="white"/>
<path opacity="0.996078" d="M24.2676 21.6797L25.7812 21.7285L24.2676 21.7773V21.6797Z" fill="white" stroke="white"/>
<path opacity="0.996078" d="M29.1504 21.6797L30.5664 21.7285L29.1504 21.7773V21.6797Z" fill="white" stroke="white"/>
<path opacity="0.996078" d="M17.4316 25.293L13.2324 29.5898" stroke="white"/>
<path opacity="0.996078" d="M32.5684 25.293L36.7676 29.5898" stroke="white"/>
<path opacity="0.996078" d="M17.627 27.2461L15.1855 29.7852" stroke="white"/>
<path opacity="0.996078" d="M32.373 27.2461L34.8145 29.7852" stroke="white"/>
<path opacity="0.996078" d="M24.7559 28.2227L25.293 28.2715L24.7559 28.3203V28.2227Z" fill="white" stroke="white"/>
<path opacity="0.996078" d="M19.5801 30.0781L19.4824 30.2734" stroke="white"/>
<path opacity="0.996078" d="M30.4199 30.0781L30.5176 30.2734" stroke="white"/>
<path opacity="0.996078" d="M18.7988 30.7617L18.7012 30.957" stroke="white"/>
<path opacity="0.996078" d="M31.2012 30.7617L31.2988 30.957" stroke="white"/>
<path opacity="0.996078" d="M20.9473 30.957L20.8496 31.1523" stroke="white"/>
<path opacity="0.996078" d="M29.0527 30.957L29.1504 31.1523" stroke="white"/>
<path opacity="0.996078" d="M20.5566 31.25L20.459 31.4453" stroke="white"/>
<path opacity="0.996078" d="M18.1152 31.543L18.0176 31.7383" stroke="white"/>
<path opacity="0.996078" d="M20.0684 31.6406L19.5801 32.2266" stroke="white"/>
<path opacity="0.996078" d="M29.9316 31.6406L30.4199 32.2266" stroke="white"/>
<path opacity="0.996078" d="M19.2871 32.5195L19.1895 32.7148" stroke="white"/>
<path opacity="0.996078" d="M30.7129 32.5195L30.8105 32.7148" stroke="white"/>
<path opacity="0.996078" d="M18.9941 32.9102L18.8965 33.1055" stroke="white"/>
<path opacity="0.996078" d="M22.7051 33.7891L22.6074 33.9844" stroke="white"/>
<path opacity="0.996078" d="M27.2949 33.7891L27.3926 33.9844" stroke="white"/>
<path opacity="0.996078" d="M21.8262 34.668L21.7285 34.8633" stroke="white"/>
<path opacity="0.996078" d="M28.1738 34.668L28.2715 34.8633" stroke="white"/>
<path opacity="0.996078" d="M23.291 35.2539L23.1934 35.4492" stroke="white"/>
<path opacity="0.996078" d="M26.709 35.2539L26.8066 35.4492" stroke="white"/>
<path opacity="0.996078" d="M22.998 38.4766L23.0957 38.6719" stroke="white"/>
<path opacity="0.996078" d="M27.002 38.4766L26.9043 38.6719" stroke="white"/>
<path opacity="0.996078" d="M8.05664 40.2344L41.9922 40.2832L8.05664 40.332V40.2344Z" fill="white" stroke="white"/>
<path opacity="0.996078" d="M1.02539 42.3828L0.927734 42.5781" stroke="white"/>
<path opacity="0.996078" d="M48.9746 42.3828L49.0723 42.5781" stroke="white"/>
<path opacity="0.996078" d="M49.3652 42.7734L49.4629 42.9688" stroke="white"/>
<path opacity="0.996078" d="M2.39258 43.457L18.5547 43.5059L2.39258 43.5547V43.457Z" fill="white" stroke="white"/>
<path opacity="0.996078" d="M20.166 43.457L29.8828 43.5059L20.166 43.5547V43.457Z" fill="white" stroke="white"/>
<path opacity="0.996078" d="M31.4941 43.457L47.6562 43.5059L31.4941 43.5547V43.457Z" fill="white" stroke="white"/>
<path opacity="0.996078" d="M0.0488281 44.1406L0.0976562 44.5801H0L0.0488281 44.1406Z" fill="white" stroke="white"/>
<path opacity="0.996078" d="M49.9512 44.1406L50 44.6777H49.9023L49.9512 44.1406Z" fill="white" stroke="white"/>
<path opacity="0.996078" d="M2.39258 46.7773L2.49023 46.9727" stroke="white"/>
<path opacity="0.996078" d="M47.6074 46.7773L47.5098 46.9727" stroke="white"/>
<path opacity="0.996078" d="M3.07617 47.4609L3.17383 47.6562" stroke="white"/>
<path opacity="0.996078" d="M46.9238 47.4609L46.8262 47.6562" stroke="white"/>
<path opacity="0.996078" d="M1.31836 47.8516L1.51367 48.1445" stroke="white"/>
<path opacity="0.996078" d="M48.6816 47.8516L48.4863 48.1445" stroke="white"/>
<path opacity="0.996078" d="M1.9043 48.4375L2.09961 48.7305" stroke="white"/>
<path opacity="0.996078" d="M48.0957 48.4375L47.9004 48.7305" stroke="white"/>
<path opacity="0.996078" d="M5.32227 49.9023L5.56641 49.9512L5.32227 50V49.9023Z" fill="white" stroke="white"/>
<path opacity="0.996078" d="M44.4824 49.9023L44.7266 49.9512L44.4824 50V49.9023Z" fill="white" stroke="white"/>
<path d="M7.32422 0H16.8945V8.00781H12.8906V11.3281H20.8984V21.6797H19.4824L19.4336 21.6309V12.8906H11.3281V8.00781H7.32422V0ZM8.78906 1.5625V6.54297H15.332V1.5625H8.78906Z" fill="white" stroke="white"/>
<path d="M20.2148 0H29.7852V8.00781H25.7812V21.6309L25.7324 21.6797H24.2188V8.05664L24.1699 8.00781H20.2148V0ZM21.6797 1.5625V6.44531L21.875 6.54297H28.2227L28.3203 6.44531V1.5625H21.6797Z" fill="white" stroke="white"/>
<path d="M33.1055 0H42.6758V8.00781H38.6719V12.8906H30.5664V21.6309L30.5176 21.6797H29.1016V11.3281H37.1094V8.00781H33.1055V0ZM34.668 1.5625V6.54297H41.2109V1.5625H34.668Z" fill="white" stroke="white"/>
<path d="M10.5469 3.32031H13.6719V4.78516H10.5469V3.32031Z" fill="white" stroke="white"/>
<path d="M23.4375 3.32031H26.5625V4.78516H23.4375V3.32031Z" fill="white" stroke="white"/>
<path d="M36.3281 3.32031H39.4531V4.78516H36.3281V3.32031Z" fill="white" stroke="white"/>
<path d="M6.78711 11.3281H9.66797V12.8906H6.68945C6.02539 13.0729 5.52083 13.4147 5.17578 13.916L4.78516 14.8926V41.9922H45.2148V14.8926C45.0586 14.1699 44.7168 13.6328 44.1895 13.2812L43.3105 12.8906H40.332V11.3281H43.2129C44.2936 11.5169 45.1237 11.9564 45.7031 12.6465C46.1654 13.1283 46.4909 13.7467 46.6797 14.502V41.9922H47.998C48.5579 42.1159 48.9974 42.36 49.3164 42.7246C49.8763 43.2064 50.0716 44.0527 49.9023 45.2637C49.6224 46.6113 49.0527 47.6693 48.1934 48.4375C47.679 48.9323 47.0605 49.3229 46.3379 49.6094L44.3848 50H5.61523L3.66211 49.6094C2.82227 49.2773 2.1224 48.8053 1.5625 48.1934C1.06771 47.679 0.677083 47.0605 0.390625 46.3379L0.0976562 45.2637V43.7988C0.247396 43.2975 0.491536 42.8906 0.830078 42.5781C1.35091 42.0378 2.18099 41.8424 3.32031 41.9922V14.502C3.5612 13.571 4.00065 12.8385 4.63867 12.3047C5.17253 11.7969 5.88867 11.4714 6.78711 11.3281ZM2.44141 43.457L2.05078 43.5547L1.5625 44.1406C1.5625 45.3125 1.82292 46.224 2.34375 46.875C2.92969 47.7214 3.8737 48.2422 5.17578 48.4375H33.8867V45.2148H38.6719V48.4375H40.332V45.2148H45.1172V48.3398L45.8008 48.2422L46.875 47.6562C47.6562 47.0703 48.1771 46.1914 48.4375 45.0195C48.5677 44.4987 48.5352 44.1406 48.3398 43.9453L48.0469 43.5547L47.6562 43.457H31.4453L31.3477 45.0195L30.957 45.8008L30.1758 46.4844L29.0039 46.7773H21.0938L20.1172 46.582L19.6289 46.2891L18.8477 45.5078L18.5547 44.4336V43.5547V43.457H2.44141ZM20.1172 43.457V44.6289L20.3125 45.0195L20.8008 45.2148H29.2969L29.6875 45.0195L29.8828 44.6289V43.5547V43.457H20.1172ZM35.4492 46.7773V48.4375H37.1094V46.7773H35.4492ZM41.8945 46.7773V48.4375H43.5547V46.7773H41.8945Z" fill="white" stroke="white"/>
<path d="M7.86133 14.5508H17.627L17.6758 14.5996V16.1133H8.00781V38.7695H11.3281V34.1309L11.5723 34.082L13.5742 33.3496L14.2578 31.6895V31.3965L13.2812 29.541L17.5293 25.3906L19.5801 26.3672L21.3867 25.5371L21.9727 23.584L22.1191 23.4375H27.9785L28.0273 23.7793L28.7598 25.6836L30.6152 26.3672L32.5684 25.3906L36.7188 29.6387L35.7422 31.6895L36.5723 33.4961L38.6719 34.082V38.7695H41.9922V16.1133H32.373L32.3242 16.0645V14.5508H42.1387C42.679 14.6289 43.0534 14.873 43.2617 15.2832L43.457 15.6738V39.1113L42.9199 39.9414L42.334 40.2344H7.66602L6.83594 39.6973L6.54297 39.1113V15.6738L7.17773 14.8438L7.86133 14.5508ZM23.0469 25L22.5586 26.8555L20.5078 27.5391L19.7266 28.0273H19.4336L17.9688 27.2461H17.6758L15.1367 29.7852V30.0781L16.0156 31.6406C15.4297 32.487 15.0065 33.4961 14.7461 34.668L12.8906 35.1562V38.7695H16.3086L16.2109 38.2812V36.0352L16.5039 34.668C16.8945 33.431 17.4479 32.3893 18.1641 31.543C19.4661 29.8503 21.3542 28.776 23.8281 28.3203H26.2695L27.2461 28.5156C28.5482 28.9062 29.6875 29.4922 30.6641 30.2734C32.2917 31.5755 33.3333 33.4961 33.7891 36.0352V38.2812L33.6914 38.7695H37.1094V35.1562L35.2539 34.668C34.9935 33.4961 34.5703 32.487 33.9844 31.6406L34.8633 30.0781V29.7852L32.4219 27.2461H32.1289L30.5664 28.125C29.6549 27.474 28.6133 27.0508 27.4414 26.8555L26.9531 25.3906V25H23.0469ZM24.3164 29.7852L22.8516 30.0781L22.0703 30.3711L20.1172 31.6406C19.3359 32.2917 18.7174 33.138 18.2617 34.1797L17.8711 35.3516L17.7734 36.4258L17.6758 36.5234V37.6953L17.8711 38.4766L17.9688 38.7695H21.3867L20.9961 37.5L21.0938 36.2305L21.875 34.668C22.4609 33.8216 23.3724 33.3008 24.6094 33.1055L25.9766 33.2031L27.5391 33.9844L28.418 35.0586L28.9062 36.2305C28.8411 36.4909 28.8737 36.6862 29.0039 36.8164C29.0039 37.5977 28.8737 38.2487 28.6133 38.7695H32.1289L32.3242 37.6953C32.3893 36.3932 32.2266 35.319 31.8359 34.4727C31.5104 33.5612 31.0547 32.8125 30.4688 32.2266C29.6875 31.3151 28.7109 30.6315 27.5391 30.1758L25.7812 29.7852H24.3164ZM24.4141 34.668L23.3398 35.2539C22.9492 35.5794 22.6888 36.0026 22.5586 36.5234C22.4284 37.4349 22.5586 38.1185 22.9492 38.5742L23.2422 38.7695H26.8555L27.4414 37.6953C27.5716 36.5885 27.3763 35.8398 26.8555 35.4492C26.5299 35.0586 26.1393 34.7982 25.6836 34.668H24.4141Z" fill="white" stroke="white"/>
</g>
<defs>
<clipPath id="clip0_61_2810">
<rect width="50" height="50" fill="white"/>
</clipPath>
</defs>
</svg>
