<svg width="50" height="50" viewBox="0 0 50 50" fill="none" xmlns="http://www.w3.org/2000/svg">
<g clip-path="url(#clip0_60_85)">
<path opacity="0.478431" d="M23.3887 0L23.6328 0.0488281L23.3887 0.0976562V0Z" fill="white" stroke="white" stroke-width="0.0976562"/>
<path opacity="0.478431" d="M23.0957 0.0976562L22.9004 0.390625" stroke="white" stroke-width="0.0976562"/>
<path opacity="0.478431" d="M23.877 0.0976562L27.0996 3.41797" stroke="white" stroke-width="0.0976562"/>
<path opacity="0.478431" d="M22.9004 1.17188L24.6094 2.88086V3.02734L23.8281 2.97852L24.5117 2.88086L22.9004 1.17188Z" fill="white" stroke="white" stroke-width="0.0976562"/>
<path opacity="0.478431" d="M22.7051 3.02734L23.0469 3.07617L22.7051 3.125V3.02734Z" fill="white" stroke="white" stroke-width="0.0976562"/>
<path opacity="0.478431" d="M21.9238 3.125L22.168 3.17383L21.9238 3.22266V3.125Z" fill="white" stroke="white" stroke-width="0.0976562"/>
<path opacity="0.478431" d="M21.2402 3.22266L21.4844 3.27148L21.2402 3.32031V3.22266Z" fill="white" stroke="white" stroke-width="0.0976562"/>
<path opacity="0.478431" d="M29.541 3.41797L29.7852 3.4668L29.541 3.51562V3.41797Z" fill="white" stroke="white" stroke-width="0.0976562"/>
<path opacity="0.478431" d="M27.1973 3.61328L27.2461 3.85742H27.1484L27.1973 3.61328Z" fill="white" stroke="white" stroke-width="0.0976562"/>
<path opacity="0.478431" d="M27.002 4.19922L23.9746 7.32422" stroke="white" stroke-width="0.0976562"/>
<path opacity="0.478431" d="M24.0723 4.39453L24.707 4.44336L24.0723 4.49219V4.39453Z" fill="white" stroke="white" stroke-width="0.0976562"/>
<path opacity="0.478431" d="M22.8027 4.49219L23.2422 4.54102L22.8027 4.58984V4.49219Z" fill="white" stroke="white" stroke-width="0.0976562"/>
<path opacity="0.478431" d="M22.0215 4.58984L22.3633 4.63867L22.0215 4.6875V4.58984Z" fill="white" stroke="white" stroke-width="0.0976562"/>
<path opacity="0.478431" d="M21.4355 4.6875L21.6797 4.73633L21.4355 4.78516V4.6875Z" fill="white" stroke="white" stroke-width="0.0976562"/>
<path opacity="0.478431" d="M13.623 6.05469L13.5254 6.25" stroke="white" stroke-width="0.0976562"/>
<path opacity="0.478431" d="M12.5488 6.73828L12.4512 6.93359" stroke="white" stroke-width="0.0976562"/>
<path opacity="0.478431" d="M37.9395 7.12891L38.0371 7.32422" stroke="white" stroke-width="0.0976562"/>
<path opacity="0.478431" d="M11.8652 7.22656L11.7676 7.42188" stroke="white" stroke-width="0.0976562"/>
<path opacity="0.478431" d="M38.3301 7.42188L38.4277 7.61719" stroke="white" stroke-width="0.0976562"/>
<path opacity="0.478431" d="M35.8887 7.51953L35.9863 7.71484" stroke="white" stroke-width="0.0976562"/>
<path opacity="0.478431" d="M11.377 7.61719L11.2793 7.8125" stroke="white" stroke-width="0.0976562"/>
<path opacity="0.478431" d="M36.1816 7.71484L36.2793 7.91016" stroke="white" stroke-width="0.0976562"/>
<path opacity="0.478431" d="M38.8184 7.8125L38.916 8.00781" stroke="white" stroke-width="0.0976562"/>
<path opacity="0.478431" d="M36.4746 7.91016L36.5723 8.10547" stroke="white" stroke-width="0.0976562"/>
<path opacity="0.478431" d="M10.8887 8.00781L10.6934 8.30078" stroke="white" stroke-width="0.0976562"/>
<path opacity="0.478431" d="M13.2324 8.10547L13.1348 8.30078" stroke="white" stroke-width="0.0976562"/>
<path opacity="0.478431" d="M39.3066 8.20312L39.5996 8.59375" stroke="white" stroke-width="0.0976562"/>
<path opacity="0.478431" d="M12.9395 8.30078L12.8418 8.49609" stroke="white" stroke-width="0.0976562"/>
<path opacity="0.478431" d="M37.1582 8.39844L37.2559 8.59375" stroke="white" stroke-width="0.0976562"/>
<path opacity="0.478431" d="M10.3027 8.49609L8.64258 10.2539" stroke="white" stroke-width="0.0976562"/>
<path opacity="0.478431" d="M15.7715 8.49609L34.2773 8.54492L15.7715 8.59375V8.49609Z" fill="white" stroke="white" stroke-width="0.0976562"/>
<path opacity="0.478431" d="M12.5488 8.59375L12.4512 8.78906" stroke="white" stroke-width="0.0976562"/>
<path opacity="0.478431" d="M37.5488 8.69141L37.7441 8.98438" stroke="white" stroke-width="0.0976562"/>
<path opacity="0.478431" d="M35.2051 8.88672L35.3027 9.08203" stroke="white" stroke-width="0.0976562"/>
<path opacity="0.478431" d="M12.0605 8.98438L11.8652 9.27734" stroke="white" stroke-width="0.0976562"/>
<path opacity="0.478431" d="M14.502 9.08203L14.209 9.47266" stroke="white" stroke-width="0.0976562"/>
<path opacity="0.478431" d="M38.0371 9.08203L38.3301 9.47266" stroke="white" stroke-width="0.0976562"/>
<path opacity="0.478431" d="M11.4746 9.47266L11.1816 9.86328" stroke="white" stroke-width="0.0976562"/>
<path opacity="0.478431" d="M38.8184 9.76562L40.0879 11.1328" stroke="white" stroke-width="0.0976562"/>
<path opacity="0.478431" d="M15.9668 9.96094L34.082 10.0098L15.9668 10.0586V9.96094Z" fill="white" stroke="white" stroke-width="0.0976562"/>
<path opacity="0.478431" d="M34.4238 10.1562L34.7168 10.5469" stroke="white" stroke-width="0.0976562"/>
<path opacity="0.478431" d="M41.4551 10.3516L41.6504 10.6445" stroke="white" stroke-width="0.0976562"/>
<path opacity="0.478431" d="M8.25195 10.6445L8.05664 10.9375" stroke="white" stroke-width="0.0976562"/>
<path opacity="0.478431" d="M13.623 10.6445L13.6719 11.4746H13.5742L13.623 10.6445Z" fill="white" stroke="white" stroke-width="0.0976562"/>
<path opacity="0.478431" d="M15.0879 10.8398L15.1367 11.2793H15.0391L15.0879 10.8398Z" fill="white" stroke="white" stroke-width="0.0976562"/>
<path opacity="0.478431" d="M42.041 11.0352L42.1387 11.2305" stroke="white" stroke-width="0.0976562"/>
<path opacity="0.478431" d="M7.76367 11.2305L7.66602 11.4258" stroke="white" stroke-width="0.0976562"/>
<path opacity="0.478431" d="M9.7168 11.2305L9.42383 11.6211" stroke="white" stroke-width="0.0976562"/>
<path opacity="0.478431" d="M40.4785 11.5234L40.6738 11.8164" stroke="white" stroke-width="0.0976562"/>
<path opacity="0.478431" d="M42.4316 11.5234L42.5293 11.7188" stroke="white" stroke-width="0.0976562"/>
<path opacity="0.478431" d="M34.7168 11.6211L34.4238 12.0117" stroke="white" stroke-width="0.0976562"/>
<path opacity="0.478431" d="M7.37305 11.7188L7.27539 11.9141" stroke="white" stroke-width="0.0976562"/>
<path opacity="0.478431" d="M42.7246 11.9141L42.8223 12.1094" stroke="white" stroke-width="0.0976562"/>
<path opacity="0.478431" d="M9.0332 12.0117L8.93555 12.207" stroke="white" stroke-width="0.0976562"/>
<path opacity="0.478431" d="M15.9668 12.1094L33.9844 12.1582L15.9668 12.207V12.1094Z" fill="white" stroke="white" stroke-width="0.0976562"/>
<path opacity="0.478431" d="M40.9668 12.1094L41.1621 12.4023" stroke="white" stroke-width="0.0976562"/>
<path opacity="0.478431" d="M42.9199 12.207L43.0176 12.4023" stroke="white" stroke-width="0.0976562"/>
<path opacity="0.478431" d="M6.88477 12.4023L6.78711 12.5977" stroke="white" stroke-width="0.0976562"/>
<path opacity="0.478431" d="M8.64258 12.5L8.54492 12.6953" stroke="white" stroke-width="0.0976562"/>
<path opacity="0.478431" d="M35.8887 12.5L35.791 12.6953" stroke="white" stroke-width="0.0976562"/>
<path opacity="0.478431" d="M41.3574 12.5977L41.4551 12.793" stroke="white" stroke-width="0.0976562"/>
<path opacity="0.478431" d="M6.68945 12.6953L6.5918 12.8906" stroke="white" stroke-width="0.0976562"/>
<path opacity="0.478431" d="M14.209 12.6953L14.4043 12.9883" stroke="white" stroke-width="0.0976562"/>
<path opacity="0.478431" d="M35.4004 12.9883L35.3027 13.1836" stroke="white" stroke-width="0.0976562"/>
<path opacity="0.478431" d="M8.1543 13.1836L8.05664 13.3789" stroke="white" stroke-width="0.0976562"/>
<path opacity="0.478431" d="M41.8457 13.2812L41.9434 13.4766" stroke="white" stroke-width="0.0976562"/>
<path opacity="0.478431" d="M15.1855 13.3789L15.332 13.5254V15.6738H15.2344V13.5254L15.1855 13.3789Z" fill="white" stroke="white" stroke-width="0.0976562"/>
<path opacity="0.478431" d="M43.7012 13.3789L43.7988 13.5742" stroke="white" stroke-width="0.0976562"/>
<path opacity="0.478431" d="M16.8457 13.5742L33.2031 13.623L16.7969 13.6719L16.748 15.625L16.6992 13.7207L16.8457 13.5742Z" fill="white" stroke="white" stroke-width="0.0976562"/>
<path opacity="0.478431" d="M42.041 13.5742L42.1387 13.7695" stroke="white" stroke-width="0.0976562"/>
<path opacity="0.478431" d="M42.2363 13.8672L42.334 14.0625" stroke="white" stroke-width="0.0976562"/>
<path opacity="0.478431" d="M7.56836 14.0625L7.4707 14.2578" stroke="white" stroke-width="0.0976562"/>
<path opacity="0.478431" d="M7.27539 14.5508L7.17773 14.7461" stroke="white" stroke-width="0.0976562"/>
<path opacity="0.478431" d="M19.873 14.7461L30.1758 14.7949L19.873 14.8438V14.7461Z" fill="white" stroke="white" stroke-width="0.0976562"/>
<path opacity="0.478431" d="M30.3223 14.8438L30.5176 15.1367" stroke="white" stroke-width="0.0976562"/>
<path opacity="0.478431" d="M30.6152 15.7227L30.6641 16.1621H30.5664L30.6152 15.7227Z" fill="white" stroke="white" stroke-width="0.0976562"/>
<path opacity="0.478431" d="M33.1543 15.7227L33.2031 16.0645H33.1055L33.1543 15.7227Z" fill="white" stroke="white" stroke-width="0.0976562"/>
<path opacity="0.478431" d="M34.6191 15.8203L34.668 16.1621H34.5703L34.6191 15.8203Z" fill="white" stroke="white" stroke-width="0.0976562"/>
<path opacity="0.478431" d="M16.8457 16.1133L16.8945 16.3574H16.7969L16.8457 16.1133Z" fill="white" stroke="white" stroke-width="0.0976562"/>
<path opacity="0.478431" d="M19.3848 16.2109L19.4336 16.4551H19.3359L19.3848 16.2109Z" fill="white" stroke="white" stroke-width="0.0976562"/>
<path opacity="0.478431" d="M20.8496 16.2109L29.1016 16.2598L20.8496 16.3086V16.2109Z" fill="white" stroke="white" stroke-width="0.0976562"/>
<path opacity="0.478431" d="M33.0566 16.4062L33.1055 16.6504H33.0078L33.0566 16.4062Z" fill="white" stroke="white" stroke-width="0.0976562"/>
<path opacity="0.478431" d="M34.5215 16.6016L34.5703 16.8457H34.4727L34.5215 16.6016Z" fill="white" stroke="white" stroke-width="0.0976562"/>
<path opacity="0.478431" d="M33.1543 17.1875L33.3496 17.4805" stroke="white" stroke-width="0.0976562"/>
<path opacity="0.478431" d="M33.5449 17.4805L33.9844 17.5293L33.5449 17.5781V17.4805Z" fill="white" stroke="white" stroke-width="0.0976562"/>
<path opacity="0.478431" d="M28.4668 17.7734L28.3691 17.9688" stroke="white" stroke-width="0.0976562"/>
<path opacity="0.478431" d="M21.6309 17.9688L21.7285 18.1641" stroke="white" stroke-width="0.0976562"/>
<path opacity="0.478431" d="M28.1738 18.1641L27.6855 18.75" stroke="white" stroke-width="0.0976562"/>
<path opacity="0.478431" d="M32.373 18.3594L32.2754 18.5547" stroke="white" stroke-width="0.0976562"/>
<path opacity="0.478431" d="M22.3145 18.6523L22.5098 18.9453" stroke="white" stroke-width="0.0976562"/>
<path opacity="0.478431" d="M29.6387 18.6523L29.541 18.8477" stroke="white" stroke-width="0.0976562"/>
<path opacity="0.478431" d="M20.459 18.8477L20.5566 19.043" stroke="white" stroke-width="0.0976562"/>
<path opacity="0.478431" d="M27.3926 18.8477L27.2949 19.043" stroke="white" stroke-width="0.0976562"/>
<path opacity="0.478431" d="M22.8027 19.043L22.9004 19.2383" stroke="white" stroke-width="0.0976562"/>
<path opacity="0.478431" d="M29.3457 19.043L29.1504 19.3359" stroke="white" stroke-width="0.0976562"/>
<path opacity="0.478431" d="M26.9043 19.2383L26.6113 19.6289" stroke="white" stroke-width="0.0976562"/>
<path opacity="0.478431" d="M20.9473 19.4336L21.0449 19.6289" stroke="white" stroke-width="0.0976562"/>
<path opacity="0.478431" d="M29.7363 19.4336L30.1758 19.4824L29.7363 19.5312V19.4336Z" fill="#1B2243" stroke="white" stroke-width="0.0976562"/>
<path opacity="0.478431" d="M37.8418 19.4336L38.1836 19.4824L37.8418 19.5312V19.4336Z" fill="#1B2243" stroke="white" stroke-width="0.0976562"/>
<path opacity="0.478431" d="M23.3887 19.5312L23.6816 19.9219" stroke="white" stroke-width="0.0976562"/>
<path opacity="0.478431" d="M28.8574 19.5312L28.5645 19.9219" stroke="white" stroke-width="0.0976562"/>
<path opacity="0.478431" d="M29.541 19.5312L27.6855 21.4844" stroke="white" stroke-width="0.0976562"/>
<path opacity="0.478431" d="M18.2129 19.6289L18.3105 19.8242" stroke="white" stroke-width="0.0976562"/>
<path opacity="0.478431" d="M38.5254 19.6289L40.1855 21.3867" stroke="white" stroke-width="0.0976562"/>
<path opacity="0.478431" d="M33.4473 19.7266L34.5703 19.7754L33.3984 19.8242L33.3496 20.0195L33.3008 19.873L33.4473 19.7266Z" fill="#1B2243" stroke="white" stroke-width="0.0976562"/>
<path opacity="0.478431" d="M18.4082 19.9219L18.6035 20.2148" stroke="white" stroke-width="0.0976562"/>
<path opacity="0.478431" d="M21.5332 19.9219L21.6309 20.1172" stroke="white" stroke-width="0.0976562"/>
<path opacity="0.478431" d="M26.2207 19.9219L25.9277 20.3125" stroke="white" stroke-width="0.0976562"/>
<path opacity="0.478431" d="M3.4668 20.1172L3.51562 20.6543H3.41797L3.4668 20.1172Z" fill="white" stroke="white" stroke-width="0.0976562"/>
<path opacity="0.478431" d="M21.9238 20.2148L22.1191 20.5078" stroke="white" stroke-width="0.0976562"/>
<path opacity="0.478431" d="M24.0723 20.3125L24.1699 20.5078" stroke="white" stroke-width="0.0976562"/>
<path opacity="0.478431" d="M27.7832 20.4102L27.1973 21.0938" stroke="white" stroke-width="0.0976562"/>
<path opacity="0.478431" d="M25.7324 20.5078L25.6348 20.7031" stroke="white" stroke-width="0.0976562"/>
<path opacity="0.478431" d="M18.9941 20.6055L19.3848 21.0938" stroke="white" stroke-width="0.0976562"/>
<path opacity="0.478431" d="M24.3652 20.7031L24.4629 20.8984" stroke="white" stroke-width="0.0976562"/>
<path opacity="0.478431" d="M17.2363 20.8008L17.4316 21.0938" stroke="white" stroke-width="0.0976562"/>
<path opacity="0.478431" d="M24.5605 20.9961L24.6582 21.1914" stroke="white" stroke-width="0.0976562"/>
<path opacity="0.478431" d="M4.05273 21.0938L4.39453 21.1426L4.05273 21.1914V21.0938Z" fill="white" stroke="white" stroke-width="0.0976562"/>
<path opacity="0.478431" d="M22.9004 21.1914L22.998 21.3867" stroke="white" stroke-width="0.0976562"/>
<path opacity="0.478431" d="M29.9316 21.1914L29.2969 21.9238L29.3945 22.1191L29.1992 22.0215L29.9316 21.1914Z" fill="#1B2243" stroke="white" stroke-width="0.0976562"/>
<path opacity="0.478431" d="M17.627 21.2891L18.6035 22.3633" stroke="white" stroke-width="0.0976562"/>
<path opacity="0.478431" d="M19.873 21.3867L19.9707 21.582" stroke="white" stroke-width="0.0976562"/>
<path opacity="0.478431" d="M26.9043 21.3867L26.8066 21.582" stroke="white" stroke-width="0.0976562"/>
<path opacity="0.478431" d="M46.7285 21.3867L46.7773 21.6309H46.6797L46.7285 21.3867Z" fill="#1B2243" stroke="white" stroke-width="0.0976562"/>
<path opacity="0.478431" d="M37.2559 21.4844L37.1582 21.6797" stroke="white" stroke-width="0.0976562"/>
<path opacity="0.478431" d="M23.1934 21.582L23.291 21.7773" stroke="white" stroke-width="0.0976562"/>
<path opacity="0.478431" d="M45.2637 21.582L45.3125 21.8262H45.2148L45.2637 21.582Z" fill="#1B2243" stroke="white" stroke-width="0.0976562"/>
<path opacity="0.478431" d="M20.2637 21.6797L20.3613 21.875" stroke="white" stroke-width="0.0976562"/>
<path opacity="0.478431" d="M40.3809 21.6797L40.4297 21.9238H40.332L40.3809 21.6797Z" fill="#1B2243" stroke="white" stroke-width="0.0976562"/>
<path opacity="0.478431" d="M23.4863 22.0703L23.584 22.2656" stroke="white" stroke-width="0.0976562"/>
<path opacity="0.478431" d="M38.623 22.0703L38.5254 22.2656" stroke="white" stroke-width="0.0976562"/>
<path opacity="0.478431" d="M46.8262 22.0703L46.875 22.4121H46.7773L46.8262 22.0703Z" fill="#1B2243" stroke="white" stroke-width="0.0976562"/>
<path opacity="0.478431" d="M45.3613 22.2656L45.4102 22.5098H45.3125L45.3613 22.2656Z" fill="#1B2243" stroke="white" stroke-width="0.0976562"/>
<path opacity="0.478431" d="M20.9473 22.3633L21.0449 22.5586" stroke="white" stroke-width="0.0976562"/>
<path opacity="0.478431" d="M18.9941 22.5586L19.0918 22.7539" stroke="white" stroke-width="0.0976562"/>
<path opacity="0.478431" d="M27.8809 22.5586L27.9785 22.7539" stroke="white" stroke-width="0.0976562"/>
<path opacity="0.478431" d="M33.8379 22.5586L34.082 22.6074L33.8379 22.6562V22.5586Z" fill="#1B2243" stroke="white" stroke-width="0.0976562"/>
<path opacity="0.478431" d="M21.1426 22.6562L21.2402 22.8516" stroke="white" stroke-width="0.0976562"/>
<path opacity="0.478431" d="M39.9902 22.6562L39.8926 22.8516" stroke="white" stroke-width="0.0976562"/>
<path opacity="0.478431" d="M4.15039 22.8516L7.27539 26.0742" stroke="white" stroke-width="0.0976562"/>
<path opacity="0.478431" d="M19.3848 22.8516L19.873 23.4375" stroke="white" stroke-width="0.0976562"/>
<path opacity="0.478431" d="M49.6582 22.8516L49.8535 23.1445" stroke="white" stroke-width="0.0976562"/>
<path opacity="0.478431" d="M46.9238 22.9492L46.9727 23.3887H46.875L46.9238 22.9492Z" fill="#1B2243" stroke="white" stroke-width="0.0976562"/>
<path opacity="0.478431" d="M45.459 23.0469L45.5078 23.584H45.4102L45.459 23.0469Z" fill="#1B2243" stroke="white" stroke-width="0.0976562"/>
<path opacity="0.478431" d="M31.9824 23.2422L31.8848 23.4375" stroke="white" stroke-width="0.0976562"/>
<path opacity="0.478431" d="M49.9512 23.2422L50 23.6816H49.9023L49.9512 23.2422Z" fill="#1B2243" stroke="white" stroke-width="0.0976562"/>
<path opacity="0.478431" d="M36.084 23.3398L36.4746 23.8281" stroke="white" stroke-width="0.0976562"/>
<path opacity="0.478431" d="M28.4668 23.4375L28.5156 23.584L28.3203 23.6816L28.4668 23.4375Z" fill="#1B2243" stroke="white" stroke-width="0.0976562"/>
<path opacity="0.478431" d="M31.4941 23.7305L31.3965 23.9258" stroke="white" stroke-width="0.0976562"/>
<path opacity="0.478431" d="M42.7246 23.9258L45.8496 27.1484" stroke="white" stroke-width="0.0976562"/>
<path opacity="0.478431" d="M25.7324 24.1211L25.7812 24.3652H25.6836L25.7324 24.1211Z" fill="#1B2243" stroke="white" stroke-width="0.0976562"/>
<path opacity="0.478431" d="M26.6113 24.1211L26.5137 24.3164" stroke="white" stroke-width="0.0976562"/>
<path opacity="0.478431" d="M21.7285 24.3164L21.7773 25.6348H21.6797L21.7285 24.3164Z" fill="#1B2243" stroke="white" stroke-width="0.0976562"/>
<path opacity="0.478431" d="M20.2637 24.4141L20.3125 25.5371H20.2148L20.2637 24.4141Z" fill="#1B2243" stroke="white" stroke-width="0.0976562"/>
<path opacity="0.478431" d="M32.8613 24.4141L32.5684 24.8047" stroke="white" stroke-width="0.0976562"/>
<path opacity="0.478431" d="M41.5527 24.5117L41.6016 27.1973H41.5039L41.5527 24.5117Z" fill="#1B2243" stroke="white" stroke-width="0.0976562"/>
<path opacity="0.478431" d="M25.6348 24.6094L25.5371 24.8047" stroke="white" stroke-width="0.0976562"/>
<path opacity="0.478431" d="M29.4434 24.8047L29.3457 25" stroke="white" stroke-width="0.0976562"/>
<path opacity="0.478431" d="M24.8535 25L25.0977 25.0488L24.8535 25.0977V25Z" fill="#1B2243" stroke="white" stroke-width="0.0976562"/>
<path opacity="0.478431" d="M37.1582 25.0977L37.207 25.3418H37.1094L37.1582 25.0977Z" fill="#1B2243" stroke="white" stroke-width="0.0976562"/>
<path opacity="0.478431" d="M4.39453 25.293H4.54102L6.34766 27.0996L4.49219 25.4395L4.44336 26.3672L4.39453 25.293Z" fill="white" stroke="white" stroke-width="0.0976562"/>
<path opacity="0.478431" d="M40.0879 25.293L40.1367 26.416H40.0391L40.0879 25.293Z" fill="#1B2243" stroke="white" stroke-width="0.0976562"/>
<path opacity="0.478431" d="M2.97852 25.4883L3.02734 26.416H2.92969L2.97852 25.4883Z" fill="white" stroke="white" stroke-width="0.0976562"/>
<path opacity="0.478431" d="M30.7129 25.4883L30.7617 26.3184H30.6641L30.7129 25.4883Z" fill="#1B2243" stroke="white" stroke-width="0.0976562"/>
<path opacity="0.478431" d="M32.1777 25.5859L32.2266 26.123H32.1289L32.1777 25.5859Z" fill="#1B2243" stroke="white" stroke-width="0.0976562"/>
<path opacity="0.478431" d="M0.0488281 26.2695L0.0976562 26.709H0L0.0488281 26.2695Z" fill="white" stroke="white" stroke-width="0.0976562"/>
<path opacity="0.478431" d="M7.37305 26.6602L7.42188 26.8066L7.22656 26.9043L7.37305 26.6602Z" fill="white" stroke="white" stroke-width="0.0976562"/>
<path opacity="0.478431" d="M19.7754 26.6602L19.4824 27.0508" stroke="white" stroke-width="0.0976562"/>
<path opacity="0.478431" d="M29.248 26.7578L29.6875 27.0996L29.3457 26.8555L29.248 26.7578Z" fill="#1B2243" stroke="white" stroke-width="0.0976562"/>
<path opacity="0.478431" d="M0.146484 26.8555L0.341797 27.1484" stroke="white" stroke-width="0.0976562"/>
<path opacity="0.478431" d="M32.5684 26.9531L32.8613 27.3438" stroke="white" stroke-width="0.0976562"/>
<path opacity="0.478431" d="M4.54102 27.0508L4.58984 27.3926H4.49219L4.54102 27.0508Z" fill="white" stroke="white" stroke-width="0.0976562"/>
<path opacity="0.478431" d="M0.634766 27.1484L0.976562 27.1973L0.634766 27.2461V27.1484Z" fill="white" stroke="white" stroke-width="0.0976562"/>
<path opacity="0.478431" d="M3.07617 27.1484L3.125 27.4902H3.02734L3.07617 27.1484Z" fill="white" stroke="white" stroke-width="0.0976562"/>
<path opacity="0.478431" d="M6.49414 27.1484L6.93359 27.1973L6.49414 27.2461V27.1484Z" fill="white" stroke="white" stroke-width="0.0976562"/>
<path opacity="0.478431" d="M46.1426 27.1484L46.4844 27.1973L46.1426 27.2461V27.1484Z" fill="#1B2243" stroke="white" stroke-width="0.0976562"/>
<path opacity="0.478431" d="M19.0918 27.2461L18.9941 27.4414" stroke="white" stroke-width="0.0976562"/>
<path opacity="0.478431" d="M26.5137 27.4414L26.709 27.7344" stroke="white" stroke-width="0.0976562"/>
<path opacity="0.478431" d="M20.9473 27.5391L20.8496 27.7344" stroke="white" stroke-width="0.0976562"/>
<path opacity="0.478431" d="M18.6035 27.6367L17.627 28.7109" stroke="white" stroke-width="0.0976562"/>
<path opacity="0.478431" d="M24.5605 27.6367L24.3652 27.9297" stroke="white" stroke-width="0.0976562"/>
<path opacity="0.478431" d="M33.8379 27.6367L34.1797 27.6855L33.8379 27.7344V27.6367Z" fill="#1B2243" stroke="white" stroke-width="0.0976562"/>
<path opacity="0.478431" d="M31.2988 27.7344L31.3965 27.9297" stroke="white" stroke-width="0.0976562"/>
<path opacity="0.478431" d="M4.63867 27.832L4.6875 28.0762H4.58984L4.63867 27.832Z" fill="white" stroke="white" stroke-width="0.0976562"/>
<path opacity="0.478431" d="M3.17383 27.9297L3.22266 28.2715H3.125L3.17383 27.9297Z" fill="white" stroke="white" stroke-width="0.0976562"/>
<path opacity="0.478431" d="M36.4746 27.9297L36.084 28.418" stroke="white" stroke-width="0.0976562"/>
<path opacity="0.478431" d="M20.459 28.0273L20.2637 28.3203" stroke="white" stroke-width="0.0976562"/>
<path opacity="0.478431" d="M28.2715 28.0273L28.5156 28.1738L28.4668 28.3203L28.418 28.125L28.2715 28.0273Z" fill="#1B2243" stroke="white" stroke-width="0.0976562"/>
<path opacity="0.478431" d="M25.7324 28.2227L25.7812 28.4668H25.6836L25.7324 28.2227Z" fill="#1B2243" stroke="white" stroke-width="0.0976562"/>
<path opacity="0.478431" d="M31.8848 28.3203L31.9824 28.5156" stroke="white" stroke-width="0.0976562"/>
<path opacity="0.478431" d="M4.73633 28.418L4.78516 28.6621H4.6875L4.73633 28.418Z" fill="white" stroke="white" stroke-width="0.0976562"/>
<path opacity="0.478431" d="M19.9707 28.418L19.873 28.6133" stroke="white" stroke-width="0.0976562"/>
<path opacity="0.478431" d="M24.1699 28.5156L24.2188 28.7598H24.1211L24.1699 28.5156Z" fill="#1B2243" stroke="white" stroke-width="0.0976562"/>
<path opacity="0.478431" d="M35.791 28.5156L35.6934 28.7109" stroke="white" stroke-width="0.0976562"/>
<path opacity="0.478431" d="M3.27148 28.6133L3.32031 28.8574H3.22266L3.27148 28.6133Z" fill="white" stroke="white" stroke-width="0.0976562"/>
<path opacity="0.478431" d="M39.6973 28.6133L39.7949 28.8086" stroke="white" stroke-width="0.0976562"/>
<path opacity="0.478431" d="M45.6543 28.6133L45.9961 28.6621L45.6543 28.7109V28.6133Z" fill="#1B2243" stroke="white" stroke-width="0.0976562"/>
<path opacity="0.478431" d="M19.4824 28.8086L18.8965 29.4922" stroke="white" stroke-width="0.0976562"/>
<path opacity="0.478431" d="M17.334 29.0039L17.2363 29.1992" stroke="white" stroke-width="0.0976562"/>
<path opacity="0.478431" d="M33.6426 29.1016L34.2773 29.1504L33.6426 29.1992V29.1016Z" fill="#1B2243" stroke="white" stroke-width="0.0976562"/>
<path opacity="0.478431" d="M38.3301 29.1992L38.4277 29.3945" stroke="white" stroke-width="0.0976562"/>
<path opacity="0.478431" d="M46.5332 29.1992L46.582 29.6387H46.4844L46.5332 29.1992Z" fill="#1B2243" stroke="white" stroke-width="0.0976562"/>
<path opacity="0.478431" d="M29.541 29.2969L29.4434 29.4922" stroke="white" stroke-width="0.0976562"/>
<path opacity="0.478431" d="M3.4668 29.5898L3.51562 29.834H3.41797L3.4668 29.5898Z" fill="white" stroke="white" stroke-width="0.0976562"/>
<path opacity="0.478431" d="M18.6035 29.7852L18.4082 30.0781" stroke="white" stroke-width="0.0976562"/>
<path opacity="0.478431" d="M29.248 29.7852L30.0293 30.6641" stroke="white" stroke-width="0.0976562"/>
<path opacity="0.478431" d="M40.3809 29.7852L40.4297 30.0293H40.332L40.3809 29.7852Z" fill="#1B2243" stroke="white" stroke-width="0.0976562"/>
<path opacity="0.478431" d="M31.1035 29.8828L31.0059 30.0781" stroke="white" stroke-width="0.0976562"/>
<path opacity="0.478431" d="M32.7637 30.1758L32.959 30.4688" stroke="white" stroke-width="0.0976562"/>
<path opacity="0.478431" d="M37.4512 30.2734L37.5488 30.4688" stroke="white" stroke-width="0.0976562"/>
<path opacity="0.478431" d="M40.1855 30.3711L38.4277 32.2266" stroke="white" stroke-width="0.0976562"/>
<path opacity="0.478431" d="M23.3887 30.6641L23.291 30.8594" stroke="white" stroke-width="0.0976562"/>
<path opacity="0.478431" d="M17.9199 30.7617L17.8223 30.957" stroke="white" stroke-width="0.0976562"/>
<path opacity="0.478431" d="M24.9512 30.8594L25.0488 31.0547" stroke="white" stroke-width="0.0976562"/>
<path opacity="0.478431" d="M23.1934 30.957L23.0957 31.1523" stroke="white" stroke-width="0.0976562"/>
<path opacity="0.478431" d="M26.9043 31.1523L27.002 31.3477" stroke="white" stroke-width="0.0976562"/>
<path opacity="0.478431" d="M24.7559 31.25L24.6582 31.4453" stroke="white" stroke-width="0.0976562"/>
<path opacity="0.478431" d="M22.9004 31.3477L22.1191 32.2266" stroke="white" stroke-width="0.0976562"/>
<path opacity="0.478431" d="M31.5918 31.3477L31.8359 31.4941L31.7871 31.6406L31.7383 31.4453L31.5918 31.3477Z" fill="#1B2243" stroke="white" stroke-width="0.0976562"/>
<path opacity="0.478431" d="M25.4395 31.6406L25.5371 31.8359" stroke="white" stroke-width="0.0976562"/>
<path opacity="0.478431" d="M24.3652 31.8359L24.2676 32.0312" stroke="white" stroke-width="0.0976562"/>
<path opacity="0.478431" d="M30.6152 31.9336L30.5176 32.1289" stroke="white" stroke-width="0.0976562"/>
<path opacity="0.478431" d="M25.7324 32.0312L25.8301 32.2266" stroke="white" stroke-width="0.0976562"/>
<path opacity="0.478431" d="M24.0723 32.2266L23.877 32.5195" stroke="white" stroke-width="0.0976562"/>
<path opacity="0.478431" d="M27.9785 32.2266L28.0762 32.4219" stroke="white" stroke-width="0.0976562"/>
<path opacity="0.478431" d="M29.7363 32.2266L30.1758 32.2754L29.7363 32.3242V32.2266Z" fill="#1B2243" stroke="white" stroke-width="0.0976562"/>
<path opacity="0.478431" d="M37.8418 32.2266L38.2812 32.2754L37.8418 32.3242V32.2266Z" fill="#1B2243" stroke="white" stroke-width="0.0976562"/>
<path opacity="0.478431" d="M21.7285 32.4219L21.6309 32.6172" stroke="white" stroke-width="0.0976562"/>
<path opacity="0.478431" d="M26.123 32.5195L26.709 33.2031" stroke="white" stroke-width="0.0976562"/>
<path opacity="0.478431" d="M28.3691 32.5195L28.4668 32.7148" stroke="white" stroke-width="0.0976562"/>
<path opacity="0.478431" d="M21.3379 32.7148L20.6543 33.4961" stroke="white" stroke-width="0.0976562"/>
<path opacity="0.478431" d="M32.1777 33.1055L32.373 33.3984" stroke="white" stroke-width="0.0976562"/>
<path opacity="0.478431" d="M23.0957 33.2031L22.9004 33.4961" stroke="white" stroke-width="0.0976562"/>
<path opacity="0.478431" d="M15.3809 33.3984L15.4297 33.6426H15.332L15.3809 33.3984Z" fill="white" stroke="white" stroke-width="0.0976562"/>
<path opacity="0.478431" d="M27.0996 33.3984L27.1973 33.5938" stroke="white" stroke-width="0.0976562"/>
<path opacity="0.478431" d="M29.3457 33.4961L29.4434 33.6914" stroke="white" stroke-width="0.0976562"/>
<path opacity="0.478431" d="M16.8457 33.5938L16.8945 33.8379H16.7969L16.8457 33.5938Z" fill="white" stroke="white" stroke-width="0.0976562"/>
<path opacity="0.478431" d="M22.6074 33.5938L22.5098 33.7891" stroke="white" stroke-width="0.0976562"/>
<path opacity="0.478431" d="M27.5879 33.7891L27.6855 33.9844" stroke="white" stroke-width="0.0976562"/>
<path opacity="0.478431" d="M29.6387 33.8867L29.7363 34.082" stroke="white" stroke-width="0.0976562"/>
<path opacity="0.478431" d="M22.1191 33.9844L21.9238 34.2773" stroke="white" stroke-width="0.0976562"/>
<path opacity="0.478431" d="M15.2832 34.2773L15.332 36.4746L15.1367 36.5723L15.2344 36.4746L15.2832 34.2773Z" fill="white" stroke="white" stroke-width="0.0976562"/>
<path opacity="0.478431" d="M28.0762 34.2773L28.2715 34.5703" stroke="white" stroke-width="0.0976562"/>
<path opacity="0.478431" d="M16.748 34.375L16.7969 36.3281H19.2871L19.3359 36.084H19.4336L19.2871 36.4258H16.8457L16.6992 36.2793L16.748 34.375Z" fill="#1B2243" stroke="white" stroke-width="0.0976562"/>
<path opacity="0.478431" d="M34.4238 34.375L34.5215 34.5703" stroke="white" stroke-width="0.0976562"/>
<path opacity="0.478431" d="M21.6309 34.5703L21.5332 34.7656" stroke="white" stroke-width="0.0976562"/>
<path opacity="0.478431" d="M21.4355 34.8633L21.3379 35.0586" stroke="white" stroke-width="0.0976562"/>
<path opacity="0.478431" d="M7.17773 35.2539L7.27539 35.4492" stroke="white" stroke-width="0.0976562"/>
<path opacity="0.478431" d="M7.66602 36.0352L7.76367 36.2305" stroke="white" stroke-width="0.0976562"/>
<path opacity="0.478431" d="M20.8496 36.2305L20.9473 36.3281L29.1016 36.377L20.9473 36.4258L20.8496 36.2305Z" fill="#1B2243" stroke="white" stroke-width="0.0976562"/>
<path opacity="0.478431" d="M30.7129 36.3281L33.2031 36.377L30.7129 36.4258V36.3281Z" fill="#1B2243" stroke="white" stroke-width="0.0976562"/>
<path opacity="0.478431" d="M42.041 36.4258L41.9434 36.6211" stroke="white" stroke-width="0.0976562"/>
<path opacity="0.478431" d="M8.05664 36.6211L8.1543 36.8164" stroke="white" stroke-width="0.0976562"/>
<path opacity="0.478431" d="M43.6035 36.7188L43.5059 36.9141" stroke="white" stroke-width="0.0976562"/>
<path opacity="0.478431" d="M6.39648 36.8164L6.49414 37.0117" stroke="white" stroke-width="0.0976562"/>
<path opacity="0.478431" d="M14.502 36.9141L14.209 37.3047" stroke="white" stroke-width="0.0976562"/>
<path opacity="0.478431" d="M6.5918 37.1094L6.68945 37.3047" stroke="white" stroke-width="0.0976562"/>
<path opacity="0.478431" d="M41.5527 37.1094L41.4551 37.3047" stroke="white" stroke-width="0.0976562"/>
<path opacity="0.478431" d="M8.54492 37.3047L8.64258 37.5" stroke="white" stroke-width="0.0976562"/>
<path opacity="0.478431" d="M35.791 37.3047L35.8887 37.5" stroke="white" stroke-width="0.0976562"/>
<path opacity="0.478431" d="M43.2129 37.3047L43.1152 37.5" stroke="white" stroke-width="0.0976562"/>
<path opacity="0.478431" d="M6.78711 37.4023L6.88477 37.5977" stroke="white" stroke-width="0.0976562"/>
<path opacity="0.478431" d="M35.9863 37.5977L36.084 37.793" stroke="white" stroke-width="0.0976562"/>
<path opacity="0.478431" d="M41.1621 37.5977L41.0645 37.793" stroke="white" stroke-width="0.0976562"/>
<path opacity="0.478431" d="M43.0176 37.5977L42.9199 37.793" stroke="white" stroke-width="0.0976562"/>
<path opacity="0.478431" d="M8.93555 37.793L9.0332 37.9883" stroke="white" stroke-width="0.0976562"/>
<path opacity="0.478431" d="M15.9668 37.793L34.082 37.8418L15.9668 37.8906V37.793Z" fill="#1B2243" stroke="white" stroke-width="0.0976562"/>
<path opacity="0.478431" d="M34.4238 37.9883L34.7168 38.3789" stroke="white" stroke-width="0.0976562"/>
<path opacity="0.478431" d="M42.7246 37.9883L42.627 38.1836" stroke="white" stroke-width="0.0976562"/>
<path opacity="0.478431" d="M7.27539 38.0859L7.37305 38.2812" stroke="white" stroke-width="0.0976562"/>
<path opacity="0.478431" d="M40.7715 38.0859L40.5762 38.3789" stroke="white" stroke-width="0.0976562"/>
<path opacity="0.478431" d="M9.32617 38.2812L9.61914 38.6719" stroke="white" stroke-width="0.0976562"/>
<path opacity="0.478431" d="M42.4316 38.3789L42.334 38.5742" stroke="white" stroke-width="0.0976562"/>
<path opacity="0.478431" d="M13.623 38.4766L13.6719 39.3066H13.5742L13.623 38.4766Z" fill="white" stroke="white" stroke-width="0.0976562"/>
<path opacity="0.478431" d="M7.66602 38.5742L7.76367 38.7695" stroke="white" stroke-width="0.0976562"/>
<path opacity="0.478431" d="M15.0879 38.6719L15.1367 39.1113H15.0391L15.0879 38.6719Z" fill="white" stroke="white" stroke-width="0.0976562"/>
<path opacity="0.478431" d="M40.1855 38.7695L38.8184 40.2344" stroke="white" stroke-width="0.0976562"/>
<path opacity="0.478431" d="M42.1387 38.7695L41.9434 39.0625" stroke="white" stroke-width="0.0976562"/>
<path opacity="0.478431" d="M7.95898 38.9648L8.25195 39.3555" stroke="white" stroke-width="0.0976562"/>
<path opacity="0.478431" d="M10.2051 39.2578L10.5957 39.7461" stroke="white" stroke-width="0.0976562"/>
<path opacity="0.478431" d="M41.6504 39.3555L41.2598 39.8438" stroke="white" stroke-width="0.0976562"/>
<path opacity="0.478431" d="M34.7168 39.4531L34.4238 39.8438" stroke="white" stroke-width="0.0976562"/>
<path opacity="0.478431" d="M8.64258 39.7461L10.1074 41.3086" stroke="white" stroke-width="0.0976562"/>
<path opacity="0.478431" d="M15.9668 39.9414L34.082 39.9902L15.9668 40.0391V39.9414Z" fill="#1B2243" stroke="white" stroke-width="0.0976562"/>
<path opacity="0.478431" d="M11.377 40.332L11.6699 40.7227" stroke="white" stroke-width="0.0976562"/>
<path opacity="0.478431" d="M35.8887 40.332L35.791 40.5273" stroke="white" stroke-width="0.0976562"/>
<path opacity="0.478431" d="M14.209 40.5273L14.502 40.918" stroke="white" stroke-width="0.0976562"/>
<path opacity="0.478431" d="M38.3301 40.5273L38.1348 40.8203" stroke="white" stroke-width="0.0976562"/>
<path opacity="0.478431" d="M12.0605 40.918L12.2559 41.2109" stroke="white" stroke-width="0.0976562"/>
<path opacity="0.478431" d="M37.7441 41.0156L37.6465 41.2109" stroke="white" stroke-width="0.0976562"/>
<path opacity="0.478431" d="M12.5488 41.3086L12.6465 41.5039" stroke="white" stroke-width="0.0976562"/>
<path opacity="0.478431" d="M39.6973 41.3086L39.4043 41.6992" stroke="white" stroke-width="0.0976562"/>
<path opacity="0.478431" d="M15.7715 41.4062L34.1797 41.4551L15.7715 41.5039V41.4062Z" fill="#1B2243" stroke="white" stroke-width="0.0976562"/>
<path opacity="0.478431" d="M12.9395 41.6016L13.0371 41.7969" stroke="white" stroke-width="0.0976562"/>
<path opacity="0.478431" d="M36.9629 41.6016L36.8652 41.7969" stroke="white" stroke-width="0.0976562"/>
<path opacity="0.478431" d="M10.6934 41.6992L10.8887 41.9922" stroke="white" stroke-width="0.0976562"/>
<path opacity="0.478431" d="M13.2324 41.7969L13.3301 41.9922" stroke="white" stroke-width="0.0976562"/>
<path opacity="0.478431" d="M38.916 41.9922L38.8184 42.1875" stroke="white" stroke-width="0.0976562"/>
<path opacity="0.478431" d="M11.2793 42.1875L11.377 42.3828" stroke="white" stroke-width="0.0976562"/>
<path opacity="0.478431" d="M14.1113 42.3828L14.209 42.5781" stroke="white" stroke-width="0.0976562"/>
<path opacity="0.478431" d="M35.791 42.3828L35.6934 42.5781" stroke="white" stroke-width="0.0976562"/>
<path opacity="0.478431" d="M38.4277 42.3828L38.3301 42.5781" stroke="white" stroke-width="0.0976562"/>
<path opacity="0.478431" d="M11.6699 42.4805L11.7676 42.6758" stroke="white" stroke-width="0.0976562"/>
<path opacity="0.478431" d="M26.8066 42.5781L27.0996 42.9688" stroke="white" stroke-width="0.0976562"/>
<path opacity="0.478431" d="M35.3027 42.6758L35.2051 42.8711" stroke="white" stroke-width="0.0976562"/>
<path opacity="0.478431" d="M38.0371 42.6758L37.9395 42.8711" stroke="white" stroke-width="0.0976562"/>
<path opacity="0.478431" d="M12.0605 42.7734L12.1582 42.9688" stroke="white" stroke-width="0.0976562"/>
<path opacity="0.478431" d="M37.7441 42.8711L37.6465 43.0664" stroke="white" stroke-width="0.0976562"/>
<path opacity="0.478431" d="M27.1973 43.1641L27.2461 43.4082H27.1484L27.1973 43.1641Z" fill="#1B2243" stroke="white" stroke-width="0.0976562"/>
<path opacity="0.478431" d="M36.5723 43.6523L36.4746 43.8477" stroke="white" stroke-width="0.0976562"/>
<path opacity="0.478431" d="M27.002 43.75L25.4395 45.5078L25.6836 45.5566L25.293 45.6055V45.459L27.002 43.75Z" fill="#1B2243" stroke="white" stroke-width="0.0976562"/>
<path opacity="0.478431" d="M36.084 43.9453L35.9863 44.1406" stroke="white" stroke-width="0.0976562"/>
<path opacity="0.478431" d="M14.209 44.1406L14.3066 44.3359" stroke="white" stroke-width="0.0976562"/>
<path opacity="0.478431" d="M28.2715 45.2148L28.5156 45.2637L28.2715 45.3125V45.2148Z" fill="#1B2243" stroke="white" stroke-width="0.0976562"/>
<path opacity="0.478431" d="M27.5879 45.3125L27.9297 45.3613L27.5879 45.4102V45.3125Z" fill="#1B2243" stroke="white" stroke-width="0.0976562"/>
<path opacity="0.478431" d="M26.709 45.4102L27.1484 45.459L26.709 45.5078V45.4102Z" fill="#1B2243" stroke="white" stroke-width="0.0976562"/>
<path opacity="0.478431" d="M21.4355 46.1914L21.1426 46.582" stroke="white" stroke-width="0.0976562"/>
<path opacity="0.478431" d="M28.4668 46.6797L28.7109 46.7285L28.4668 46.7773V46.6797Z" fill="#1B2243" stroke="white" stroke-width="0.0976562"/>
<path opacity="0.478431" d="M27.7832 46.7773L28.0273 46.8262L27.7832 46.875V46.7773Z" fill="#1B2243" stroke="white" stroke-width="0.0976562"/>
<path opacity="0.478431" d="M26.8066 46.875L27.2461 46.9238L26.8066 46.9727V46.875Z" fill="#1B2243" stroke="white" stroke-width="0.0976562"/>
<path opacity="0.478431" d="M25.3418 46.9727L25.8789 47.0215L25.3418 47.0703V46.9727Z" fill="#1B2243" stroke="white" stroke-width="0.0976562"/>
<path opacity="0.478431" d="M27.1973 49.0234L27.2461 49.3652H27.1484L27.1973 49.0234Z" fill="#1B2243" stroke="white" stroke-width="0.0976562"/>
<path opacity="0.478431" d="M26.3184 49.9023L26.6602 49.9512L26.3184 50V49.9023Z" fill="#1B2243" stroke="white" stroke-width="0.0976562"/>
<path opacity="0.894118" d="M22.8027 0.585938L22.8516 0.927734H22.7539L22.8027 0.585938Z" fill="white" stroke="white" stroke-width="0.0976562"/>
<path opacity="0.894118" d="M23.0957 3.02734L23.4375 3.07617L23.0957 3.125V3.02734Z" fill="white" stroke="white" stroke-width="0.0976562"/>
<path opacity="0.894118" d="M29.1504 3.61328L29.0527 3.80859" stroke="white" stroke-width="0.0976562"/>
<path opacity="0.894118" d="M23.6816 4.39453L24.0234 4.44336L23.6816 4.49219V4.39453Z" fill="white" stroke="white" stroke-width="0.0976562"/>
<path opacity="0.894118" d="M24.6582 4.49219L22.998 6.25" stroke="white" stroke-width="0.0976562"/>
<path opacity="0.894118" d="M29.0527 4.58984L29.1504 4.78516" stroke="white" stroke-width="0.0976562"/>
<path opacity="0.894118" d="M22.8027 6.54297L22.8516 6.88477H22.7539L22.8027 6.54297Z" fill="white" stroke="white" stroke-width="0.0976562"/>
<path opacity="0.894118" d="M37.7441 7.03125L37.8418 7.22656" stroke="white" stroke-width="0.0976562"/>
<path opacity="0.894118" d="M12.0605 7.12891L11.9629 7.32422" stroke="white" stroke-width="0.0976562"/>
<path opacity="0.894118" d="M38.1348 7.32422L38.2324 7.51953" stroke="white" stroke-width="0.0976562"/>
<path opacity="0.894118" d="M11.6699 7.42188L11.5723 7.61719" stroke="white" stroke-width="0.0976562"/>
<path opacity="0.894118" d="M38.5254 7.61719L38.623 7.8125" stroke="white" stroke-width="0.0976562"/>
<path opacity="0.894118" d="M11.1816 7.8125L11.084 8.00781" stroke="white" stroke-width="0.0976562"/>
<path opacity="0.894118" d="M36.6699 8.00781L36.7676 8.20312" stroke="white" stroke-width="0.0976562"/>
<path opacity="0.894118" d="M39.0137 8.00781L39.209 8.30078" stroke="white" stroke-width="0.0976562"/>
<path opacity="0.894118" d="M10.5957 8.30078L10.4004 8.59375" stroke="white" stroke-width="0.0976562"/>
<path opacity="0.894118" d="M39.6973 8.59375L41.3574 10.3516" stroke="white" stroke-width="0.0976562"/>
<path opacity="0.894118" d="M12.2559 8.78906L12.1582 8.98438" stroke="white" stroke-width="0.0976562"/>
<path opacity="0.894118" d="M37.8418 8.88672L37.9395 9.08203" stroke="white" stroke-width="0.0976562"/>
<path opacity="0.894118" d="M35.4004 9.08203L35.791 9.57031" stroke="white" stroke-width="0.0976562"/>
<path opacity="0.894118" d="M11.7676 9.17969L11.5723 9.47266" stroke="white" stroke-width="0.0976562"/>
<path opacity="0.894118" d="M38.4277 9.375L38.7207 9.76562" stroke="white" stroke-width="0.0976562"/>
<path opacity="0.894118" d="M10.9863 9.86328L9.81445 11.1328" stroke="white" stroke-width="0.0976562"/>
<path opacity="0.894118" d="M8.54492 10.3516L8.34961 10.6445" stroke="white" stroke-width="0.0976562"/>
<path opacity="0.894118" d="M41.748 10.7422L41.9434 11.0352" stroke="white" stroke-width="0.0976562"/>
<path opacity="0.894118" d="M34.9121 10.9375L34.9609 11.1816H34.8633L34.9121 10.9375Z" fill="white" stroke="white" stroke-width="0.0976562"/>
<path opacity="0.894118" d="M7.95898 11.0352L7.86133 11.2305" stroke="white" stroke-width="0.0976562"/>
<path opacity="0.894118" d="M40.1855 11.1328L40.4785 11.5234" stroke="white" stroke-width="0.0976562"/>
<path opacity="0.894118" d="M42.2363 11.3281L42.334 11.5234" stroke="white" stroke-width="0.0976562"/>
<path opacity="0.894118" d="M7.56836 11.5234L7.4707 11.7188" stroke="white" stroke-width="0.0976562"/>
<path opacity="0.894118" d="M9.32617 11.6211L9.13086 11.9141" stroke="white" stroke-width="0.0976562"/>
<path opacity="0.894118" d="M15.2832 11.7188L15.4785 12.0117" stroke="white" stroke-width="0.0976562"/>
<path opacity="0.894118" d="M42.5293 11.7188L42.627 11.9141" stroke="white" stroke-width="0.0976562"/>
<path opacity="0.894118" d="M40.7715 11.8164L40.9668 12.1094" stroke="white" stroke-width="0.0976562"/>
<path opacity="0.894118" d="M7.27539 11.9141L7.17773 12.1094" stroke="white" stroke-width="0.0976562"/>
<path opacity="0.894118" d="M8.83789 12.207L8.74023 12.4023" stroke="white" stroke-width="0.0976562"/>
<path opacity="0.894118" d="M14.1113 12.5L14.209 12.6953" stroke="white" stroke-width="0.0976562"/>
<path opacity="0.894118" d="M35.6934 12.6953L35.498 12.9883" stroke="white" stroke-width="0.0976562"/>
<path opacity="0.894118" d="M8.25195 12.9883L8.1543 13.1836" stroke="white" stroke-width="0.0976562"/>
<path opacity="0.894118" d="M14.5996 12.9883L14.6973 13.1836" stroke="white" stroke-width="0.0976562"/>
<path opacity="0.894118" d="M41.748 13.0859L41.8457 13.2812" stroke="white" stroke-width="0.0976562"/>
<path opacity="0.894118" d="M33.252 13.5742L33.3008 15.1855H33.2031L33.252 13.5742Z" fill="white" stroke="white" stroke-width="0.0976562"/>
<path opacity="0.894118" d="M19.5801 14.9414L19.4824 15.1367" stroke="white" stroke-width="0.0976562"/>
<path opacity="0.894118" d="M30.6152 15.4297L30.6641 15.6738H30.5664L30.6152 15.4297Z" fill="white" stroke="white" stroke-width="0.0976562"/>
<path opacity="0.894118" d="M34.6191 15.5273L34.668 15.7715H34.5703L34.6191 15.5273Z" fill="white" stroke="white" stroke-width="0.0976562"/>
<path opacity="0.894118" d="M16.748 15.625L16.7969 15.8691H16.6992L16.748 15.625Z" fill="white" stroke="white" stroke-width="0.0976562"/>
<path opacity="0.894118" d="M15.3809 16.0156L15.4297 16.2598H15.332L15.3809 16.0156Z" fill="white" stroke="white" stroke-width="0.0976562"/>
<path opacity="0.894118" d="M34.3262 17.1875L34.2285 17.3828" stroke="white" stroke-width="0.0976562"/>
<path opacity="0.894118" d="M28.3691 17.9688L28.2715 18.1641" stroke="white" stroke-width="0.0976562"/>
<path opacity="0.894118" d="M21.8262 18.2617L22.2168 18.75" stroke="white" stroke-width="0.0976562"/>
<path opacity="0.894118" d="M32.7637 18.2617L35.1562 18.3105L32.7637 18.3594V18.2617Z" fill="white" stroke="white" stroke-width="0.0976562"/>
<path opacity="0.894118" d="M35.5957 18.457L35.6934 18.6523" stroke="white" stroke-width="0.0976562"/>
<path opacity="0.894118" d="M27.5879 18.75L27.4902 18.9453" stroke="white" stroke-width="0.0976562"/>
<path opacity="0.894118" d="M20.6543 19.043L20.8496 19.3359" stroke="white" stroke-width="0.0976562"/>
<path opacity="0.894118" d="M27.1973 19.043L27.0996 19.2383" stroke="white" stroke-width="0.0976562"/>
<path opacity="0.894118" d="M22.998 19.2383L23.1934 19.5312" stroke="white" stroke-width="0.0976562"/>
<path opacity="0.894118" d="M29.0527 19.3359L28.9551 19.5312" stroke="white" stroke-width="0.0976562"/>
<path opacity="0.894118" d="M21.2402 19.6289L21.4355 19.9219" stroke="white" stroke-width="0.0976562"/>
<path opacity="0.894118" d="M26.5137 19.6289L26.3184 19.9219" stroke="white" stroke-width="0.0976562"/>
<path opacity="0.894118" d="M28.3691 19.9219L28.2715 20.1172" stroke="white" stroke-width="0.0976562"/>
<path opacity="0.894118" d="M21.7285 20.0195L21.8262 20.2148" stroke="white" stroke-width="0.0976562"/>
<path opacity="0.894118" d="M23.7793 20.0195L23.9746 20.3125" stroke="white" stroke-width="0.0976562"/>
<path opacity="0.894118" d="M18.6035 20.2148L18.8965 20.6055" stroke="white" stroke-width="0.0976562"/>
<path opacity="0.894118" d="M27.9785 20.2148L27.8809 20.4102" stroke="white" stroke-width="0.0976562"/>
<path opacity="0.894118" d="M25.9277 20.3125L25.8301 20.5078" stroke="white" stroke-width="0.0976562"/>
<path opacity="0.894118" d="M22.2168 20.4102L22.8027 21.0938" stroke="white" stroke-width="0.0976562"/>
<path opacity="0.894118" d="M17.1387 20.6055L17.2363 20.8008" stroke="white" stroke-width="0.0976562"/>
<path opacity="0.894118" d="M4.73633 20.8008L4.63867 20.9961" stroke="white" stroke-width="0.0976562"/>
<path opacity="0.894118" d="M17.5293 21.0938L17.627 21.2891" stroke="white" stroke-width="0.0976562"/>
<path opacity="0.894118" d="M19.4824 21.0938L19.6777 21.3867" stroke="white" stroke-width="0.0976562"/>
<path opacity="0.894118" d="M27.0996 21.0938L26.9043 21.3867" stroke="white" stroke-width="0.0976562"/>
<path opacity="0.894118" d="M37.8418 21.0938L38.7695 21.9238L38.7207 22.0703L37.9395 21.1914L37.8418 21.0938Z" fill="#1B2243" stroke="white" stroke-width="0.0976562"/>
<path opacity="0.894118" d="M35.0098 21.2891L35.2051 21.582" stroke="white" stroke-width="0.0976562"/>
<path opacity="0.894118" d="M23.0957 21.3867L23.1934 21.582" stroke="white" stroke-width="0.0976562"/>
<path opacity="0.894118" d="M20.459 21.875L20.8496 22.3633" stroke="white" stroke-width="0.0976562"/>
<path opacity="0.894118" d="M18.7012 22.2656L18.8965 22.5586" stroke="white" stroke-width="0.0976562"/>
<path opacity="0.894118" d="M3.36914 22.8516L0.244141 26.0742" stroke="white" stroke-width="0.0976562"/>
<path opacity="0.894118" d="M48.877 22.8516L47.1191 24.707" stroke="white" stroke-width="0.0976562"/>
<path opacity="0.894118" d="M42.8223 22.9492L42.7246 23.1445" stroke="white" stroke-width="0.0976562"/>
<path opacity="0.894118" d="M43.7988 22.9492L45.5078 24.5605L45.5566 24.1211L45.6055 24.707H45.459L43.7988 22.9492Z" fill="#1B2243" stroke="white" stroke-width="0.0976562"/>
<path opacity="0.894118" d="M35.8887 23.2422L35.9863 23.4375" stroke="white" stroke-width="0.0976562"/>
<path opacity="0.894118" d="M30.0293 23.3398L30.0781 23.584H29.9805L30.0293 23.3398Z" fill="#1B2243" stroke="white" stroke-width="0.0976562"/>
<path opacity="0.894118" d="M31.7871 23.4375L31.5918 23.7305" stroke="white" stroke-width="0.0976562"/>
<path opacity="0.894118" d="M46.9238 23.4375L46.9727 23.7793H46.875L46.9238 23.4375Z" fill="#1B2243" stroke="white" stroke-width="0.0976562"/>
<path opacity="0.894118" d="M36.4746 23.8281L36.5723 24.0234" stroke="white" stroke-width="0.0976562"/>
<path opacity="0.894118" d="M49.7559 23.9258L46.7285 27.0508" stroke="white" stroke-width="0.0976562"/>
<path opacity="0.894118" d="M34.0332 24.0234L34.2773 24.0723L34.0332 24.1211V24.0234Z" fill="#1B2243" stroke="white" stroke-width="0.0976562"/>
<path opacity="0.894118" d="M41.2598 24.1211L41.3574 24.3164" stroke="white" stroke-width="0.0976562"/>
<path opacity="0.894118" d="M35.1074 24.4141L35.4004 24.8047" stroke="white" stroke-width="0.0976562"/>
<path opacity="0.894118" d="M38.3301 24.6094L38.5254 24.9023" stroke="white" stroke-width="0.0976562"/>
<path opacity="0.894118" d="M2.88086 25.293C3.0306 25.2474 3.07943 25.2962 3.02734 25.4394L2.88086 25.3906L1.17188 27.0019L2.88086 25.293Z" fill="white" stroke="white" stroke-width="0.0976562"/>
<path opacity="0.894118" d="M35.791 25.6836L35.8398 26.0254H35.7422L35.791 25.6836Z" fill="#1B2243" stroke="white" stroke-width="0.0976562"/>
<path opacity="0.894118" d="M4.44336 26.3672L4.49219 26.6113H4.39453L4.44336 26.3672Z" fill="white" stroke="white" stroke-width="0.0976562"/>
<path opacity="0.894118" d="M3.07617 26.8555L3.125 27.0996H3.02734L3.07617 26.8555Z" fill="white" stroke="white" stroke-width="0.0976562"/>
<path opacity="0.894118" d="M38.5254 26.8555L38.3301 27.1484" stroke="white" stroke-width="0.0976562"/>
<path opacity="0.894118" d="M35.4004 26.9531L35.3027 27.1484" stroke="white" stroke-width="0.0976562"/>
<path opacity="0.894118" d="M19.3848 27.0508L19.2871 27.2461" stroke="white" stroke-width="0.0976562"/>
<path opacity="0.894118" d="M35.1074 27.2461L35.0098 27.4414" stroke="white" stroke-width="0.0976562"/>
<path opacity="0.894118" d="M18.8965 27.4414L18.7988 27.6367" stroke="white" stroke-width="0.0976562"/>
<path opacity="0.894118" d="M41.3574 27.4414L41.2598 27.6367" stroke="white" stroke-width="0.0976562"/>
<path opacity="0.894118" d="M25.3418 27.6367L25.5371 27.9297" stroke="white" stroke-width="0.0976562"/>
<path opacity="0.894118" d="M20.752 27.7344L20.5566 28.0273" stroke="white" stroke-width="0.0976562"/>
<path opacity="0.894118" d="M31.4941 27.9297L31.7871 28.3203" stroke="white" stroke-width="0.0976562"/>
<path opacity="0.894118" d="M39.502 28.0273L39.4043 28.2227" stroke="white" stroke-width="0.0976562"/>
<path opacity="0.894118" d="M30.0293 28.125L30.0781 28.3691H29.9805L30.0293 28.125Z" fill="#1B2243" stroke="white" stroke-width="0.0976562"/>
<path opacity="0.894118" d="M20.166 28.2227L20.0684 28.418" stroke="white" stroke-width="0.0976562"/>
<path opacity="0.894118" d="M19.7754 28.5156L19.5801 28.8086" stroke="white" stroke-width="0.0976562"/>
<path opacity="0.894118" d="M17.5293 28.8086L17.4316 29.0039" stroke="white" stroke-width="0.0976562"/>
<path opacity="0.894118" d="M45.3613 28.8086L45.2637 29.0039" stroke="white" stroke-width="0.0976562"/>
<path opacity="0.894118" d="M46.2402 28.8086L46.4355 29.1016" stroke="white" stroke-width="0.0976562"/>
<path opacity="0.894118" d="M17.2363 29.1992L17.1387 29.3945" stroke="white" stroke-width="0.0976562"/>
<path opacity="0.894118" d="M18.7988 29.4922L18.6035 29.7852" stroke="white" stroke-width="0.0976562"/>
<path opacity="0.894118" d="M27.5879 29.7852L27.6367 30.0293H27.5391L27.5879 29.7852Z" fill="#1B2243" stroke="white" stroke-width="0.0976562"/>
<path opacity="0.894118" d="M38.7207 29.7852L37.9395 30.6641L37.793 30.6152L38.7207 29.7852Z" fill="#1B2243" stroke="white" stroke-width="0.0976562"/>
<path opacity="0.894118" d="M35.1074 30.2734L35.0098 30.4688" stroke="white" stroke-width="0.0976562"/>
<path opacity="0.894118" d="M27.7832 30.3711L29.4434 32.1289" stroke="white" stroke-width="0.0976562"/>
<path opacity="0.894118" d="M23.0957 31.1523L22.998 31.3477" stroke="white" stroke-width="0.0976562"/>
<path opacity="0.894118" d="M27.0996 31.4453L27.7832 32.2266" stroke="white" stroke-width="0.0976562"/>
<path opacity="0.894118" d="M24.4629 31.6406L24.3652 31.8359" stroke="white" stroke-width="0.0976562"/>
<path opacity="0.894118" d="M22.0215 32.2266L21.9238 32.4219" stroke="white" stroke-width="0.0976562"/>
<path opacity="0.894118" d="M25.9277 32.2266L26.123 32.5195" stroke="white" stroke-width="0.0976562"/>
<path opacity="0.894118" d="M28.1738 32.4219L28.2715 32.6172" stroke="white" stroke-width="0.0976562"/>
<path opacity="0.894118" d="M23.7793 32.5195L23.1934 33.2031" stroke="white" stroke-width="0.0976562"/>
<path opacity="0.894118" d="M28.5645 32.7148L29.248 33.4961" stroke="white" stroke-width="0.0976562"/>
<path opacity="0.894118" d="M26.8066 33.1055L27.002 33.3984" stroke="white" stroke-width="0.0976562"/>
<path opacity="0.894118" d="M35.6934 33.1055L35.498 33.3984" stroke="white" stroke-width="0.0976562"/>
<path opacity="0.894118" d="M22.8027 33.3984L22.7051 33.5938" stroke="white" stroke-width="0.0976562"/>
<path opacity="0.894118" d="M32.666 33.3984L35.2539 33.4473L32.666 33.4961V33.3984Z" fill="#1B2243" stroke="white" stroke-width="0.0976562"/>
<path opacity="0.894118" d="M20.6543 33.4961L20.459 33.7891" stroke="white" stroke-width="0.0976562"/>
<path opacity="0.894118" d="M27.3926 33.5938L27.4902 33.7891" stroke="white" stroke-width="0.0976562"/>
<path opacity="0.894118" d="M15.3809 33.6914L15.4297 33.9355H15.332L15.3809 33.6914Z" fill="white" stroke="white" stroke-width="0.0976562"/>
<path opacity="0.894118" d="M22.3145 33.7891L22.2168 33.9844" stroke="white" stroke-width="0.0976562"/>
<path opacity="0.894118" d="M27.8809 33.9844L28.0762 34.2773" stroke="white" stroke-width="0.0976562"/>
<path opacity="0.894118" d="M16.748 34.082L16.7969 34.3262H16.6992L16.748 34.082Z" fill="white" stroke="white" stroke-width="0.0976562"/>
<path opacity="0.894118" d="M21.8262 34.2773L21.6309 34.5703" stroke="white" stroke-width="0.0976562"/>
<path opacity="0.894118" d="M33.5449 34.375L33.3496 34.668" stroke="white" stroke-width="0.0976562"/>
<path opacity="0.894118" d="M28.3691 34.5703L28.4668 34.7656" stroke="white" stroke-width="0.0976562"/>
<path opacity="0.894118" d="M33.252 34.8633L33.3008 36.2793H33.2031L33.252 34.8633Z" fill="#1B2243" stroke="white" stroke-width="0.0976562"/>
<path opacity="0.894118" d="M8.1543 36.8164L8.25195 37.0117" stroke="white" stroke-width="0.0976562"/>
<path opacity="0.894118" d="M35.4004 36.9141L35.6934 37.3047" stroke="white" stroke-width="0.0976562"/>
<path opacity="0.894118" d="M14.209 37.3047L14.1113 37.5" stroke="white" stroke-width="0.0976562"/>
<path opacity="0.894118" d="M41.3574 37.4023L41.2598 37.5977" stroke="white" stroke-width="0.0976562"/>
<path opacity="0.894118" d="M8.74023 37.5977L8.83789 37.793" stroke="white" stroke-width="0.0976562"/>
<path opacity="0.894118" d="M41.0645 37.793L40.8691 38.0859" stroke="white" stroke-width="0.0976562"/>
<path opacity="0.894118" d="M7.17773 37.8906L7.27539 38.0859" stroke="white" stroke-width="0.0976562"/>
<path opacity="0.894118" d="M15.4785 37.9883L15.2832 38.2812" stroke="white" stroke-width="0.0976562"/>
<path opacity="0.894118" d="M9.13086 38.0859L9.22852 38.2812" stroke="white" stroke-width="0.0976562"/>
<path opacity="0.894118" d="M7.4707 38.2812L7.56836 38.4766" stroke="white" stroke-width="0.0976562"/>
<path opacity="0.894118" d="M40.5762 38.3789L40.2832 38.7695" stroke="white" stroke-width="0.0976562"/>
<path opacity="0.894118" d="M42.2363 38.5742L42.1387 38.7695" stroke="white" stroke-width="0.0976562"/>
<path opacity="0.894118" d="M9.61914 38.6719L10.1074 39.2578" stroke="white" stroke-width="0.0976562"/>
<path opacity="0.894118" d="M7.86133 38.7695L7.95898 38.9648" stroke="white" stroke-width="0.0976562"/>
<path opacity="0.894118" d="M34.9121 38.7695L34.9609 39.0137H34.8633L34.9121 38.7695Z" fill="#1B2243" stroke="white" stroke-width="0.0976562"/>
<path opacity="0.894118" d="M41.8457 39.0625L41.748 39.2578" stroke="white" stroke-width="0.0976562"/>
<path opacity="0.894118" d="M8.34961 39.3555L8.54492 39.6484" stroke="white" stroke-width="0.0976562"/>
<path opacity="0.894118" d="M15.2832 39.5508L15.4785 39.8438" stroke="white" stroke-width="0.0976562"/>
<path opacity="0.894118" d="M10.6934 39.7461L11.2793 40.4297" stroke="white" stroke-width="0.0976562"/>
<path opacity="0.894118" d="M41.1621 39.8438L39.7949 41.3086" stroke="white" stroke-width="0.0976562"/>
<path opacity="0.894118" d="M38.7207 40.2344L38.5254 40.5273" stroke="white" stroke-width="0.0976562"/>
<path opacity="0.894118" d="M35.6934 40.5273L35.4004 40.918" stroke="white" stroke-width="0.0976562"/>
<path opacity="0.894118" d="M11.7676 40.7227L11.8652 40.918" stroke="white" stroke-width="0.0976562"/>
<path opacity="0.894118" d="M38.0371 40.8203L37.9395 41.0156" stroke="white" stroke-width="0.0976562"/>
<path opacity="0.894118" d="M37.5488 41.2109L37.4512 41.4062" stroke="white" stroke-width="0.0976562"/>
<path opacity="0.894118" d="M10.3027 41.3086L10.5957 41.6992" stroke="white" stroke-width="0.0976562"/>
<path opacity="0.894118" d="M12.7441 41.5039L12.8418 41.6992" stroke="white" stroke-width="0.0976562"/>
<path opacity="0.894118" d="M37.1582 41.5039L37.0605 41.6992" stroke="white" stroke-width="0.0976562"/>
<path opacity="0.894118" d="M39.209 41.6992L39.0137 41.9922" stroke="white" stroke-width="0.0976562"/>
<path opacity="0.894118" d="M10.9863 41.8945L11.1816 42.1875" stroke="white" stroke-width="0.0976562"/>
<path opacity="0.894118" d="M38.623 42.1875L38.5254 42.3828" stroke="white" stroke-width="0.0976562"/>
<path opacity="0.894118" d="M38.2324 42.4805L38.1348 42.6758" stroke="white" stroke-width="0.0976562"/>
<path opacity="0.894118" d="M26.0254 42.6758L22.998 45.8008" stroke="white" stroke-width="0.0976562"/>
<path opacity="0.894118" d="M12.2559 42.8711L12.3535 43.0664" stroke="white" stroke-width="0.0976562"/>
<path opacity="0.894118" d="M21.1426 45.2148L21.3379 45.5078" stroke="white" stroke-width="0.0976562"/>
<path opacity="0.894118" d="M25.7324 45.5078L26.2695 45.5566L25.7324 45.6055V45.5078Z" fill="#1B2243" stroke="white" stroke-width="0.0976562"/>
<path opacity="0.894118" d="M22.8027 46.0938L22.8516 46.3379H22.7539L22.8027 46.0938Z" fill="#1B2243" stroke="white" stroke-width="0.0976562"/>
<path opacity="0.894118" d="M22.9004 46.582L26.0254 49.8047" stroke="white" stroke-width="0.0976562"/>
<path opacity="0.894118" d="M26.5137 46.875L26.7578 46.9238L26.5137 46.9727V46.875Z" fill="#1B2243" stroke="white" stroke-width="0.0976562"/>
<path opacity="0.894118" d="M25.3418 47.0703L27.002 48.8281" stroke="white" stroke-width="0.0976562"/>
<path opacity="0.894118" d="M27.002 49.6094L26.9043 49.8047" stroke="white" stroke-width="0.0976562"/>
<path d="M23.291 0.0976562L23.877 0.195312L27.0508 3.36914L27.1484 3.95508L23.877 7.32422L23.3887 7.42188L22.9492 7.22656C22.8385 7.07031 22.806 6.79362 22.8516 6.39648L24.707 4.54102V4.39453L22.6074 4.49219L20.3613 4.88281L18.6035 5.37109L16.1621 6.34766C13.6751 7.57161 11.543 9.15039 9.76562 11.084C8.73698 12.2038 7.82552 13.4408 7.03125 14.7949L5.76172 17.4316L5.07812 19.4824L4.88281 20.5566L4.54102 20.9961L3.95508 21.0938L3.61328 20.8496L3.51562 20.0684C4.77214 15.2376 7.03451 11.4128 10.3027 8.59375C12.2363 6.81641 14.5475 5.41667 17.2363 4.39453L18.9941 3.80859L21.1426 3.32031L24.707 2.97852L22.9492 1.2207L22.8516 0.439453L23.291 0.0976562Z" fill="#1B2243" stroke="white" stroke-width="0.0976562"/>
<path d="M29.4434 3.51562L30.6152 3.71094L32.4707 4.29688L35.6934 5.76172C38.0176 7.08333 40.0195 8.72721 41.6992 10.6934C43.3333 12.5749 44.6354 14.7884 45.6055 17.334L46.582 20.752L46.7773 22.6074L46.875 22.7051L46.9727 24.707H47.1191L48.9746 22.8516H49.4629L49.8047 23.0957L49.9023 23.7793L46.5332 27.1484H46.0449L42.6758 23.877L42.5781 23.4863L43.0176 22.8516H43.6035L45.459 24.707H45.6055L45.5078 24.0723V22.9004L45.4102 22.8027L45.2148 20.9473L44.8242 19.3848L43.6523 16.2598C42.3372 13.5384 40.5957 11.2435 38.4277 9.375C37.2233 8.33333 35.8887 7.42188 34.4238 6.64062L31.9824 5.56641L29.3457 4.88281L29.0039 4.54102L28.9062 4.05273L29.248 3.61328L29.4434 3.51562Z" fill="#1B2243" stroke="white" stroke-width="0.0976562"/>
<path d="M15.5761 8.59375H34.3261C35.0357 8.79557 35.5728 9.16992 35.9374 9.7168L36.328 10.791V11.377C36.1718 12.1973 35.7974 12.7995 35.205 13.1836L34.6679 13.3789L34.5702 16.4551L34.3749 17.1387L34.0331 17.4805C33.6099 17.5456 33.3332 17.4642 33.203 17.2363L33.1054 16.3574L33.203 16.2598V15.2832L33.3007 15.1855V13.5742H16.748L16.6991 13.623V15.8691C17.1028 18.2975 18.0956 20.1367 19.6776 21.3867L20.996 22.5098L21.5819 23.6816L21.6796 24.1699V25.8301C21.4778 26.8978 21.0058 27.6953 20.2636 28.2227C19.5605 28.5938 18.9908 29.0983 18.5546 29.7363C17.8645 30.5436 17.3437 31.5202 16.9921 32.666L16.6991 34.1309V36.4258H19.3847C19.4498 36.4258 19.4661 36.2793 19.4335 35.9863C19.7851 34.5801 20.4524 33.4896 21.4355 32.7148C22.1386 32.3438 22.7082 31.8392 23.1444 31.2012L23.828 30.0293C24.095 29.4824 24.2577 28.8314 24.3163 28.0762L24.5605 27.7344L25.244 27.6367L25.6835 28.1738L25.7812 29.0527L26.3671 30.5176L27.7831 32.2266L29.4921 33.7402C30.065 34.4564 30.4231 35.3516 30.5663 36.4258H33.1542L33.3007 36.2793V34.7168L33.6425 34.375L34.0331 34.2773L34.4726 34.4727L34.6679 34.9121V36.6211C35.1887 36.7253 35.5793 37.002 35.8398 37.4512C36.1848 37.8548 36.3476 38.4408 36.328 39.209C36.1848 40.0423 35.8105 40.6445 35.205 41.0156L34.3261 41.4062H15.6737C15.0162 41.25 14.5116 40.9408 14.1601 40.4785C13.7239 40.0358 13.5611 39.3197 13.6718 38.3301C13.8541 37.7311 14.1633 37.2591 14.5995 36.9141L15.3319 36.4746V34.0332L15.4296 33.9355L15.5273 32.8613L15.9179 31.5918C16.5559 29.9837 17.4836 28.6654 18.7011 27.6367L19.9218 26.6113C20.3319 26.11 20.4621 25.3288 20.3124 24.2676C20.1627 23.571 19.8209 23.0664 19.287 22.7539L17.6757 21.3379C16.7512 20.3092 16.0676 19.0397 15.6249 17.5293L15.3319 15.9668V13.3789L14.8925 13.2812L14.2577 12.7441C13.7694 12.321 13.5741 11.6048 13.6718 10.5957C13.828 9.93815 14.1373 9.43359 14.5995 9.08203L15.5761 8.59375ZM15.9179 9.96094L15.5273 10.1562L15.039 10.8398C14.9739 11.2956 15.039 11.6211 15.2343 11.8164L15.9179 12.207H34.0819L34.3749 12.1094C34.6353 11.9141 34.8306 11.6211 34.9608 11.2305L34.8632 10.6445L34.1796 9.96094H15.9179ZM33.789 24.0234L33.0077 24.3164C32.552 24.5768 32.259 25 32.1288 25.5859C32.0637 26.1719 32.1614 26.6276 32.4218 26.9531C32.6822 27.3438 33.1054 27.6042 33.6913 27.7344H34.2773L35.0585 27.4414C35.5142 27.181 35.7746 26.7253 35.8398 26.0742C35.8398 25.4883 35.7095 25.0651 35.4491 24.8047L34.6679 24.1211L33.789 24.0234ZM24.9999 30.8594L24.121 32.2266C23.6653 32.8776 23.0793 33.3984 22.3632 33.7891C21.5819 34.375 21.0611 35.1888 20.8007 36.2305L20.8983 36.4258H29.1015C29.0364 35.5143 28.7108 34.7982 28.1249 34.2773L26.7577 33.1055C26.0416 32.5195 25.4882 31.8359 25.0976 31.0547C25.1627 30.8594 25.1301 30.7943 24.9999 30.8594ZM15.9179 37.793L15.5273 37.9883L15.039 38.6719C14.9739 39.1276 15.039 39.4531 15.2343 39.6484L15.9179 40.0391H34.1796L34.3749 39.9414C34.6353 39.7461 34.8306 39.4531 34.9608 39.0625L34.8632 38.4766L34.1796 37.793H15.9179Z" fill="#1B2243" stroke="white" stroke-width="0.0976562"/>
<path d="M19.7754 14.8438H30.127L30.4688 15.0879L30.5664 15.2832V16.3574C30.2539 17.9329 29.554 19.1211 28.4668 19.9219C27.8027 20.2669 27.2656 20.7389 26.8555 21.3379L26.0742 22.7051L25.6836 23.9746V24.4629L25.3418 24.9023L24.7559 25L24.4141 24.8047L24.1211 23.3887L23.4375 21.8262L22.2168 20.4102L20.8984 19.3848C20.3581 18.8184 19.9349 18.1348 19.6289 17.334L19.4336 16.6504L19.3359 15.3809L19.7754 14.8438ZM20.8008 16.2109C20.931 17.0573 21.2565 17.7734 21.7773 18.3594L23.3398 19.5312C23.9909 20.1823 24.5443 20.931 25 21.7773L25.9766 20.3125C26.3672 19.7266 26.888 19.2708 27.5391 18.9453C28.2552 18.4245 28.776 17.6758 29.1016 16.6992C29.1016 16.3737 29.1016 16.2109 29.1016 16.2109H20.8008Z" fill="#1B2243" stroke="white" stroke-width="0.0976562"/>
<path d="M32.5684 18.3594H35.4004L35.7422 18.7012L36.1328 20.4102L36.7676 20.2148L37.7441 19.5312H38.2324L40.1367 21.3379C40.319 21.4486 40.3841 21.6764 40.332 22.0215L39.3555 23.584L39.7949 23.8281L40.9668 24.0234L41.5039 24.4629V27.2949L41.0645 27.7344L39.502 28.0273L39.3555 28.1738L40.1367 29.3457C40.3125 29.4954 40.3776 29.7559 40.332 30.127L38.4277 32.1289L37.7441 32.2266L36.5723 31.4453L36.1328 31.3477L35.8398 32.8613L35.4004 33.3984H32.5684L32.2266 33.1543L31.8359 31.3477H31.4941L30.127 32.2266H29.6387L27.6367 30.2246V29.6387L28.418 28.4668L28.5156 28.0273L26.9043 27.7344L26.4648 27.3926L26.3672 27.0996V24.7559L26.709 24.1211L28.5156 23.7305L28.418 23.291L27.6367 22.1191V21.5332L29.541 19.6289L30.127 19.5312L31.4941 20.4102H31.8359L32.1289 18.7988L32.373 18.457L32.5684 18.3594ZM33.3008 19.7266L33.0078 21.2891L32.7148 21.582L31.7383 21.9727L30.1758 21.1914L30.0781 21.0938L29.1992 21.9727L29.9805 23.2422V23.8281L29.5898 24.707L29.1992 25L28.0273 25.1953L27.832 25.3906V26.5625L29.3945 26.8555L29.9805 28.0273V28.6133L29.1992 29.7852L30.0781 30.6641L31.6406 29.7852L32.8125 30.2734L33.0078 30.5664L33.3008 31.7383L33.3984 32.0312H34.5703L34.9609 30.5664L35.3516 30.1758L36.4258 29.7852L37.8906 30.6641L38.7695 29.8828L37.8906 28.418L38.2812 27.2461L38.8672 26.7578L40.0391 26.5625L40.1367 26.4648V25.3906L40.0391 25.1953L38.6719 24.9023L38.2812 24.6094L37.8906 23.7305C38.0208 23.0143 38.3138 22.4609 38.7695 22.0703L37.9883 21.0938L36.4258 21.9727L35.3516 21.582L34.8633 21.1914L34.5703 19.9219V19.7266H33.3008Z" fill="#1B2243" stroke="white" stroke-width="0.0976562"/>
<path d="M33.5449 22.6563C34.9056 22.6302 35.8659 23.0046 36.4258 23.7793C36.9792 24.3001 37.2396 25.1139 37.207 26.2207C37.0312 27.1842 36.6243 27.9167 35.9863 28.418C35.446 28.9193 34.6322 29.1471 33.5449 29.1016C32.5488 28.9258 31.8164 28.4863 31.3477 27.7832L30.7617 26.416V25.3418C30.9635 24.4043 31.403 23.7044 32.0801 23.2422C32.4707 22.9492 32.959 22.7539 33.5449 22.6563Z" fill="#1B2243" stroke="white" stroke-width="0.0976562"/>
<path d="M3.4668 22.8516L4.15039 22.9492L7.32422 26.123L7.42188 26.5137L6.98242 27.1484L6.29883 27.0508L4.44336 25.1953L4.39453 26.6113L4.49219 26.709L4.58984 28.2715L5.07812 30.5176L6.15234 33.4473C7.42839 36.2077 9.13737 38.5352 11.2793 40.4297C12.3926 41.4323 13.6296 42.3112 14.9902 43.0664L17.7246 44.3359C18.7272 44.7331 19.834 45.026 21.0449 45.2148L21.3867 45.5566L21.4844 46.0449L21.1426 46.4844L20.5566 46.582C18.1348 46.0417 15.9863 45.2279 14.1113 44.1406C11.9954 42.9362 10.1562 41.4551 8.59375 39.6973C6.77734 37.7051 5.34505 35.3288 4.29688 32.5684L3.32031 28.9551L3.125 26.9043L3.02734 26.8066V25.293H2.88086L1.02539 27.1484H0.537109L0.195312 26.9043L0.0976562 26.2207L3.4668 22.8516Z" fill="#1B2243" stroke="white" stroke-width="0.0976562"/>
<path d="M45.5566 28.7109H46.0449L46.4844 29.1504V29.7363L45.8008 32.1777C45.3125 33.5449 44.7266 34.8145 44.043 35.9863C42.7669 38.1934 41.1882 40.0977 39.3066 41.6992C37.3796 43.3854 35.1009 44.7201 32.4707 45.7031L28.7598 46.6797L27.5879 46.7773L27.4902 46.875H26.5137L26.416 46.9727H25.293V47.1191L27.0508 48.877L27.1484 49.3652L26.709 49.9023H26.2207L22.8516 46.5332V45.9473L26.123 42.6758L26.6113 42.5781L27.0508 42.9199L27.1484 43.5059L25.1953 45.5566L26.2207 45.6055L26.3184 45.5078H27.2949L29.541 45.1172C30.9147 44.7982 32.1842 44.375 33.3496 43.8477C36.2467 42.513 38.6719 40.7064 40.625 38.4277L42.9688 35.1074L44.3359 32.1777L44.9219 30.3223L45.1172 29.248L45.5566 28.7109Z" fill="#1B2243" stroke="white" stroke-width="0.0976562"/>
</g>
<defs>
<clipPath id="clip0_60_85">
<rect width="50" height="50" fill="white"/>
</clipPath>
</defs>
</svg>
